<svg width="1000" height="1000" viewBox="0 0 1000 1000" fill="none" xmlns="http://www.w3.org/2000/svg">
<path fill-rule="evenodd" clip-rule="evenodd" d="M675.527 151.852C749.318 189.072 809.373 248.776 847.026 322.346C884.679 395.917 897.981 479.549 885.013 561.171C872.045 642.793 833.477 718.184 774.877 776.462C716.276 834.74 640.673 872.89 558.981 885.407L553.231 885.963C527.805 888.463 514.472 889.056 500.342 877.509L499.981 877.213L499.823 877.343C485.768 889 472.425 888.454 447.046 886L440.972 885.407C348.708 871.364 264.545 824.686 203.777 753.856C143.008 683.025 109.668 592.744 109.815 499.418C109.962 406.092 143.586 315.916 204.577 245.277C265.568 174.638 349.877 128.225 442.184 114.472C443.354 114.305 444.532 114.197 445.712 114.148C470.481 111.713 483.444 110.759 497.712 121.083C498.499 121.648 499.249 122.222 499.971 122.787C500.694 122.222 501.444 121.648 502.231 121.083C516.499 110.759 529.462 111.713 554.231 114.148C555.411 114.197 556.589 114.305 557.759 114.472C598.761 120.554 638.523 133.174 675.527 151.852Z" fill="#F5E6F5"/>
<path fill-rule="evenodd" clip-rule="evenodd" d="M354.628 211.686C323.995 227.214 296.035 247.531 271.804 271.871C145.638 398.047 145.628 602.019 271.804 728.204C319.739 776.396 381.766 808.085 448.906 818.686V181.334C416.095 186.494 384.288 196.734 354.628 211.686ZM247.647 247.676C301.516 193.539 371.431 158.25 446.98 147.065C482.582 143.547 483.147 143.528 483.147 173.639V826.417C483.147 855.602 482.619 856.482 450.175 853.269C448.74 853.13 447.314 853.019 445.897 852.806C370.787 841.36 301.313 806.171 247.647 752.39C108.277 613.01 108.277 387.038 247.647 247.676ZM752.351 247.676C698.482 193.539 628.566 158.25 553.017 147.065C517.415 143.547 516.851 143.528 516.851 173.639V826.417C516.851 855.695 517.378 856.482 550.138 853.269C551.453 853.14 552.767 853.038 554.082 852.834C629.203 841.387 698.685 806.187 752.351 752.39C891.721 613.01 891.721 387.038 752.351 247.676ZM786.351 503.612C785.349 500.544 783.458 497.843 780.917 495.853C778.376 493.863 775.301 492.673 772.082 492.436C767.776 492.124 763.521 493.532 760.25 496.35C756.979 499.168 754.958 503.168 754.628 507.473C749.138 580.204 715.774 648.006 661.499 696.732C650.73 706.408 657.101 724.362 671.536 725.121C673.674 725.241 675.814 724.936 677.832 724.222C679.851 723.508 681.708 722.401 683.295 720.964C736.048 673.544 771.313 609.755 783.415 539.862C785.125 529.948 786.36 519.967 787.119 509.917C787.036 507.454 787.397 506.797 786.351 503.612ZM638.378 753.167C647.008 741.639 637.452 725.288 623.073 727.315C620.966 727.605 618.939 728.314 617.11 729.399C609.073 734.186 598.425 739.741 589.962 743.602C588.015 744.49 586.261 745.748 584.795 747.306C581.855 750.46 580.288 754.653 580.437 758.962C580.586 763.271 582.44 767.345 585.591 770.288C587.941 772.481 590.889 773.929 594.061 774.448C597.234 774.968 600.489 774.535 603.415 773.204C613.793 768.529 623.89 763.255 633.656 757.408C635.498 756.325 637.104 754.883 638.378 753.167ZM316.156 397.695C319.243 397.595 322.177 396.325 324.361 394.141C326.545 391.956 327.816 389.023 327.915 385.936C328.175 378.786 331.131 371.998 336.189 366.938C341.248 361.878 348.034 358.92 355.184 358.658C358.344 358.571 361.346 357.254 363.55 354.988C365.754 352.722 366.988 349.685 366.988 346.524C366.988 343.362 365.754 340.326 363.55 338.06C361.346 335.794 358.344 334.477 355.184 334.389C348.033 334.13 341.246 331.172 336.187 326.112C331.128 321.051 328.173 314.263 327.915 307.112C327.793 303.974 326.46 301.006 324.197 298.83C321.934 296.653 318.916 295.438 315.777 295.438C312.637 295.438 309.619 296.653 307.356 298.83C305.093 301.006 303.76 303.974 303.638 307.112C303.376 314.263 300.418 321.05 295.358 326.11C290.298 331.17 283.511 334.128 276.36 334.389C273.2 334.477 270.198 335.794 267.994 338.06C265.79 340.326 264.556 343.362 264.556 346.524C264.556 349.685 265.79 352.722 267.994 354.988C270.198 357.254 273.2 358.571 276.36 358.658C283.512 358.918 290.3 361.875 295.36 366.935C300.421 371.996 303.378 378.784 303.638 385.936C303.739 389.148 305.11 392.19 307.449 394.394C309.789 396.598 312.906 397.785 316.119 397.695H316.156ZM728.193 271.871C679.24 222.917 618.101 191.927 551.082 181.334V818.686C707.286 793.76 822.795 658.63 822.795 500.001C822.825 457.616 814.481 415.644 798.241 376.494C782.002 337.345 758.187 301.79 728.165 271.871H728.193Z" fill="#500599"/>
</svg>
