<svg width="1000" height="1000" viewBox="0 0 1000 1000" fill="none" xmlns="http://www.w3.org/2000/svg">
<path d="M196.157 816.602C208.245 816.591 219.963 820.772 229.313 828.434C238.663 836.095 245.067 846.761 247.434 858.615C249.8 870.469 247.982 882.777 242.291 893.441C236.599 904.105 227.385 912.465 216.22 917.096C205.054 921.728 192.628 922.344 181.06 918.84C169.491 915.336 159.495 907.928 152.776 897.879C146.057 887.831 143.031 875.763 144.213 863.733C145.396 851.703 150.713 840.456 159.259 831.907C160.183 830.984 161.16 830.115 162.185 829.305C171.62 821.111 183.698 816.6 196.194 816.602M656.88 850.278C652.87 860.12 645.12 867.009 635.982 870.879C631.094 873.029 625.812 874.139 620.472 874.139C615.133 874.139 609.851 873.029 604.963 870.879C595.815 867.009 588.093 860.139 584.074 850.296C574.213 846.305 567.333 838.611 563.463 829.509C562.991 828.386 562.577 827.239 562.222 826.074C560.907 822.144 560.219 818.032 560.185 813.889C560.228 808.553 561.337 803.281 563.445 798.379C567.324 789.241 574.195 781.5 584.046 777.491C588.065 767.639 595.806 760.759 604.945 756.879C609.834 754.73 615.117 753.62 620.458 753.62C625.8 753.62 631.083 754.73 635.972 756.879L636.083 756.926V756.879C645.167 760.741 652.861 767.611 656.852 777.472C666.713 781.472 673.583 789.166 677.445 798.25C677.928 799.386 678.349 800.548 678.704 801.731C680.016 805.652 680.704 809.754 680.741 813.889C680.702 819.223 679.597 824.496 677.491 829.398C673.611 838.528 666.722 846.296 656.88 850.278ZM704.574 329.981C716.661 329.977 728.375 334.164 737.721 341.829C747.066 349.493 753.465 360.161 755.827 372.015C758.188 383.869 756.366 396.175 750.671 406.836C744.977 417.497 735.761 425.853 724.596 430.481C713.43 435.109 701.005 435.723 689.438 432.216C677.871 428.71 667.878 421.302 661.161 411.253C654.444 401.205 651.42 389.138 652.603 377.109C653.786 365.081 659.103 353.834 667.648 345.287C672.492 340.43 678.248 336.577 684.584 333.951C690.921 331.324 697.715 329.975 704.574 329.981ZM200.176 421.518H200.259L205.759 415.963H205.713L200.176 421.518ZM214.13 362.639C225.99 362.671 237.356 367.398 245.741 375.787L245.935 375.991C254.326 384.399 259.034 395.796 259.022 407.675C259.009 419.554 254.279 430.942 245.87 439.333C237.462 447.724 226.065 452.432 214.186 452.419C202.307 452.407 190.919 447.677 182.528 439.268L182.324 439.055C178.176 434.91 174.886 429.986 172.644 424.566C170.402 419.147 169.252 413.338 169.26 407.473C169.268 401.608 170.433 395.803 172.689 390.389C174.945 384.975 178.248 380.06 182.407 375.926L182.611 375.722C190.989 367.378 202.324 362.682 214.148 362.657L214.13 362.639ZM566.352 577.565H566.426L571.982 572.009L566.352 577.565ZM474.389 384.463L475.204 383.87L474.519 384.157L474.389 384.463ZM503.639 697.935L665.741 575L665.333 572.018L665.037 569.12L623.454 551.092C626.273 560.651 625.825 570.877 622.179 580.152C618.534 589.427 611.899 597.222 603.326 602.303C594.753 607.383 584.73 609.46 574.844 608.205C564.957 606.949 555.772 602.433 548.741 595.37L548.537 595.167C545.175 591.789 542.363 587.906 540.204 583.657L503.639 697.935ZM300.583 253.166V252.963L301.917 254.278V254.203L300.556 252.842V253.157L300.417 252.824L300.556 252.963V252.842L300.333 252.611L300.417 252.824L300.213 252.62L300.398 253.074L300.556 253.231L300.583 253.166ZM300.306 156.815C319.997 156.829 339.205 162.918 355.308 174.251C371.412 185.584 383.627 201.608 390.288 220.139C396.949 238.67 397.731 258.804 392.528 277.796C387.324 296.787 376.389 313.711 361.213 326.259L363.157 336.324C363.315 337.166 363.435 338 363.528 338.833C364.665 347.534 363.314 356.379 359.63 364.342C366.674 370.923 371.463 379.558 373.315 389.018L378.417 415.555V415.676C379.003 418.801 379.254 421.979 379.167 425.157V425.472C378.99 431.73 377.537 437.887 374.898 443.565C381.938 450.147 386.724 458.782 388.574 468.241L393.676 494.778V494.907C395.419 504.344 394.186 514.09 390.148 522.796C397.196 529.374 401.986 538.01 403.833 547.472L408.87 574.074V574.194C409.452 577.32 409.703 580.498 409.62 583.676V583.991C409.452 590.25 407.999 596.408 405.352 602.083C412.4 608.661 417.19 617.297 419.037 626.759L423.259 648.676L462.083 527.379C447.948 512.452 438.971 493.386 436.471 472.981C433.972 452.576 438.08 431.907 448.195 414.009C450.076 410.714 452.141 407.526 454.38 404.463L453.787 404.722C452.663 405.2 451.513 405.614 450.343 405.963C446.41 407.278 442.294 407.959 438.148 407.981C432.81 407.937 427.534 406.829 422.63 404.722C413.491 400.852 405.759 393.972 401.741 384.12C391.898 380.102 385.019 372.361 381.139 363.222C378.996 358.332 377.889 353.052 377.889 347.713C377.889 342.374 378.996 337.093 381.139 332.203C385.009 323.055 391.898 315.324 401.741 311.315C405.759 301.472 413.5 294.583 422.639 290.713C427.527 288.563 432.808 287.453 438.148 287.453C443.488 287.453 448.769 288.563 453.658 290.713C462.806 294.583 470.546 301.463 474.556 311.315C484.389 315.333 491.278 323.065 495.158 332.213C498.366 339.91 499.11 348.412 497.285 356.549C495.461 364.686 491.16 372.057 484.972 377.648C488.194 375.865 491.514 374.267 494.917 372.861C506.478 368.035 518.879 365.542 531.407 365.528C537.784 365.587 544.139 366.279 550.38 367.592C570.557 371.727 588.87 382.239 602.615 397.578C616.36 412.917 624.808 432.269 626.713 452.778L701.408 485.185C714.771 474.762 730.663 468.077 747.459 465.812C764.254 463.548 781.35 465.786 796.996 472.297C812.643 478.808 826.279 489.359 836.51 502.87C846.741 516.38 853.199 532.367 855.223 549.193C857.248 566.019 854.766 583.08 848.033 598.633C841.299 614.185 830.555 627.669 816.899 637.706C803.244 647.743 787.167 653.972 770.314 655.756C753.461 657.541 736.436 654.816 720.982 647.861L510.361 807.657L510.593 809.25C513.453 829.978 509.405 851.072 499.074 869.268C494.837 876.753 489.617 883.638 483.556 889.74C474.666 898.631 464.112 905.684 452.496 910.497C440.881 915.309 428.431 917.786 415.858 917.787C403.286 917.788 390.836 915.312 379.219 910.502C367.603 905.691 357.048 898.64 348.157 889.75C339.267 880.86 332.214 870.306 327.401 858.691C322.589 847.075 320.112 834.625 320.111 822.053C320.11 809.48 322.586 797.03 327.396 785.414C332.207 773.798 339.258 763.243 348.148 754.352L349.861 752.685C349.63 751.759 349.407 750.833 349.232 749.907L344.12 723.37V723.25C343.541 720.124 343.293 716.946 343.38 713.768V713.444C343.557 707.192 345.009 701.041 347.648 695.37C340.599 688.794 335.809 680.157 333.963 670.694L328.861 644.157V644.037C328.28 640.914 328.028 637.74 328.111 634.565V634.259C328.287 627.985 329.75 621.815 332.407 616.129C325.362 609.547 320.576 600.908 318.732 591.444L313.63 564.907V564.778C311.887 555.34 313.119 545.595 317.157 536.889C310.109 530.311 305.32 521.675 303.472 512.213L298.37 485.676V485.555C297.788 482.43 297.537 479.252 297.62 476.074V475.75C297.79 469.493 299.242 463.338 301.889 457.666C294.841 451.089 290.051 442.452 288.204 432.991L283.093 406.453V406.333C282.512 403.208 282.26 400.03 282.343 396.852V396.528C282.511 390.268 283.964 384.11 286.611 378.435C279.589 371.827 274.829 363.173 273.009 353.703L272.796 352.426L271.13 343.759C251.92 337.543 235.159 325.428 223.232 309.137C211.305 292.846 204.818 273.208 204.695 253.018V252.509H204.565C204.57 227.118 214.658 202.768 232.612 184.812C250.565 166.857 274.914 156.766 300.306 156.759V156.815ZM682.528 78.9165C692.852 78.8989 702.95 81.9469 711.54 87.6742C720.13 93.4016 726.826 101.55 730.78 111.088C734.734 120.625 735.768 131.121 733.75 141.247C731.732 151.372 726.753 160.67 719.445 167.963L719.38 168.028L719.445 168.092C713.372 174.168 705.894 178.652 697.674 181.146C689.454 183.641 680.746 184.07 672.32 182.396C663.895 180.721 656.013 176.994 649.372 171.545C642.731 166.096 637.537 159.093 634.249 151.157C630.962 143.221 629.682 134.596 630.524 126.047C631.366 117.499 634.303 109.289 639.076 102.147C643.849 95.0047 650.309 89.1497 657.885 85.1008C665.461 81.0519 673.919 78.9341 682.509 78.935L682.528 78.9165Z" fill="#F5E6F5"/>
<path d="M196.158 849.584C199.968 849.582 203.693 850.71 206.862 852.826C210.03 854.941 212.5 857.949 213.959 861.469C215.418 864.988 215.8 868.861 215.057 872.598C214.314 876.335 212.48 879.767 209.786 882.461C207.092 885.155 203.659 886.99 199.922 887.733C196.186 888.475 192.313 888.093 188.793 886.634C185.273 885.176 182.266 882.706 180.15 879.537C178.035 876.368 176.906 872.644 176.908 868.834C176.908 863.728 178.936 858.832 182.546 855.222C186.156 851.612 191.053 849.584 196.158 849.584ZM631.39 824.787C628.669 827.493 627.085 831.137 626.964 834.973C626.704 843.241 614.251 843.306 614.001 834.973C613.863 831.145 612.282 827.512 609.574 824.803C606.867 822.095 603.235 820.511 599.408 820.371C591.14 820.111 591.075 807.658 599.408 807.408C603.23 807.27 606.859 805.691 609.564 802.987C612.27 800.283 613.851 796.656 613.992 792.834C614.251 784.556 626.695 784.5 626.954 792.834C627.095 796.657 628.678 800.286 631.385 802.99C634.092 805.694 637.723 807.272 641.547 807.408C649.816 807.676 649.88 820.121 641.547 820.371C637.722 820.494 634.089 822.074 631.39 824.787ZM448.982 358.676C446.259 361.381 444.675 365.025 444.556 368.861C444.288 377.13 431.843 377.195 431.593 368.861C431.453 365.038 429.872 361.41 427.167 358.705C424.462 356 420.833 354.418 417.01 354.278C408.742 354.019 408.677 341.565 417.01 341.315C420.832 341.177 424.461 339.598 427.166 336.894C429.871 334.191 431.453 330.563 431.593 326.741C431.853 318.463 444.306 318.408 444.556 326.741C444.694 330.564 446.275 334.193 448.981 336.897C451.687 339.601 455.317 341.18 459.14 341.315C467.408 341.584 467.473 354.028 459.14 354.278C455.324 354.404 451.7 355.976 449.001 358.676H448.982ZM704.538 362.963C708.345 362.963 712.067 364.092 715.233 366.208C718.398 368.323 720.866 371.329 722.323 374.847C723.78 378.364 724.161 382.235 723.418 385.969C722.675 389.703 720.842 393.133 718.15 395.825C715.457 398.517 712.027 400.351 708.293 401.093C704.559 401.836 700.689 401.455 697.171 399.998C693.654 398.541 690.647 396.074 688.532 392.908C686.417 389.742 685.288 386.021 685.288 382.213C685.289 379.683 685.789 377.177 686.759 374.84C687.729 372.502 689.151 370.379 690.942 368.591C692.733 366.803 694.859 365.386 697.198 364.42C699.537 363.455 702.044 362.96 704.575 362.963H704.538ZM214.149 395.639C216.504 395.639 218.806 396.338 220.764 397.646C222.723 398.954 224.249 400.814 225.15 402.99C226.051 405.166 226.287 407.56 225.828 409.87C225.368 412.179 224.234 414.301 222.569 415.966C220.903 417.632 218.782 418.766 216.472 419.225C214.162 419.685 211.768 419.449 209.592 418.548C207.416 417.646 205.557 416.12 204.248 414.162C202.94 412.204 202.242 409.902 202.242 407.547C202.242 404.389 203.496 401.36 205.729 399.127C207.962 396.894 210.991 395.639 214.149 395.639ZM580.353 551.704C582.708 551.704 585.01 552.402 586.968 553.711C588.926 555.019 590.452 556.879 591.354 559.055C592.255 561.23 592.491 563.625 592.031 565.934C591.572 568.244 590.438 570.366 588.772 572.031C587.107 573.697 584.986 574.831 582.676 575.29C580.366 575.75 577.972 575.514 575.796 574.612C573.62 573.711 571.76 572.185 570.452 570.227C569.144 568.269 568.445 565.967 568.445 563.611C568.444 562.047 568.751 560.499 569.349 559.053C569.947 557.608 570.824 556.295 571.93 555.189C573.036 554.083 574.349 553.206 575.794 552.608C577.24 552.01 578.789 551.703 580.353 551.704ZM381.538 743.621C381.859 745.293 382.507 746.886 383.445 748.308C384.382 749.73 385.59 750.954 387 751.909C388.41 752.864 389.994 753.533 391.663 753.876C393.331 754.218 395.05 754.229 396.723 753.908C398.396 753.586 399.988 752.938 401.41 752.001C402.833 751.064 404.056 749.856 405.012 748.446C405.967 747.036 406.635 745.451 406.978 743.783C407.321 742.115 407.332 740.395 407.01 738.723L401.936 712.306C401.286 708.928 399.322 705.947 396.474 704.017C393.626 702.088 390.129 701.369 386.751 702.019C383.373 702.668 380.391 704.633 378.462 707.481C376.533 710.329 375.814 713.826 376.464 717.204L381.538 743.621ZM366.297 664.38C366.619 666.053 367.267 667.645 368.204 669.067C369.141 670.49 370.349 671.713 371.759 672.668C373.169 673.624 374.754 674.292 376.422 674.635C378.09 674.978 379.81 674.989 381.482 674.667C383.155 674.345 384.748 673.698 386.17 672.76C387.592 671.823 388.815 670.615 389.771 669.205C390.726 667.795 391.394 666.21 391.737 664.542C392.08 662.874 392.091 661.154 391.769 659.482L386.695 633.065C386.046 629.687 384.081 626.706 381.233 624.777C378.385 622.847 374.888 622.129 371.51 622.778C368.132 623.428 365.151 625.392 363.222 628.24C361.292 631.088 360.573 634.586 361.223 637.963L366.297 664.38ZM351.066 585.186C351.715 588.563 353.68 591.545 356.528 593.474C359.375 595.403 362.873 596.122 366.251 595.473C369.629 594.823 372.61 592.858 374.539 590.01C376.468 587.163 377.187 583.665 376.538 580.287L371.455 553.871C370.805 550.493 368.84 547.511 365.992 545.582C363.145 543.653 359.647 542.934 356.269 543.584C352.891 544.233 349.91 546.198 347.981 549.046C346.052 551.894 345.333 555.391 345.982 558.769L351.066 585.186ZM335.825 505.945C336.474 509.323 338.439 512.304 341.287 514.233C344.135 516.162 347.632 516.881 351.01 516.232C354.388 515.582 357.369 513.618 359.299 510.77C361.228 507.922 361.947 504.424 361.297 501.047L356.214 474.63C355.564 471.252 353.599 468.271 350.752 466.341C347.904 464.412 344.406 463.693 341.029 464.343C337.651 464.992 334.669 466.957 332.74 469.805C330.811 472.653 330.092 476.15 330.742 479.528L335.825 505.945ZM320.584 426.704C320.906 428.377 321.554 429.969 322.491 431.392C323.428 432.814 324.636 434.037 326.046 434.993C327.456 435.948 329.041 436.616 330.709 436.959C332.377 437.302 334.097 437.313 335.769 436.991C337.442 436.669 339.035 436.022 340.457 435.084C341.879 434.147 343.103 432.939 344.058 431.529C345.013 430.119 345.681 428.535 346.024 426.866C346.367 425.198 346.378 423.478 346.056 421.806L340.973 395.371C340.323 391.993 338.359 389.011 335.511 387.082C332.663 385.153 329.166 384.434 325.788 385.084C322.41 385.733 319.429 387.698 317.499 390.546C315.57 393.394 314.851 396.891 315.501 400.269L320.584 426.704ZM437.251 800.639C418.205 781.584 385.464 795.13 385.464 822.093C385.464 849.056 418.205 862.602 437.251 843.547C440.077 840.73 442.32 837.384 443.851 833.699C445.382 830.014 446.171 826.064 446.172 822.074C446.174 818.084 445.389 814.132 443.861 810.446C442.333 806.76 440.093 803.412 437.269 800.593L437.251 800.639ZM781.788 539.167C762.732 520.102 730.001 533.658 730.001 560.621C730.001 587.584 762.732 601.13 781.788 582.065C787.474 576.375 790.669 568.66 790.669 560.616C790.669 552.572 787.474 544.857 781.788 539.167ZM552.779 439.861C533.723 420.806 500.982 434.361 500.982 461.315C500.982 488.269 533.732 501.852 552.779 482.769C558.466 477.077 561.66 469.361 561.66 461.315C561.66 453.269 558.466 445.553 552.779 439.861ZM531.325 398.556C540.629 398.56 549.816 400.632 558.221 404.622C566.627 408.612 574.041 414.419 579.927 421.625C585.813 428.83 590.024 437.254 592.257 446.286C594.489 455.319 594.686 464.734 592.834 473.852L709.14 524.287C716.477 513.953 726.771 506.082 738.667 501.711C750.564 497.34 763.505 496.672 775.788 499.797C788.07 502.922 799.119 509.693 807.48 519.218C815.841 528.744 821.122 540.577 822.628 553.161C824.134 565.746 821.794 578.491 815.918 589.72C810.041 600.95 800.902 610.136 789.703 616.071C778.505 622.007 765.771 624.412 753.179 622.972C740.587 621.531 728.727 616.312 719.158 608L485.63 785.186C482.9 787.211 479.482 788.078 476.116 787.598C472.751 787.118 469.71 785.33 467.656 782.622C465.601 779.913 464.698 776.504 465.142 773.133C465.586 769.763 467.342 766.704 470.029 764.621L703.575 587.399C697.78 575.103 696.12 561.262 698.843 547.945L582.584 497.556C576.159 506.648 567.429 513.867 557.291 518.47C547.154 523.074 535.974 524.896 524.899 523.75L446.853 767.473C482.742 787.963 489.566 837.037 460.186 866.426C452.694 873.913 443.43 879.382 433.255 882.324C423.081 885.266 412.327 885.585 401.996 883.252C391.665 880.918 382.093 876.008 374.171 868.979C366.248 861.95 360.234 853.03 356.687 843.05C353.14 833.07 352.177 822.355 353.887 811.903C355.597 801.45 359.924 791.601 366.466 783.271C373.007 774.942 381.551 768.403 391.3 764.265C401.049 760.126 411.687 758.522 422.223 759.602L500.279 515.861C464.399 495.371 457.593 446.297 486.954 416.936C492.776 411.099 499.694 406.47 507.31 403.316C514.926 400.162 523.091 398.544 531.334 398.556H531.325ZM321.76 231.13C302.704 212.074 269.964 225.574 269.964 252.584C269.964 279.593 302.704 293.093 321.76 274.074C324.582 271.256 326.82 267.908 328.347 264.224C329.874 260.54 330.66 256.59 330.66 252.602C330.66 248.614 329.874 244.665 328.347 240.98C326.82 237.296 324.582 233.949 321.76 231.13ZM300.306 189.815C314.904 189.822 329.043 194.916 340.291 204.221C351.538 213.526 359.191 226.461 361.931 240.799C364.672 255.137 362.329 269.982 355.307 282.78C348.284 295.577 337.021 305.527 323.454 310.917C324.572 312.462 325.34 314.231 325.705 316.102L330.779 342.519C331.1 344.191 331.089 345.911 330.746 347.579C330.403 349.247 329.735 350.832 328.78 352.242C327.825 353.652 326.601 354.86 325.179 355.797C323.757 356.735 322.164 357.382 320.492 357.704C318.819 358.026 317.1 358.015 315.431 357.672C313.763 357.329 312.179 356.661 310.768 355.705C309.358 354.75 308.15 353.527 307.213 352.104C306.276 350.682 305.628 349.09 305.306 347.417L300.232 321C299.868 319.125 299.925 317.193 300.399 315.343C265.927 315.547 237.501 287.361 237.501 252.584C237.502 244.338 239.128 236.173 242.285 228.556C245.442 220.939 250.069 214.018 255.901 208.189C261.733 202.36 268.657 197.738 276.276 194.585C283.895 191.432 292.061 189.811 300.306 189.815ZM682.529 111.917C686.336 111.917 690.058 113.046 693.223 115.161C696.389 117.276 698.856 120.283 700.313 123.8C701.77 127.318 702.151 131.188 701.409 134.922C700.666 138.657 698.833 142.087 696.14 144.779C693.448 147.471 690.018 149.304 686.284 150.047C682.55 150.79 678.679 150.409 675.162 148.952C671.644 147.495 668.638 145.027 666.523 141.862C664.408 138.696 663.279 134.974 663.279 131.167C663.281 126.062 665.31 121.167 668.919 117.558C672.529 113.948 677.424 111.919 682.529 111.917Z" fill="#500599"/>
</svg>
