<svg width="1000" height="1000" viewBox="0 0 1000 1000" fill="none" xmlns="http://www.w3.org/2000/svg">
<path d="M198.905 743.463C184.968 742.491 171.469 738.185 159.543 730.907C147.618 723.629 137.616 713.592 130.38 701.641C123.144 689.69 118.886 676.175 117.964 662.235C117.041 648.295 119.482 634.337 125.081 621.537C125.405 620.815 125.748 620.102 126.118 619.407C127.143 617.228 128.26 615.099 129.47 613.018C110.462 550.538 107.555 484.267 121.019 420.362C134.482 356.457 163.879 296.992 206.479 247.491C206.926 241.26 208.037 235.096 209.794 229.102C214.798 212.211 224.685 197.178 238.211 185.892C251.737 174.606 268.299 167.573 285.813 165.676C292.014 165.014 298.268 165.014 304.47 165.676C373.595 125.186 453.588 107.163 533.398 114.098C613.207 121.032 688.893 152.583 749.998 204.389C775.703 204.259 800.604 213.339 820.191 229.984C839.779 246.63 852.757 269.74 856.776 295.13C857.137 297.37 857.442 299.805 857.701 302.426C858.592 311.895 858.228 321.441 856.618 330.815C855.92 334.8 854.992 338.742 853.84 342.62C889.912 423.73 897.028 514.769 873.996 600.498C850.965 686.227 799.184 761.443 727.322 813.555C720.593 818.444 713.3 823.355 705.442 828.287C701.257 830.91 696.936 833.5 692.479 836.055C683.469 852.84 668.881 865.951 651.233 873.124C633.585 880.297 613.987 881.082 595.822 875.342C591.414 876.466 586.976 877.515 582.507 878.491C574.359 880.268 566.205 881.775 558.044 883.009C501.208 891.579 443.178 887.402 388.155 870.783C333.132 854.163 282.494 825.517 239.905 786.917L238.924 786.055C229.521 777.452 220.559 768.378 212.072 758.87C207.535 753.815 203.183 748.685 198.933 743.444" fill="#F5E6F5"/>
<path d="M721.193 266.009L720.721 265.574L721.221 266.046L721.193 266.009ZM205.063 678.454C207.929 678.42 210.76 677.825 213.397 676.704C216.908 674.867 220.971 674.382 224.816 675.341C228.661 676.3 232.021 678.637 234.258 681.907C248.259 702.344 264.571 721.097 282.869 737.796L293.906 747.426C335.177 781.774 384.373 805.27 437.028 815.78C489.683 826.29 544.13 823.482 595.424 807.611C597.897 806.852 600.516 806.697 603.06 807.161C605.604 807.625 608 808.694 610.045 810.278C620.48 818.315 635.369 811.454 637.036 799.787C637.329 797.116 638.284 794.56 639.813 792.35C641.342 790.14 643.398 788.346 645.795 787.13C721.83 748.428 779.419 681.16 805.94 600.068C832.461 518.977 825.749 430.679 787.276 354.528C781.1 342.343 781.147 342.259 787.582 332.713C791.86 326.361 793.48 315.833 792.795 308.324C792.227 302.096 790.294 296.069 787.133 290.671C783.973 285.274 779.663 280.639 774.509 277.096C769.355 273.553 763.484 271.188 757.314 270.169C751.143 269.151 744.823 269.504 738.804 271.204C728.23 274.176 725.165 270.704 720.693 265.648C611.563 162.87 446.424 149.213 321.619 231.981C319.257 233.528 316.53 234.429 313.711 234.593C310.893 234.757 308.08 234.179 305.554 232.917C301.505 230.899 296.962 230.089 292.465 230.583C287.969 231.077 283.71 232.854 280.195 235.702C276.681 238.551 274.061 242.35 272.647 246.647C271.233 250.944 271.085 255.557 272.221 259.935C273.136 262.723 273.274 265.708 272.622 268.569C271.969 271.43 270.55 274.06 268.517 276.176C225.527 320.623 196.24 376.506 184.152 437.149C172.064 497.792 177.688 560.633 200.35 618.167C201.754 621.734 201.843 625.684 200.602 629.311C199.36 632.938 196.868 636.005 193.573 637.963C178.665 646.889 179.637 669.389 195.98 676.593C198.841 677.851 201.938 678.486 205.063 678.454ZM456.915 688.315C462.471 650.602 418.434 612.222 383.508 625.713C361.591 634.176 355.999 658.352 364.147 679.417C373.989 704.917 403.184 725.324 430.239 718.389C444.841 714.667 454.721 703.157 456.906 688.315H456.915ZM407.008 341.963C425.804 333.806 440.397 309.463 438.786 289C436.008 253 390.684 271.5 380.536 309.556C374.656 331.574 384.11 351.898 406.999 341.963H407.008ZM641.193 387.241C633.536 414.093 662.369 444.056 686.36 433.435C701.684 426.648 704.017 407.565 697.471 392.778C691.98 380.37 680.276 370.222 666.674 369.296C660.99 368.793 655.312 370.32 650.646 373.604C645.98 376.889 642.627 381.72 641.184 387.241H641.193ZM640.165 670.028C669.591 689.657 709.23 668.907 709.61 633.333C709.707 625.297 707.628 617.385 703.593 610.434C699.559 603.483 693.719 597.753 686.693 593.852C684.839 592.818 682.799 592.16 680.69 591.915C678.582 591.67 676.445 591.842 674.403 592.422C672.361 593.003 670.453 593.98 668.789 595.297C667.124 596.615 665.736 598.247 664.702 600.102C663.669 601.956 663.01 603.996 662.765 606.105C662.52 608.213 662.693 610.35 663.273 612.392C663.853 614.434 664.83 616.341 666.148 618.006C667.465 619.67 669.098 621.059 670.952 622.093C682.267 628.398 677.295 645.88 664.267 645.241C662.056 645.132 659.916 644.428 658.073 643.204C656.309 642.023 654.331 641.201 652.25 640.785C650.17 640.369 648.027 640.367 645.946 640.779C643.864 641.19 641.884 642.008 640.119 643.185C638.353 644.362 636.837 645.876 635.656 647.639C634.475 649.402 633.653 651.38 633.237 653.461C632.821 655.542 632.819 657.684 633.231 659.766C633.643 661.847 634.461 663.827 635.638 665.593C636.815 667.358 638.328 668.875 640.091 670.056L640.165 670.028ZM283.869 434.361C288.034 435.402 292.442 434.746 296.123 432.538C299.804 430.329 302.457 426.748 303.499 422.583C304.54 418.418 303.884 414.01 301.675 410.329C299.466 406.648 295.886 403.995 291.721 402.954C279.784 399.99 267.158 401.877 256.609 408.2C246.06 414.524 238.445 424.77 235.433 436.695C232.42 448.62 234.255 461.252 240.536 471.828C246.816 482.403 257.03 490.059 268.943 493.12C271.013 493.669 273.172 493.802 275.294 493.511C277.416 493.221 279.46 492.512 281.306 491.427C283.153 490.341 284.766 488.901 286.052 487.188C287.338 485.475 288.272 483.524 288.8 481.449C289.327 479.373 289.438 477.213 289.125 475.094C288.813 472.975 288.083 470.939 286.979 469.103C285.875 467.268 284.418 465.67 282.692 464.401C280.966 463.133 279.006 462.219 276.924 461.713C264.712 458.602 262.526 442.268 273.174 435.907C276.394 433.995 280.24 433.439 283.869 434.361ZM214.424 709.87C203.132 711.92 191.479 710.328 181.151 705.322C170.822 700.317 162.352 692.158 156.963 682.024C151.575 671.89 149.547 660.306 151.173 648.944C152.798 637.582 157.994 627.031 166.008 618.815C121.962 494.991 150.267 356.065 239.434 259.824C235.249 220.25 272.674 189.231 310.73 200.38C445.332 115.194 620.628 130.62 738.573 238.176C752.016 236.043 765.787 237.613 778.406 242.718C791.024 247.823 802.014 256.269 810.193 267.149C818.373 278.03 823.433 290.933 824.831 304.473C826.229 318.013 823.912 331.678 818.128 344C894.054 498.407 847.582 685.481 707.943 786.898C694.877 796.391 681.178 804.982 666.943 812.611C666.6 813.019 661.619 831.991 641.073 841.565C617.73 852.444 598.276 840.731 597.693 840.639C539.52 857.337 478.037 858.848 419.114 845.028C360.19 831.208 305.792 802.517 261.11 761.694C243.883 746.004 228.255 728.644 214.452 709.87H214.424Z" fill="#500599"/>
</svg>
