<svg width="1000" height="1000" viewBox="0 0 1000 1000" fill="none" xmlns="http://www.w3.org/2000/svg">
<path d="M251.602 202.843C242.343 210.614 233.822 218.395 226.038 226.185C157.531 294.675 117.251 386.4 113.177 483.185C109.084 576.898 138.76 671.991 202.917 748.481C210.479 757.512 218.195 765.978 226.065 773.88C294.225 842.052 385.366 882.346 481.661 886.879C577.956 891.411 672.479 859.858 746.741 798.389C747.371 797.87 747.982 797.333 748.593 796.768L748.667 796.852C827.136 731.213 876.417 637.171 885.733 535.293C895.049 433.416 863.642 331.995 798.38 253.213L797.843 252.583C795.232 249.343 791.667 245.259 787.852 241.056C781.371 233.917 776.251 228.481 773.667 225.898C739.872 192.086 700.077 164.863 656.315 145.62C567.663 106.731 467.706 102.245 375.927 133.037C330.502 148.353 288.342 172.029 251.621 202.843" fill="#F5E6F5"/>
<path d="M272.722 228.083C112.759 362.25 102.593 603.704 249.426 750.565C311.791 812.925 395.172 849.785 483.268 853.937C571.364 858.09 657.842 829.236 725.796 773.018L727.574 771.602C799.291 711.492 844.32 625.455 852.835 532.268C861.351 439.08 832.661 346.307 773.028 274.194C767.528 267.028 756.361 255.185 750.38 249.194C687.746 186.723 604.022 149.921 515.645 146.015C427.268 142.109 340.623 171.381 272.722 228.083ZM343.25 300C334.676 290.907 326.269 281.981 317.954 273.074C312.871 267.37 304.871 266.917 299.435 271.667C278.824 289.805 263.417 307.954 247.796 330.463C245.941 333.214 245.211 336.571 245.758 339.844C246.304 343.117 248.084 346.056 250.732 348.055C290.833 378.361 337.037 418.907 381.759 457.685C382.167 458.037 382.908 458.75 384.185 459.963C403.278 478.111 506.463 576.185 524.139 565.518C532.833 560.296 533.713 550.296 523.982 534.102L482.408 467.018C445.593 408.454 390.741 350.417 343.25 300ZM553.546 725.926C512.389 700.13 448.417 657.055 412.528 634.259C387.139 618.139 368.491 609.685 361.843 615.472C354.222 622.102 360.741 639.546 387.343 672.518C408.426 698.685 442.945 739.444 494.889 799.204C496.124 800.636 497.657 801.782 499.381 802.559C501.106 803.336 502.979 803.727 504.871 803.704C533.889 803.252 562.693 798.634 590.398 789.991C596.75 788.021 603.068 785.827 609.352 783.407C611.815 782.646 613.995 781.167 615.614 779.161C617.232 777.154 618.215 774.71 618.438 772.142C618.661 769.574 618.113 766.997 616.863 764.742C615.614 762.487 613.721 760.655 611.426 759.481C593.908 750.583 574.139 738.889 553.546 725.981V725.926ZM688.593 698.787C684.685 695.009 680.75 691.185 676.833 687.389C662.296 673.259 649.445 659.074 639.945 648.592C633.463 641.426 628.009 635.426 623.019 631.694C621.01 629.512 618.314 628.085 615.381 627.65C612.447 627.215 609.453 627.8 606.898 629.305C594.046 636.935 600.695 646.722 608.093 656.028C624.198 676.378 638.485 698.103 650.787 720.954C653.565 726.185 657.528 733.824 659.704 739.176C660.126 740.298 660.699 741.357 661.408 742.324C663.441 745.085 666.486 746.927 669.876 747.447C673.265 747.968 676.722 747.125 679.491 745.102C683.454 742.204 697.546 731.213 700.528 728.111C702.886 725.622 704.162 722.301 704.077 718.874C703.992 715.447 702.553 712.193 700.074 709.824C696.093 706.083 692.287 702.417 688.593 698.842V698.787ZM676.732 524.713C647.398 498.787 618.148 472.935 593.472 451.676C568.333 430.139 546.824 412.278 532.408 401.852C530.172 400.091 527.419 399.115 524.574 399.073C521.728 399.032 518.948 399.929 516.663 401.625C514.377 403.32 512.713 405.721 511.927 408.456C511.142 411.191 511.278 414.109 512.315 416.759C518.111 431.222 532.824 450.148 552.472 471.759C604.509 529 689.454 603.833 733.583 665.694C734.811 667.405 736.438 668.791 738.321 669.732C740.205 670.673 742.29 671.141 744.395 671.096C746.501 671.05 748.563 670.492 750.404 669.47C752.246 668.449 753.81 666.994 754.963 665.231C763.356 652.312 770.76 638.777 777.111 624.741C778.262 622.177 778.548 619.309 777.926 616.568C777.305 613.828 775.81 611.363 773.667 609.546C743.648 584.055 710.417 554.435 676.732 524.787V524.713ZM743.815 429.954C721.982 413.694 706.778 404.639 688.519 397.546C683.111 395.454 678.445 395.417 674.63 397.685C666.343 402.685 665.472 408.407 669.898 415.796C671.639 418.676 673.213 420.009 674.972 420.824C680.046 433.389 690.232 451.046 706.843 474.75C723.195 498.111 745.732 527.342 775.565 563.361C777.134 565.245 779.205 566.646 781.538 567.4C783.871 568.155 786.37 568.232 788.745 567.623C791.12 567.014 793.274 565.744 794.957 563.961C796.639 562.177 797.781 559.953 798.25 557.546C802.963 532.981 804.222 512.028 803.398 486.5C803.368 484.804 803.002 483.13 802.321 481.576C801.641 480.022 800.66 478.618 799.435 477.444C781.887 460.511 763.312 444.675 743.815 430.028V429.954ZM553.704 238.491C548.269 228.629 540.889 216.731 531.324 202.592C530.219 200.956 528.754 199.595 527.041 198.611C525.329 197.627 523.415 197.048 521.445 196.917C501.734 195.599 481.944 196.135 462.333 198.518V198.574C451.306 199.917 446.787 214.315 455.898 221.518C481.13 241.472 521.639 271.574 548.695 280.296C550.896 280.99 553.243 281.083 555.493 280.567C557.742 280.05 559.813 278.942 561.491 277.358C563.17 275.773 564.394 273.769 565.039 271.552C565.683 269.336 565.724 266.987 565.158 264.75C563.445 258.065 559.732 249.398 553.704 238.491ZM240.222 548.722C233.556 540.129 227.259 531.972 221.25 524.092C219.526 521.864 217.123 520.257 214.404 519.517C211.685 518.776 208.799 518.941 206.182 519.988C203.566 521.035 201.362 522.905 199.904 525.316C198.446 527.728 197.813 530.549 198.102 533.352C201.734 566.254 210.704 598.344 224.658 628.361C225.688 630.956 227.538 633.144 229.926 634.592C252.63 648.407 268.546 657.741 279.056 663.481C296.796 673.185 306.972 672.991 311.463 665.555C316.778 656.833 306.361 637.194 289.472 613.704C275.083 593.667 256.658 569.963 240.222 548.722ZM272.343 272.324C279.324 265.33 286.374 258.849 293.491 252.879C355.167 201.117 434.08 174.487 514.509 178.296C603.398 182.352 687.704 222.565 747.435 293.926C747.651 294.185 747.874 294.435 748.102 294.676C802.435 360.338 828.518 444.864 820.633 529.726C812.748 614.588 771.538 692.861 706.037 747.389C705.778 747.602 705.528 747.833 705.287 748.065C643.72 799.14 565.297 825.382 485.389 821.648C313.417 813.824 177.982 671.954 177.982 499.963C177.94 457.674 186.254 415.793 202.448 376.728C218.641 337.662 242.395 302.181 272.343 272.324Z" fill="#500599"/>
</svg>
