<svg width="1000" height="1000" viewBox="0 0 1000 1000" fill="none" xmlns="http://www.w3.org/2000/svg">
<path fill-rule="evenodd" clip-rule="evenodd" d="M740.571 173.88L746.127 168.324H746.053L740.497 173.88H740.571ZM718.201 196.297H718.275L723.831 190.741L723.784 190.695L718.201 196.297ZM732.155 137.417C744.014 137.442 755.379 142.17 763.757 150.565L763.96 150.769C772.299 159.188 776.961 170.568 776.926 182.418C776.891 194.267 772.162 205.62 763.774 213.99C755.386 222.359 744.023 227.064 732.173 227.073C720.324 227.082 708.954 222.394 700.553 214.037L700.349 213.843C694.106 207.563 689.863 199.574 688.155 190.884C686.447 182.195 687.352 173.195 690.754 165.019C694.157 156.843 699.905 149.858 707.273 144.946C714.641 140.033 723.299 137.414 732.155 137.417ZM322.479 749.454L316.923 743.898V743.973C318.72 745.769 320.553 747.676 322.405 749.528L322.479 749.454ZM783.071 428.287C814.277 448.741 840.809 475.556 860.931 506.976C881.053 538.396 894.31 573.712 899.835 610.612C905.359 647.512 903.026 685.162 892.989 721.098C882.952 757.034 865.436 790.443 841.59 819.139C840.788 820.264 839.916 821.337 838.979 822.352C837.378 824.095 835.644 825.711 833.794 827.185C825.708 833.618 815.653 837.068 805.321 836.954C803.471 843.375 800.814 849.535 797.414 855.287C790.062 867.547 785.905 870.047 776.784 875.537L775.442 876.343L775.386 876.25C755.38 888.403 733.846 897.838 711.349 904.306C711.908 907.127 712.19 909.995 712.192 912.871C712.163 924.716 707.446 936.068 699.071 944.445L698.868 944.648C694.723 948.799 689.799 952.09 684.379 954.334C678.959 956.577 673.149 957.728 667.283 957.722C661.417 957.715 655.61 956.55 650.195 954.294C644.78 952.038 639.864 948.735 635.729 944.574L635.525 944.38C627.474 936.304 622.802 925.464 622.46 914.065L618.673 913.815C563.812 909.726 511.617 888.527 469.442 853.204L469.275 853.065C422.759 814.17 391.045 760.453 379.46 700.935L372.395 707C367.062 711.568 360.875 715.03 354.192 717.185C353.266 717.482 352.34 717.75 351.414 718C355.507 720.126 359.254 722.861 362.525 726.111L362.729 726.315C366.883 730.458 370.177 735.382 372.423 740.802C374.668 746.222 375.82 752.033 375.814 757.9C375.807 763.767 374.641 769.575 372.382 774.99C370.124 780.405 366.818 785.32 362.655 789.454L362.451 789.658C354.031 797.996 342.65 802.657 330.8 802.621C318.95 802.584 307.598 797.853 299.229 789.464C290.86 781.074 286.157 769.71 286.15 757.86C286.143 746.01 290.833 734.64 299.192 726.241L299.386 726.037C304.258 721.194 310.166 717.518 316.664 715.287C309.35 712.063 302.854 707.238 297.655 701.167C295.06 698.136 292.82 694.818 290.979 691.278C278.877 694.803 265.915 693.897 254.422 688.723C242.929 683.548 233.658 674.444 228.275 663.047C226.742 659.781 225.544 656.369 224.701 652.861L224.47 651.861C220.11 651.96 215.756 651.516 211.507 650.537C199.447 647.76 188.74 640.846 181.247 630.997C173.754 621.147 169.947 608.984 170.488 596.621C163.42 594.858 156.788 591.669 150.998 587.248C145.208 582.828 140.384 577.271 136.821 570.917C133.282 564.638 131.083 557.693 130.364 550.522C129.645 543.35 130.422 536.107 132.645 529.25C128.939 527.195 125.489 524.709 122.368 521.843C114.7 514.85 109.264 505.752 106.739 495.686C104.215 485.621 104.713 475.034 108.173 465.25C109.521 461.449 111.311 457.819 113.507 454.436C108.259 449.436 104.097 443.41 101.278 436.733C98.4596 430.055 97.0449 422.87 97.1221 415.622C97.1994 408.375 98.7671 401.221 101.728 394.605C104.688 387.989 108.978 382.054 114.331 377.167C112.217 373.635 110.514 369.873 109.257 365.954C106.03 355.991 105.839 345.294 108.71 335.223C111.592 325.202 117.348 316.246 125.266 309.463C128.288 306.867 131.596 304.624 135.127 302.778C133.1 295.904 132.495 288.689 133.348 281.573C134.201 274.457 136.494 267.59 140.088 261.389C143.682 255.188 148.5 249.785 154.251 245.507C160.001 241.23 166.562 238.168 173.534 236.51L174.534 236.278C174.436 231.919 174.881 227.564 175.858 223.315C178.632 211.255 185.544 200.548 195.392 193.054C205.24 185.561 217.403 181.754 229.766 182.297C230.016 181.315 230.284 180.343 230.581 179.38C228.123 179.911 225.622 180.221 223.108 180.306H222.081V180.417C220.438 180.415 218.798 180.294 217.173 180.056C209.123 179.166 201.511 175.931 195.284 170.753C189.056 165.574 184.488 158.68 182.145 150.926C175.664 148.97 169.765 145.446 164.97 140.667L164.84 140.537C159.787 135.472 156.131 129.185 154.23 122.287C152.329 115.39 152.246 108.117 153.991 101.178C155.735 94.2395 159.247 87.8708 164.185 82.6925C169.122 77.5142 175.316 73.703 182.164 71.63C184.113 65.1404 187.641 59.2357 192.433 54.4448L192.488 54.38L192.433 54.3059C197.499 49.238 203.793 45.5696 210.7 43.6582C217.607 41.7469 224.891 41.6579 231.842 43.4C238.793 45.142 245.175 48.6556 250.364 53.5982C255.553 58.5408 259.373 64.7437 261.451 71.6022C267.991 73.5379 273.945 77.0735 278.775 81.8892C280.04 83.1582 281.201 84.5268 282.247 85.9818C287.545 92.8878 290.54 101.282 290.812 109.982V111H290.923C290.922 112.649 290.799 114.296 290.553 115.926C289.576 124.822 285.742 133.161 279.627 139.695C278.868 140.5 278.062 141.297 277.238 142.037C279.839 141.838 282.452 141.838 285.053 142.037C289.161 142.367 293.216 143.175 297.136 144.445C299.191 140.738 301.677 137.288 304.544 134.167C311.538 126.51 320.631 121.081 330.689 118.555C340.747 116.029 351.327 116.519 361.108 119.963C364.908 121.311 368.538 123.098 371.923 125.287C374.755 122.339 377.915 119.723 381.34 117.491C391.833 110.64 404.421 107.746 416.853 109.327C429.284 110.908 440.748 116.861 449.192 126.121C452.722 123.984 456.488 122.262 460.414 120.991C470.373 117.762 481.068 117.572 491.136 120.445C501.178 123.328 510.151 129.098 516.942 137.037C519.539 140.067 521.779 143.385 523.618 146.926C535.719 143.401 548.681 144.307 560.174 149.482C571.668 154.656 580.939 163.76 586.321 175.158C587.852 178.423 589.046 181.836 589.886 185.343L590.118 186.352C594.477 186.254 598.831 186.699 603.081 187.676C615.141 190.45 625.848 197.362 633.341 207.21C640.835 217.058 644.641 229.221 644.099 241.584C648.533 242.7 652.808 244.374 656.821 246.565C665.611 251.354 672.874 258.523 677.775 267.25C681.308 273.532 683.503 280.476 684.221 287.647C684.94 294.818 684.167 302.06 681.951 308.917C685.654 310.977 689.104 313.463 692.229 316.324C699.929 323.342 705.381 332.482 707.896 342.593C708.395 344.649 708.776 346.733 709.034 348.834C711.97 346.342 715.283 344.332 718.849 342.88C722.868 333.047 730.599 326.158 739.747 322.278C744.635 320.129 749.917 319.019 755.257 319.019C760.596 319.019 765.878 320.129 770.766 322.278C779.905 326.158 787.646 333.037 791.664 342.88C801.497 346.898 808.386 354.639 812.257 363.778C814.403 368.669 815.511 373.951 815.511 379.292C815.511 384.633 814.403 389.915 812.257 394.806C808.377 403.945 801.488 411.676 791.655 415.695C789.714 420.451 786.789 424.742 783.071 428.287Z" fill="#F5E6F5"/>
<path fill-rule="evenodd" clip-rule="evenodd" d="M587.256 423.936C537.954 435.124 493.703 462.224 461.33 501.056C378.756 599.704 392.663 746.149 490.58 827.954C527.542 858.838 573.237 877.39 621.267 881.011C669.297 884.632 717.257 873.142 758.432 848.149C763.784 844.908 765.839 844.001 769.201 838.426C774.413 829.741 778.238 815.825 770.96 809.982C767.182 806.954 763.099 808.269 758.543 808.667C699.358 813.862 640.812 791.825 599.571 750.51C564.373 715.223 543.526 668.127 541.068 618.348C538.61 568.569 554.716 519.648 586.265 481.065C596.073 468.998 607.26 458.122 619.599 448.658C621.728 447.047 622.83 446.26 623.793 443.732C624.317 442.384 624.508 440.929 624.349 439.491C621.895 417.186 603.515 422.158 587.219 423.908M511.821 782.093C487.164 757.487 468.775 727.32 458.2 694.13C457.68 692.513 457.483 690.809 457.623 689.116C457.762 687.423 458.235 685.774 459.014 684.264C459.792 682.754 460.862 681.413 462.16 680.317C463.458 679.222 464.961 678.393 466.58 677.88C468.198 677.36 469.904 677.164 471.598 677.305C473.292 677.446 474.941 677.92 476.451 678.7C477.961 679.481 479.302 680.552 480.397 681.853C481.492 683.153 482.319 684.657 482.83 686.278C497.894 733.397 530.535 772.899 573.969 796.575C586.321 803.306 580.358 822.288 566.423 820.815C564.736 820.633 563.102 820.117 561.617 819.297C543.32 809.347 526.55 796.818 511.821 782.093ZM732.154 170.371C734.509 170.371 736.811 171.069 738.77 172.378C740.728 173.686 742.254 175.546 743.155 177.722C744.056 179.897 744.292 182.292 743.833 184.601C743.373 186.911 742.239 189.033 740.574 190.698C738.909 192.363 736.787 193.497 734.477 193.957C732.167 194.416 729.773 194.181 727.597 193.279C725.422 192.378 723.562 190.852 722.254 188.894C720.945 186.936 720.247 184.633 720.247 182.278C720.247 179.12 721.501 176.092 723.734 173.858C725.967 171.625 728.996 170.371 732.154 170.371ZM343.923 645.473L347.626 642.306C351.849 487.825 476.376 363.389 630.886 359.371L625.913 357.612C621.585 356.073 617.633 353.633 614.32 350.451C611.007 347.27 608.408 343.42 606.695 339.158C604.983 334.896 604.196 330.318 604.387 325.729C604.577 321.139 605.742 316.643 607.802 312.538L612.191 303.88L602.673 303.149C598.086 302.796 593.627 301.471 589.592 299.262C585.557 297.053 582.039 294.01 579.271 290.335C576.503 286.661 574.549 282.439 573.539 277.951C572.529 273.463 572.486 268.812 573.413 264.306L575.413 254.778C571.71 255.463 565.228 256.871 561.645 257.056C557.403 257.272 553.16 256.65 549.159 255.226C545.157 253.802 541.475 251.604 538.323 248.758C535.171 245.911 532.611 242.471 530.788 238.635C528.965 234.798 527.916 230.641 527.7 226.399L527.173 216.769C523.886 218.343 517.543 221.63 514.469 222.63C506.305 225.272 497.426 224.569 489.78 220.674C482.134 216.779 476.344 210.01 473.682 201.852L470.71 192.76L463.367 199.047C459.866 202.039 455.767 204.25 451.343 205.531C446.92 206.811 442.273 207.133 437.715 206.474C433.158 205.815 428.793 204.19 424.913 201.708C421.034 199.227 417.728 195.945 415.219 192.084L409.987 184.065L404.534 192.028H404.487C401.884 195.811 398.506 198.998 394.578 201.377C390.65 203.755 386.261 205.272 381.702 205.826C377.143 206.38 372.519 205.959 368.135 204.591C363.751 203.223 359.709 200.938 356.275 197.889L349.062 191.408L345.83 200.584C344.293 204.913 341.853 208.866 338.672 212.18C335.491 215.494 331.641 218.094 327.379 219.808C323.117 221.521 318.539 222.309 313.949 222.119C309.359 221.929 304.862 220.765 300.756 218.704L292.108 214.315L291.367 223.834C291.015 228.421 289.69 232.88 287.48 236.915C285.271 240.949 282.228 244.468 278.554 247.236C274.879 250.003 270.658 251.957 266.17 252.967C261.682 253.977 257.03 254.02 252.525 253.093L242.987 251.084C243.682 254.788 245.089 261.269 245.265 264.862C245.482 269.103 244.862 273.346 243.439 277.347C242.016 281.349 239.819 285.031 236.973 288.183C234.127 291.335 230.688 293.895 226.852 295.718C223.016 297.541 218.859 298.59 214.617 298.806L204.997 299.325C206.571 302.612 209.849 308.963 210.849 312.038C213.491 320.202 212.787 329.081 208.892 336.727C204.997 344.373 198.228 350.162 190.071 352.825L180.978 355.797L187.265 363.139C190.261 366.638 192.476 370.736 193.76 375.159C195.044 379.583 195.368 384.229 194.71 388.788C194.053 393.347 192.429 397.713 189.947 401.593C187.465 405.473 184.183 408.779 180.321 411.288L172.219 416.399L180.182 421.852V421.908C183.972 424.505 187.165 427.879 189.549 431.807C191.933 435.734 193.453 440.124 194.008 444.685C194.562 449.246 194.139 453.872 192.765 458.257C191.392 462.641 189.1 466.682 186.043 470.112L179.562 477.334L188.728 480.556C193.056 482.094 197.008 484.533 200.321 487.714C203.634 490.894 206.234 494.742 207.947 499.004C209.661 503.265 210.449 507.842 210.259 512.43C210.07 517.019 208.907 521.515 206.849 525.621L202.46 534.278L211.978 535.01C216.57 535.361 221.034 536.687 225.072 538.899C229.111 541.112 232.632 544.159 235.401 547.839C238.169 551.518 240.122 555.746 241.128 560.24C242.135 564.733 242.172 569.39 241.238 573.899L239.237 583.426C242.941 582.741 249.423 581.334 253.015 581.158C257.257 580.941 261.499 581.561 265.501 582.984C269.502 584.407 273.184 586.604 276.336 589.45C279.488 592.296 282.049 595.736 283.872 599.571C285.695 603.407 286.744 607.565 286.96 611.806L287.478 621.427C290.775 619.852 297.117 616.575 300.191 615.575C308.355 612.932 317.234 613.636 324.88 617.531C332.527 621.426 338.316 628.195 340.978 636.352L343.923 645.473ZM372.284 663.76L350.988 682.001C348.478 684.141 345.48 685.63 342.258 686.337C339.037 687.044 335.69 686.948 332.515 686.056C329.34 685.163 326.433 683.503 324.051 681.221C321.669 678.94 319.886 676.107 318.858 672.973L310.182 646.38L284.812 658.528C281.804 659.965 278.486 660.63 275.157 660.464C271.828 660.297 268.594 659.303 265.745 657.573C262.896 655.843 260.523 653.43 258.841 650.553C257.158 647.675 256.219 644.424 256.108 641.093L254.626 613.482L227.126 618.621C223.819 619.252 220.406 619.04 217.202 618.005C213.998 616.969 211.107 615.143 208.795 612.696C206.482 610.248 204.824 607.257 203.973 603.999C203.121 600.742 203.104 597.322 203.923 594.056L209.552 567.343L181.58 565.186C167.691 564.121 158.136 549.112 165.784 535.084L177.95 511.112L151.441 501.769C148.307 500.662 145.498 498.792 143.267 496.328C141.036 493.865 139.453 490.885 138.661 487.656C137.87 484.428 137.894 481.054 138.731 477.838C139.569 474.621 141.194 471.664 143.46 469.232L161.978 448.612L138.83 432.723C136.123 430.856 133.916 428.351 132.405 425.43C130.893 422.509 130.123 419.262 130.163 415.973C130.202 412.685 131.049 409.456 132.63 406.572C134.211 403.688 136.477 401.238 139.228 399.436L162.719 384.121L144.469 362.825C142.331 360.314 140.844 357.316 140.138 354.095C139.433 350.874 139.531 347.529 140.424 344.355C141.317 341.181 142.978 338.275 145.259 335.895C147.54 333.514 150.373 331.732 153.506 330.704L180.099 322.001L167.876 296.575C166.745 294.195 166.094 291.615 165.96 288.983C165.826 286.351 166.212 283.719 167.096 281.236C167.98 278.754 169.344 276.47 171.112 274.515C172.879 272.56 175.014 270.972 177.395 269.843C179.867 268.655 182.561 267.996 185.302 267.908L212.96 266.408L207.784 238.889C207.161 235.586 207.379 232.178 208.419 228.981C209.458 225.784 211.285 222.899 213.732 220.594C216.179 218.288 219.167 216.635 222.42 215.787C225.673 214.939 229.088 214.923 232.349 215.741L259.062 221.297L261.219 193.325C262.284 179.436 277.293 169.88 291.321 177.528L315.321 189.695L324.654 163.186C325.761 160.052 327.631 157.243 330.095 155.012C332.558 152.781 335.539 151.198 338.767 150.406C341.995 149.614 345.369 149.638 348.586 150.476C351.802 151.313 354.759 152.938 357.191 155.204L377.821 173.723L393.7 150.575C395.567 147.858 398.074 145.643 401 144.126C403.926 142.609 407.18 141.837 410.476 141.877C413.771 141.917 417.006 142.769 419.894 144.357C422.782 145.945 425.234 148.221 427.034 150.982L442.358 174.473L463.654 156.223C466.164 154.085 469.162 152.598 472.383 151.892C475.604 151.187 478.95 151.285 482.124 152.178C485.298 153.071 488.203 154.731 490.584 157.013C492.965 159.294 494.747 162.127 495.775 165.26L504.478 191.852L529.821 179.63C532.828 178.199 536.144 177.537 539.47 177.706C542.797 177.874 546.029 178.868 548.876 180.596C551.723 182.324 554.095 184.734 555.78 187.607C557.464 190.48 558.407 193.728 558.525 197.056L560.025 224.676L587.525 219.538C590.832 218.906 594.245 219.118 597.449 220.154C600.653 221.189 603.544 223.015 605.856 225.463C608.169 227.911 609.827 230.901 610.678 234.159C611.53 237.417 611.547 240.836 610.728 244.102L605.108 270.815L633.08 272.973C646.969 274.047 656.525 289.047 648.876 303.075L636.71 327.075L663.219 336.408C666.351 337.517 669.159 339.388 671.388 341.852C673.618 344.315 675.2 347.295 675.991 350.522C676.783 353.75 676.76 357.123 675.923 360.339C675.087 363.555 673.464 366.512 671.201 368.945L650.608 391.964C500.654 384.954 376.108 506.871 380.015 657.139L372.284 663.76ZM766.164 390.195C763.443 392.901 761.859 396.545 761.738 400.38C761.478 408.649 749.025 408.714 748.775 400.38C748.637 396.556 747.056 392.927 744.35 390.221C741.645 387.515 738.015 385.935 734.191 385.797C725.923 385.538 725.858 373.084 734.191 372.834C738.014 372.694 741.643 371.112 744.348 368.407C747.053 365.702 748.634 362.074 748.775 358.251C749.034 349.982 761.488 349.917 761.738 358.251C761.875 362.074 763.456 365.704 766.162 368.41C768.867 371.115 772.497 372.696 776.321 372.834C784.589 373.102 784.654 385.547 776.321 385.797C772.5 385.922 768.869 387.494 766.164 390.195ZM667.302 900.926C669.657 900.926 671.96 901.625 673.918 902.933C675.876 904.242 677.402 906.101 678.303 908.277C679.205 910.453 679.44 912.847 678.981 915.157C678.522 917.467 677.387 919.588 675.722 921.254C674.057 922.919 671.935 924.053 669.625 924.513C667.316 924.972 664.921 924.736 662.746 923.835C660.57 922.934 658.71 921.407 657.402 919.449C656.093 917.491 655.395 915.189 655.395 912.834C655.395 909.676 656.649 906.647 658.883 904.414C661.116 902.181 664.144 900.926 667.302 900.926ZM330.895 745.936C333.25 745.936 335.553 746.634 337.511 747.943C339.47 749.252 340.996 751.112 341.897 753.289C342.798 755.465 343.033 757.859 342.573 760.17C342.113 762.48 340.978 764.601 339.311 766.266C337.645 767.931 335.523 769.064 333.212 769.523C330.902 769.981 328.507 769.744 326.332 768.841C324.156 767.939 322.297 766.411 320.99 764.452C319.682 762.492 318.986 760.189 318.988 757.834C318.988 756.271 319.296 754.723 319.894 753.279C320.493 751.834 321.37 750.522 322.476 749.417C323.581 748.312 324.894 747.436 326.339 746.839C327.783 746.241 329.332 745.935 330.895 745.936ZM236.237 125.695C232.648 129.261 230.555 134.064 230.386 139.121C230.312 141.347 229.377 143.458 227.776 145.007C226.175 146.556 224.035 147.422 221.807 147.422C219.579 147.422 217.439 146.556 215.838 145.007C214.237 143.458 213.301 141.347 213.228 139.121C213.045 134.068 210.956 129.272 207.382 125.696C203.807 122.12 199.012 120.029 193.96 119.843C191.686 119.843 189.505 118.94 187.897 117.332C186.289 115.724 185.386 113.543 185.386 111.269C185.386 108.995 186.289 106.814 187.897 105.206C189.505 103.598 191.686 102.695 193.96 102.695C199.012 102.513 203.808 100.425 207.383 96.85C210.958 93.2751 213.047 88.4789 213.228 83.4265C213.301 81.2 214.237 79.0892 215.838 77.5401C217.439 75.9911 219.579 75.125 221.807 75.125C224.035 75.125 226.175 75.9911 227.776 77.5401C229.377 79.0892 230.312 81.2 230.386 83.4265C230.567 88.4789 232.656 93.2751 236.231 96.85C239.806 100.425 244.602 102.513 249.654 102.695C251.928 102.695 254.109 103.598 255.717 105.206C257.325 106.814 258.228 108.995 258.228 111.269C258.228 113.543 257.325 115.724 255.717 117.332C254.109 118.94 251.928 119.843 249.654 119.843C244.601 120.019 239.804 122.111 236.237 125.695ZM802.154 486.019C764.001 447.596 713.497 423.892 659.562 419.093C651.092 418.71 647.75 422.436 649.534 430.269C653.747 446.389 648.682 459.899 635.645 469.936C552.312 533.954 543.784 656.88 618.395 731.639C656.265 769.602 708.312 787.565 761.413 781.639C766.067 781.125 770.776 781.535 775.27 782.848C779.764 784.161 783.954 786.349 787.599 789.288C792.608 793.315 793.376 795.177 796.228 799.389C797.298 800.803 798.668 801.962 800.239 802.782C801.811 803.603 803.545 804.064 805.317 804.133C807.088 804.202 808.853 803.877 810.484 803.182C812.114 802.487 813.57 801.438 814.747 800.112C892.247 709.01 888.043 572.093 802.154 486.019ZM779.228 508.825C752.573 481.935 718.736 463.29 681.765 455.121C678.062 472.575 667.876 486.408 653.876 496.676C646.867 501.825 637.691 511.241 631.812 518.436C614.821 539.216 604.069 564.387 600.804 591.029C597.54 617.672 601.895 644.695 613.365 668.962C624.836 693.23 642.951 713.749 665.61 728.138C688.269 742.527 714.544 750.198 741.386 750.26L749.719 750.176L753.423 749.797C762.034 749.047 749.58 750.288 756.108 749.649L759.043 749.297C774.908 747.892 790.765 752.07 803.876 761.112C829.547 722.693 841.12 676.569 836.626 630.582C832.133 584.595 811.851 541.584 779.228 508.862V508.825ZM750.052 541.723C746.46 528.88 763.312 520.213 771.617 530.843C803.273 571.438 818.079 622.666 812.96 673.889C812.715 676.311 811.759 678.605 810.213 680.484C808.666 682.363 806.598 683.741 804.269 684.446C801.94 685.151 799.454 685.151 797.125 684.446C794.796 683.74 792.728 682.361 791.182 680.482C790.155 679.233 789.386 677.793 788.919 676.245C788.451 674.697 788.295 673.072 788.46 671.464C792.96 626.548 779.977 581.627 752.21 546.038C751.211 544.768 750.472 543.314 750.034 541.76L750.052 541.723ZM784.126 700.63C792.784 690.214 809.58 699.704 805.173 712.473L801.913 722.343C800.441 726.38 798.099 733.528 795.238 736.343C785.719 745.686 770.099 735.019 775.339 722.714L779.562 711.76C780.71 708.399 781.923 703.288 784.126 700.63ZM240.413 423.26C235.145 435.501 216.599 431.593 216.793 418.223C217.549 366.835 238.115 317.723 274.2 281.13C283.663 271.538 299.395 282.056 294.386 294.389C293.774 295.884 292.874 297.243 291.737 298.389C260.125 330.463 242.094 373.49 241.395 418.519C241.378 420.148 241.045 421.758 240.413 423.26ZM313.441 278.454C300.293 281.112 293.117 263.639 304.117 256.232C310.057 252.198 316.211 248.489 322.552 245.121C325.44 243.599 328.813 243.28 331.935 244.234C335.057 245.188 337.675 247.337 339.219 250.214C340.75 253.102 341.071 256.479 340.113 259.605C339.154 262.73 336.995 265.347 334.108 266.88L317.904 276.667C316.551 277.554 315.033 278.162 313.441 278.454ZM554.506 469.139C517.395 486.564 486.544 514.983 466.139 550.542C445.733 586.1 436.761 627.076 440.441 667.908C449.265 764.649 526.552 841.389 623.497 848.695C650.451 850.744 677.54 847.304 703.126 838.584C580.849 818.112 495.756 705.047 509.987 581.482C514.675 540.767 530.032 502.013 554.506 469.139Z" fill="#500599"/>
</svg>
