<svg width="1000" height="1000" viewBox="0 0 1000 1000" fill="none" xmlns="http://www.w3.org/2000/svg">
<path d="M748.399 202.843C757.658 210.614 766.179 218.395 773.963 226.185C842.472 294.673 882.751 386.399 886.815 483.185C890.917 576.898 861.241 671.991 797.093 748.482C789.519 757.519 781.784 765.985 773.889 773.88C705.729 842.053 614.589 882.346 518.294 886.879C421.998 891.411 327.476 859.858 253.213 798.389C252.584 797.87 251.982 797.333 251.362 796.769L251.297 796.852C172.828 731.213 123.547 637.171 114.231 535.293C104.915 433.416 136.322 331.995 201.584 253.213L202.121 252.583C204.732 249.343 208.297 245.259 212.112 241.056C218.593 233.926 223.713 228.482 226.297 225.898C260.091 192.084 299.891 164.863 343.658 145.63C432.315 106.721 532.287 102.232 624.075 133.037C669.499 148.353 711.659 172.029 748.38 202.843" fill="#F5E6F5"/>
<path d="M727.277 228.093C887.24 362.25 897.416 603.704 750.582 750.565C688.216 812.926 604.834 849.786 516.736 853.938C428.638 858.091 342.158 829.237 274.203 773.019L272.425 771.602C200.71 711.494 155.681 625.46 147.163 532.274C138.646 439.089 167.332 346.317 226.962 274.204C232.471 267.028 243.629 255.185 249.619 249.204C312.253 186.732 395.979 149.93 484.356 146.026C572.733 142.122 659.378 171.396 727.277 228.102M656.74 300C665.323 290.908 673.74 281.982 682.036 273.074C687.129 267.38 695.129 266.917 700.554 271.667C721.166 289.806 736.573 307.954 752.193 330.463C754.048 333.215 754.776 336.574 754.228 339.846C753.68 343.119 751.898 346.058 749.249 348.056C709.166 378.361 662.962 418.908 618.24 457.685C617.832 458.037 617.092 458.75 615.814 459.963C596.721 478.111 493.536 576.185 475.86 565.519C467.175 560.297 466.286 550.297 476.017 534.102L517.638 466.982C554.406 408.454 609.258 350.408 656.74 300ZM446.453 725.926C487.61 700.13 551.573 657.056 587.471 634.26C612.86 618.139 631.508 609.685 638.156 615.472C645.786 622.102 639.258 639.547 612.656 672.519C591.573 698.685 557.101 739.445 505.11 799.204C503.879 800.641 502.346 801.789 500.621 802.567C498.896 803.344 497.021 803.733 495.129 803.704C466.11 803.252 437.306 798.634 409.601 789.991C403.249 788.022 396.931 785.834 390.647 783.426C388.184 782.665 386.004 781.186 384.385 779.18C382.767 777.173 381.784 774.729 381.561 772.161C381.338 769.593 381.887 767.016 383.136 764.761C384.385 762.506 386.278 760.674 388.573 759.5C406.092 750.584 425.869 738.889 446.453 725.982V725.926ZM311.406 698.843C315.314 695.065 319.249 691.241 323.156 687.445C337.703 673.306 350.554 659.13 360.054 648.648C366.536 641.482 371.99 635.482 376.98 631.75C378.988 629.57 381.682 628.144 384.614 627.71C387.546 627.275 390.538 627.858 393.092 629.361C405.953 636.991 399.304 646.778 391.906 656.084C375.801 676.433 361.514 698.159 349.212 721.01C346.434 726.241 342.48 733.88 340.295 739.222C339.596 741.098 338.473 742.786 337.012 744.154C335.552 745.522 333.795 746.534 331.878 747.11C329.962 747.686 327.938 747.81 325.965 747.473C323.993 747.136 322.125 746.346 320.508 745.167C316.545 742.269 302.453 731.278 299.471 728.176C297.113 725.688 295.837 722.366 295.922 718.939C296.007 715.512 297.446 712.258 299.925 709.889C303.916 706.084 307.712 702.426 311.406 698.843ZM323.267 524.769C352.601 498.843 381.851 472.982 406.527 451.722C431.666 430.139 453.175 412.278 467.592 401.852C469.827 400.091 472.58 399.115 475.426 399.074C478.271 399.033 481.051 399.929 483.336 401.625C485.622 403.321 487.286 405.721 488.072 408.456C488.857 411.192 488.721 414.109 487.684 416.759C481.888 431.222 467.175 450.148 447.527 471.759C395.527 528.954 310.582 603.787 266.434 665.648C265.206 667.357 263.58 668.741 261.697 669.681C259.814 670.621 257.731 671.089 255.627 671.043C253.523 670.997 251.462 670.44 249.621 669.42C247.781 668.399 246.217 666.946 245.064 665.185C236.667 652.268 229.263 638.732 222.916 624.695C221.765 622.131 221.479 619.263 222.1 616.522C222.722 613.782 224.217 611.317 226.36 609.5C256.36 584.056 289.582 554.435 323.267 524.787V524.769ZM256.184 430.028C278.017 413.769 293.221 404.713 311.49 397.621C316.888 395.537 321.564 395.491 325.323 397.759C333.61 402.759 334.471 408.482 330.054 415.871C328.323 418.75 326.74 420.084 324.98 420.898C319.906 433.463 309.712 451.121 293.119 474.824C276.758 498.185 254.23 527.417 224.388 563.435C222.819 565.322 220.748 566.726 218.413 567.482C216.079 568.238 213.578 568.316 211.201 567.707C208.824 567.098 206.669 565.827 204.986 564.041C203.303 562.256 202.161 560.029 201.693 557.621C196.98 533.065 195.721 512.102 196.545 486.574C196.576 484.878 196.942 483.205 197.622 481.651C198.302 480.096 199.283 478.692 200.508 477.519C218.07 460.556 236.664 444.695 256.184 430.028ZM446.295 238.5C451.74 228.63 459.119 216.732 468.684 202.593C469.788 200.959 471.25 199.599 472.959 198.615C474.667 197.632 476.578 197.051 478.545 196.917C498.259 195.599 518.052 196.135 537.666 198.519V198.574C548.693 199.917 553.212 214.315 544.147 221.519C518.916 241.472 478.406 271.574 451.351 280.297C449.149 280.99 446.802 281.084 444.553 280.567C442.303 280.051 440.232 278.943 438.554 277.358C436.876 275.773 435.651 273.769 435.007 271.553C434.362 269.336 434.321 266.988 434.888 264.75C436.554 258.065 440.267 249.398 446.295 238.5ZM759.814 548.685C766.471 540.093 772.777 531.945 778.777 524.047C780.494 521.795 782.901 520.168 785.63 519.414C788.359 518.659 791.26 518.819 793.89 519.869C796.519 520.919 798.733 522.801 800.192 525.227C801.652 527.653 802.276 530.491 801.971 533.306C798.339 566.208 789.37 598.298 775.416 628.315C774.382 630.909 772.533 633.096 770.147 634.547C747.443 648.361 731.527 657.695 721.017 663.435C703.277 673.139 693.101 672.945 688.61 665.51C683.305 656.787 693.712 637.148 710.601 613.658C724.906 593.667 743.351 569.963 759.786 548.722L759.814 548.685ZM727.693 272.297C720.706 265.303 713.653 258.821 706.536 252.852C644.861 201.086 565.947 174.456 485.517 178.269C396.629 182.324 312.323 222.537 252.601 293.898C252.379 294.158 252.156 294.408 251.925 294.648C197.591 360.311 171.508 444.837 179.394 529.699C187.279 614.56 228.488 692.834 293.99 747.361C294.249 747.574 294.499 747.806 294.749 748.037C356.313 799.112 434.732 825.354 514.638 821.621C686.619 813.797 822.045 671.926 822.045 499.935C822.078 457.652 813.758 415.778 797.561 376.719C781.365 337.66 757.612 302.186 727.666 272.334L727.693 272.297Z" fill="#500599"/>
</svg>
