<svg width="1000" height="1000" viewBox="0 0 1000 1000" fill="none" xmlns="http://www.w3.org/2000/svg">
<path fill-rule="evenodd" clip-rule="evenodd" d="M862.039 323.639L867.594 318.083H867.511L862.002 323.639H862.039ZM739.446 870.426L745.001 875.982V875.908L739.446 870.352V870.426ZM495.594 192.796C494.481 191.024 493.509 189.166 492.687 187.241C490.717 182.748 489.7 177.896 489.7 172.991C489.7 168.086 490.717 163.233 492.687 158.741C493.277 157.357 493.961 156.014 494.733 154.722C497.429 149.885 501.238 145.759 505.844 142.685C509.794 136.747 515.431 132.126 522.029 129.417C526.524 127.457 531.375 126.445 536.279 126.445C541.183 126.445 546.034 127.457 550.529 129.417C551.917 130.016 553.265 130.703 554.566 131.472C559.399 134.175 563.524 137.982 566.603 142.583C572.54 146.53 577.158 152.164 579.863 158.759C581.829 163.254 582.844 168.108 582.844 173.014C582.844 177.92 581.829 182.774 579.863 187.269C579.275 188.65 578.594 189.989 577.826 191.278C575.263 195.835 571.717 199.763 567.446 202.778C577.872 205.296 588.208 208.284 598.455 211.741C619.522 218.842 639.897 227.851 659.326 238.658C652.249 216.274 651.256 192.411 656.448 169.517C661.64 146.623 672.829 125.523 688.868 108.381C704.908 91.2394 725.219 78.674 747.718 71.9742C770.216 65.2744 794.093 64.6814 816.897 70.2562C839.7 75.831 860.61 87.3727 877.481 103.697C894.351 120.021 906.574 140.54 912.896 163.148C919.217 185.757 919.41 209.64 913.453 232.347C907.497 255.054 895.606 275.767 879.001 292.361L877.307 294.019C880.176 295.823 882.837 297.937 885.242 300.324L885.446 300.528C889.596 304.672 892.887 309.595 895.131 315.015C897.374 320.434 898.525 326.243 898.518 332.108C898.511 337.973 897.347 343.78 895.091 349.194C892.835 354.608 889.532 359.523 885.372 363.658L885.187 363.889C876.814 372.243 865.477 376.947 853.65 376.972C847.304 376.976 841.032 375.612 835.261 372.972C831.679 378.636 826.586 383.187 820.557 386.111C818.271 390.814 814.977 394.956 810.909 398.241C811.946 400.34 812.958 402.451 813.946 404.574C823.21 424.394 830.691 445.001 836.298 466.148C846.616 460.481 858.496 458.32 870.149 459.99C881.802 461.66 892.597 467.071 900.909 475.408L901.039 475.537C906.101 480.585 910.118 486.581 912.858 493.184C915.599 499.787 917.01 506.865 917.01 514.014C917.01 521.163 915.599 528.241 912.858 534.844C910.118 541.447 906.101 547.443 901.039 552.491C900.164 553.385 899.236 554.226 898.261 555.009C888.381 563.713 875.668 568.516 862.501 568.519C857.743 568.516 853.006 567.893 848.409 566.667C847.003 659.237 810.65 747.853 746.64 814.741L742.798 818.685C750.383 820.733 757.297 824.74 762.844 830.305C768.391 835.869 772.376 842.796 774.399 850.388C776.422 857.98 776.411 865.971 774.368 873.558C772.325 881.145 768.322 888.061 762.761 893.611L762.557 893.815C758.412 897.966 753.488 901.257 748.068 903.5C742.648 905.744 736.838 906.895 730.972 906.888C725.106 906.881 719.299 905.716 713.885 903.46C708.47 901.204 703.554 897.901 699.418 893.741L699.224 893.546C691.756 886.065 687.166 876.189 686.261 865.658C634.008 900.898 573.581 922.129 510.769 927.317C447.957 932.505 384.865 921.476 327.539 895.287C323.446 901.702 317.474 906.698 310.437 909.593C306.446 919.454 298.733 926.333 289.65 930.195C288.514 930.68 287.352 931.1 286.168 931.454C282.244 932.759 278.137 933.434 274.002 933.454C268.667 933.413 263.394 932.308 258.492 930.204C249.344 926.333 241.622 919.445 237.603 909.602C227.761 905.583 220.872 897.843 217.001 888.695C214.852 883.807 213.742 878.525 213.742 873.185C213.742 867.846 214.852 862.564 217.001 857.676C220.853 848.593 227.677 840.898 237.418 836.861C192.915 797.671 158.541 748.307 137.224 692.972C133.9 693.751 130.498 694.143 127.085 694.139C115.223 694.115 103.854 689.386 95.4737 680.991L95.2793 680.787C91.1182 676.642 87.8183 671.714 85.5694 666.288C83.3205 660.862 82.1672 655.044 82.1758 649.171C82.1844 643.297 83.3548 637.483 85.6195 632.064C87.8843 626.644 91.1987 621.726 95.3719 617.593L95.5663 617.398C101.079 611.918 107.914 607.953 115.409 605.889C114.897 601.827 114.458 597.759 114.094 593.685C105.118 497.008 134.895 400.722 196.881 325.991L197.418 325.352C199.918 322.259 203.307 318.38 206.918 314.389C213.122 307.546 217.974 302.408 220.409 299.963C226.279 294.093 232.31 288.46 238.501 283.065C237.964 282.556 237.409 282.056 236.9 281.537C232.747 277.392 229.453 272.468 227.208 267.047C224.963 261.626 223.811 255.815 223.818 249.948C223.825 244.08 224.991 238.272 227.248 232.856C229.506 227.441 232.811 222.524 236.974 218.389L237.168 218.195C241.312 214.042 246.235 210.749 251.655 208.504C257.075 206.259 262.885 205.107 268.751 205.113C274.617 205.119 280.425 206.283 285.84 208.539C291.255 210.795 296.172 214.099 300.307 218.259L300.446 218.398C304.865 222.812 308.317 228.097 310.585 233.917C317.61 230.269 324.73 226.858 331.946 223.685C373.714 205.364 418.511 194.923 464.076 192.889C474.563 192.408 485.069 192.377 495.594 192.796Z" fill="#F5E6F5"/>
<path fill-rule="evenodd" clip-rule="evenodd" d="M862.501 492.454C866.761 492.454 870.926 493.717 874.468 496.084C878.01 498.451 880.77 501.815 882.4 505.751C884.03 509.687 884.456 514.018 883.624 518.196C882.792 522.374 880.74 526.212 877.727 529.223C874.714 532.235 870.876 534.285 866.697 535.115C862.519 535.945 858.188 535.518 854.253 533.886C850.318 532.255 846.955 529.493 844.59 525.95C842.224 522.407 840.963 518.242 840.964 513.982C840.964 511.154 841.521 508.354 842.604 505.741C843.686 503.129 845.273 500.755 847.273 498.756C849.273 496.757 851.647 495.171 854.26 494.09C856.873 493.009 859.674 492.453 862.501 492.454ZM284.955 884.074C282.227 886.776 280.642 890.422 280.529 894.26C280.261 902.528 267.816 902.593 267.566 894.26C267.44 890.426 265.863 886.784 263.154 884.068C260.445 881.353 256.807 879.766 252.974 879.63C244.696 879.371 244.64 866.917 252.974 866.667C256.804 866.538 260.443 864.962 263.156 862.255C265.87 859.549 267.456 855.914 267.594 852.084C267.853 843.815 280.307 843.75 280.557 852.084C280.694 855.901 282.27 859.526 284.968 862.231C287.665 864.935 291.286 866.52 295.103 866.667C303.381 866.926 303.437 879.38 295.103 879.63C291.276 879.757 287.643 881.348 284.955 884.074ZM853.64 320.186C855.995 320.187 858.296 320.887 860.253 322.197C862.21 323.506 863.735 325.367 864.635 327.543C865.535 329.719 865.769 332.112 865.309 334.422C864.848 336.731 863.713 338.852 862.048 340.516C860.382 342.18 858.26 343.314 855.951 343.772C853.641 344.231 851.247 343.995 849.072 343.093C846.897 342.192 845.038 340.665 843.73 338.707C842.422 336.749 841.724 334.448 841.724 332.093C841.719 330.526 842.024 328.973 842.62 327.524C843.217 326.075 844.095 324.758 845.202 323.649C846.309 322.54 847.625 321.661 849.073 321.062C850.521 320.463 852.073 320.155 853.64 320.158V320.186ZM795.15 360.75C792.881 362.977 791.555 365.99 791.446 369.167C791.233 376.01 780.918 376.037 780.696 369.167C780.582 366.007 779.278 363.006 777.046 360.765C774.814 358.525 771.819 357.21 768.659 357.084C761.807 356.871 761.788 346.556 768.659 346.334C771.812 346.212 774.804 344.905 777.036 342.674C779.267 340.442 780.575 337.45 780.696 334.297C780.918 327.445 791.224 327.417 791.446 334.297C791.571 337.449 792.88 340.438 795.111 342.669C797.341 344.9 800.331 346.208 803.483 346.334C810.335 346.556 810.363 356.861 803.483 357.084C800.346 357.205 797.37 358.504 795.15 360.723V360.75ZM127.112 637.315C129.468 637.315 131.77 638.013 133.728 639.322C135.686 640.63 137.212 642.49 138.113 644.666C139.015 646.842 139.251 649.236 138.791 651.546C138.332 653.855 137.198 655.977 135.532 657.642C133.867 659.308 131.745 660.442 129.436 660.901C127.126 661.361 124.732 661.125 122.556 660.224C120.38 659.322 118.52 657.796 117.212 655.838C115.903 653.88 115.205 651.578 115.205 649.223C115.205 646.065 116.46 643.036 118.693 640.803C120.926 638.57 123.954 637.315 127.112 637.315ZM731.029 850.102C733.383 850.102 735.684 850.8 737.642 852.107C739.599 853.414 741.125 855.272 742.028 857.447C742.93 859.621 743.167 862.013 742.71 864.322C742.253 866.632 741.121 868.753 739.459 870.42C737.796 872.086 735.677 873.222 733.369 873.685C731.061 874.147 728.668 873.916 726.492 873.019C724.315 872.122 722.454 870.6 721.142 868.645C719.83 866.691 719.127 864.391 719.122 862.037C719.118 860.471 719.423 858.92 720.02 857.472C720.617 856.024 721.494 854.708 722.6 853.6C723.706 852.491 725.019 851.611 726.466 851.011C727.912 850.411 729.463 850.102 731.029 850.102ZM811.113 137.037C798.879 131.969 785.418 130.641 772.43 133.223C759.442 135.805 747.512 142.179 738.147 151.542C728.782 160.904 722.404 172.832 719.818 185.819C717.233 198.806 718.557 212.268 723.622 224.503C728.687 236.738 737.267 247.196 748.276 254.555C759.284 261.914 772.228 265.843 785.47 265.845C798.712 265.848 811.657 261.924 822.669 254.57C833.681 247.215 842.264 236.761 847.335 224.528C854.091 208.119 854.073 189.701 847.285 173.305C840.497 156.909 827.491 143.869 811.113 137.037ZM785.483 99.593C805.126 99.5911 824.328 105.415 840.661 116.327C856.993 127.239 869.723 142.75 877.239 160.898C884.756 179.046 886.722 199.015 882.888 218.28C879.054 237.545 869.593 255.24 855.702 269.128C841.81 283.016 824.112 292.471 804.846 296.3C785.58 300.128 765.612 298.157 747.466 290.635C729.32 283.114 713.813 270.38 702.905 254.044C691.997 237.708 686.179 218.504 686.187 198.861C686.214 172.533 696.685 147.291 715.303 128.675C733.921 110.059 759.164 99.5897 785.492 99.5652L785.483 99.593ZM268.714 238.111C271.07 238.111 273.373 238.81 275.332 240.12C277.29 241.429 278.816 243.29 279.717 245.466C280.618 247.643 280.853 250.038 280.392 252.349C279.931 254.659 278.795 256.781 277.128 258.445C275.46 260.11 273.337 261.242 271.026 261.7C268.715 262.157 266.32 261.919 264.145 261.015C261.969 260.111 260.111 258.581 258.805 256.621C257.499 254.66 256.803 252.356 256.807 250C256.812 246.846 258.069 243.822 260.301 241.593C262.534 239.363 265.56 238.111 268.714 238.111ZM695.474 303.343C733.14 334.765 763.429 374.091 784.192 418.532C804.955 462.973 815.682 511.439 815.613 560.491C815.613 739.704 674.872 887.102 495.659 895.26C412.581 899.123 331.053 871.836 267.038 818.741L265.307 817.361C197.488 760.522 154.901 679.167 146.838 591.047C138.776 502.927 165.892 415.194 222.27 346.991C227.529 340.149 238.011 328.991 243.733 323.297C302.97 264.218 382.152 229.416 465.732 225.722C549.313 222.029 631.256 249.711 695.474 303.334V303.343ZM694.548 346.426C687.974 339.852 681.344 333.766 674.659 328.167C616.671 279.495 542.475 254.456 466.853 258.037C383.279 261.852 303.983 299.704 247.844 366.769C247.622 367.019 247.4 367.269 247.168 367.51C196.107 429.256 171.603 508.725 179.024 588.505C186.446 668.284 225.187 741.87 286.761 793.139C287.02 793.352 287.279 793.584 287.52 793.806C345.409 841.819 419.143 866.483 494.27 862.963C655.964 855.611 783.335 722.223 783.335 560.491C783.372 520.723 775.551 481.339 760.32 444.603C745.09 407.867 722.75 374.502 694.585 346.426H694.548ZM739.964 163.093C741.183 162.056 742.596 161.272 744.122 160.787C754.307 157.547 763.566 168.315 758.576 177.945C752.9 188.88 754.705 194.926 752.483 199.241C746.511 210.963 728.511 205.908 729.557 192.76C730.284 183.692 732.802 174.858 736.964 166.769C737.735 165.365 738.766 164.121 740.001 163.102L739.964 163.093ZM742.677 233.056C737.529 220.945 752.001 210.204 761.02 219.287C773.168 231.519 791.177 234.056 805.816 224.778C814.15 219.269 825.483 227.473 822.816 238.25C822.078 241.268 820.221 243.892 817.622 245.593C794.085 260.5 764.844 256.602 745.214 236.834C744.151 235.746 743.303 234.467 742.714 233.065L742.677 233.056ZM279.862 673.537C285.282 673.536 290.581 675.141 295.088 678.151C299.595 681.161 303.108 685.44 305.183 690.446C307.257 695.453 307.801 700.963 306.744 706.278C305.687 711.594 303.077 716.477 299.245 720.309C295.413 724.141 290.53 726.751 285.215 727.808C279.899 728.865 274.389 728.321 269.383 726.246C264.376 724.172 260.097 720.658 257.087 716.151C254.077 711.644 252.472 706.346 252.474 700.926C252.474 697.33 253.182 693.768 254.558 690.445C255.935 687.122 257.952 684.103 260.496 681.559C263.039 679.016 266.058 676.999 269.381 675.622C272.704 674.246 276.266 673.537 279.862 673.537ZM720.603 616.704C730.788 603.417 752.029 613.982 747.64 630.13C728.089 702 681.562 763.556 617.751 801.973C606.048 809.019 591.566 798.399 594.89 785.01C595.368 783.06 596.23 781.225 597.425 779.613C598.621 778.001 600.126 776.644 601.853 775.621C658.882 741.3 700.462 686.292 717.927 622.065C718.456 620.106 719.369 618.271 720.613 616.667L720.603 616.704ZM552.881 798.473C557.946 796.621 562.224 795.019 568.205 797.843C580.511 803.648 579.677 821.528 566.825 826.148C557.039 829.729 547.053 832.737 536.918 835.158C523.696 838.361 513.066 823.936 520.251 812.167C522.335 808.741 525.214 806.612 529.511 805.371C536.214 803.352 546.844 800.704 552.881 798.473ZM541.668 178.445C540.315 179.787 539.526 181.596 539.464 183.5C539.335 187.611 533.131 187.63 532.983 183.5C532.914 181.597 532.127 179.79 530.78 178.444C529.434 177.097 527.627 176.31 525.724 176.241C521.603 176.111 521.594 169.917 525.724 169.76C527.629 169.691 529.436 168.902 530.783 167.554C532.13 166.205 532.916 164.396 532.983 162.491C533.113 158.38 539.307 158.361 539.464 162.491C539.531 164.395 540.315 166.202 541.66 167.551C543.005 168.899 544.811 169.688 546.714 169.76C550.835 169.889 550.853 176.084 546.714 176.241C544.813 176.307 543.009 177.095 541.668 178.445Z" fill="#500599"/>
</svg>
