<svg width="1000" height="1000" viewBox="0 0 1000 1000" fill="none" xmlns="http://www.w3.org/2000/svg">
<path fill-rule="evenodd" clip-rule="evenodd" d="M891.359 167.962C903.195 170.413 913.814 176.891 921.409 186.293C929.003 195.696 933.102 207.441 933.008 219.527C932.913 231.613 928.631 243.293 920.89 252.575C913.15 261.858 902.43 268.169 890.558 270.434C878.685 272.699 866.395 270.777 855.781 264.995C845.167 259.214 836.885 249.931 832.348 238.729C827.811 227.526 827.299 215.097 830.899 203.559C834.499 192.021 841.988 182.088 852.091 175.453C853.185 174.742 854.316 174.09 855.479 173.499C866.379 167.384 879.121 165.411 891.359 167.944M753.026 527.601L759.572 523.268H759.507L753.026 527.583V527.601ZM753.026 527.601L743.026 534.083H743.118L753.026 527.601ZM428.517 135.564H428.581L435.063 131.259L428.517 135.564ZM454.118 80.7495C465.721 83.1753 475.891 90.0964 482.405 99.9995L482.554 100.24C488.878 110.176 491.034 122.202 488.556 133.716C486.077 145.229 479.163 155.303 469.311 161.756C459.458 168.209 447.461 170.522 435.916 168.193C424.371 165.864 414.208 159.082 407.628 149.314L407.479 149.083C404.261 144.184 402.04 138.697 400.946 132.939C399.852 127.18 399.905 121.261 401.102 115.523C402.3 109.785 404.618 104.339 407.924 99.4986C411.23 94.6579 415.459 90.5174 420.368 87.3143L420.6 87.1569C430.489 80.6805 442.538 78.3772 454.118 80.7495ZM733.035 540.74H733.091H733.165L733.118 540.685L733.035 540.74ZM579.702 163.62L579.924 163.675C581.248 163.943 582.553 164.296 583.831 164.731C602.483 169.608 618.591 181.378 628.905 197.666C634.111 205.87 637.729 214.978 639.572 224.518C642.942 225.851 646.285 227.302 649.6 228.87C660.712 234.121 671.208 240.586 680.896 248.148C686.896 252.777 694.785 258.694 702.544 263.037C706.776 265.398 710.415 267.231 712.118 267.611C721.437 263.149 731.68 260.957 742.008 261.214C752.336 261.471 762.457 264.17 771.542 269.09C780.627 274.009 788.419 281.01 794.279 289.519C800.139 298.028 803.901 307.804 805.257 318.046C805.662 321.62 805.798 325.22 805.665 328.814C805.576 332.417 805.192 336.006 804.517 339.546L780.693 454.546C778.524 464.891 773.868 474.552 767.128 482.694C764.387 486.029 761.315 489.079 757.961 491.796C767.183 495.085 775.082 501.29 780.461 509.472L780.609 509.712C784.159 515.157 786.483 521.309 787.419 527.741C788.356 534.173 787.883 540.732 786.034 546.963C784.184 553.194 781.002 558.949 776.708 563.828C772.414 568.708 767.11 572.595 761.165 575.222C768.942 585.954 776.161 597.08 782.794 608.555L784.831 612.166C794.704 618.74 802.751 627.708 808.221 638.232C813.692 648.756 816.409 660.494 816.118 672.351C816.013 675.235 815.719 678.108 815.239 680.953C836.496 745.466 840.471 814.425 826.766 880.953C825.457 887.259 822.915 893.244 819.288 898.565C815.66 903.886 811.018 908.439 805.628 911.962L805.47 912.064C800.096 915.612 794.074 918.064 787.75 919.28C781.427 920.495 774.925 920.45 768.618 919.148L106.202 781.935C99.8963 780.628 93.9111 778.089 88.5896 774.463C83.2682 770.837 78.7153 766.195 75.1925 760.805L75.0906 760.638C71.5431 755.266 69.0912 749.246 67.8757 742.923C66.6602 736.601 66.7049 730.101 68.0073 723.796C86.8086 632.986 137.623 551.959 211.183 495.49C212.884 489.476 215.224 483.662 218.165 478.148C226.476 462.592 239.226 449.861 254.794 441.574C259.935 438.831 265.331 436.595 270.905 434.898C264.185 430.856 258.462 425.352 254.16 418.795C249.858 412.238 247.089 404.796 246.057 397.022C245.025 389.248 245.758 381.342 248.201 373.89C250.644 366.438 254.734 359.632 260.167 353.977C265.601 348.322 272.239 343.964 279.587 341.226C286.936 338.488 294.807 337.441 302.616 338.162C310.425 338.883 317.971 341.354 324.694 345.391C331.418 349.428 337.145 354.927 341.452 361.481L341.544 361.638C345.317 367.358 347.924 373.767 349.214 380.497C350.505 387.226 350.454 394.145 349.064 400.855C347.675 407.565 344.975 413.934 341.118 419.598C337.262 425.262 332.325 430.109 326.591 433.861L324.896 434.925C368.71 420.221 414.825 413.577 461.007 415.314L474.405 350.731C472.823 351.249 471.208 351.663 469.572 351.972C463.665 360.814 454.757 365.99 445.035 367.935C443.826 368.175 442.605 368.348 441.378 368.453C437.269 368.933 433.11 368.764 429.054 367.953C423.84 366.824 418.902 364.671 414.526 361.62C406.359 355.972 400.192 347.675 398.257 337.222C389.415 331.314 384.229 322.407 382.294 312.685C382.056 311.478 381.88 310.261 381.767 309.037C380.619 299.546 383.06 289.969 388.609 282.185C394.257 274.018 402.563 267.833 413.017 265.907C418.952 257.083 427.924 251.907 437.665 249.972C442.888 248.857 448.287 248.841 453.517 249.925C458.747 251.009 463.694 253.169 468.044 256.268C476.211 261.907 482.378 270.212 484.313 280.648C485.711 281.584 487.045 282.614 488.304 283.731L491.952 266.138C485.768 249.782 485.358 231.804 490.791 215.183C496.223 198.562 507.172 184.296 521.822 174.749L521.767 174.675C530.221 169.111 539.69 165.27 549.632 163.373C559.574 161.476 569.792 161.56 579.702 163.62Z" fill="#F5E6F5"/>
<path fill-rule="evenodd" clip-rule="evenodd" d="M449.709 321.814C446.502 323.904 444.217 327.14 443.32 330.861C441.385 338.907 429.181 336.416 430.607 328.231C431.251 324.459 430.441 320.583 428.342 317.384C426.242 314.185 423.009 311.9 419.292 310.99C411.246 309.055 413.737 296.861 421.922 298.286C425.694 298.923 429.568 298.11 432.765 296.009C435.963 293.909 438.248 290.677 439.162 286.962C441.088 278.916 453.292 281.407 451.866 289.592C451.227 293.365 452.04 297.239 454.14 300.438C456.241 303.636 459.474 305.921 463.19 306.833C471.227 308.768 468.746 320.962 460.561 319.536C456.785 318.885 452.903 319.699 449.709 321.814ZM884.672 200.249C888.399 201.022 891.814 202.883 894.484 205.596C897.154 208.309 898.96 211.753 899.673 215.492C900.386 219.232 899.975 223.099 898.491 226.604C897.006 230.11 894.516 233.096 891.335 235.187C888.153 237.277 884.423 238.377 880.617 238.348C876.81 238.319 873.097 237.162 869.948 235.023C866.799 232.884 864.355 229.86 862.925 226.332C861.494 222.804 861.142 218.931 861.912 215.203C862.948 210.203 865.928 205.818 870.196 203.014C874.464 200.21 879.671 199.215 884.672 200.249ZM301.848 371.296C305.578 372.067 308.996 373.928 311.669 376.642C314.342 379.356 316.15 382.802 316.865 386.543C317.579 390.285 317.168 394.155 315.683 397.663C314.198 401.171 311.707 404.16 308.523 406.252C305.339 408.344 301.607 409.444 297.797 409.415C293.988 409.385 290.273 408.226 287.122 406.085C283.972 403.944 281.527 400.917 280.097 397.386C278.667 393.855 278.316 389.98 279.088 386.249C280.126 381.25 283.106 376.867 287.374 374.063C291.641 371.26 296.847 370.264 301.848 371.296ZM745.487 522.472C747.792 522.949 749.905 524.098 751.558 525.776C753.21 527.453 754.328 529.583 754.771 531.895C755.213 534.208 754.96 536.6 754.043 538.769C753.126 540.938 751.587 542.786 749.62 544.08C747.653 545.374 745.346 546.056 742.991 546.039C740.637 546.023 738.34 545.309 736.391 543.987C734.443 542.665 732.93 540.795 732.043 538.614C731.157 536.432 730.938 534.037 731.412 531.731C732.052 528.637 733.894 525.924 736.533 524.188C739.172 522.452 742.392 521.834 745.487 522.472ZM447.431 113.046C449.737 113.523 451.85 114.672 453.502 116.35C455.155 118.027 456.273 120.157 456.715 122.469C457.157 124.782 456.904 127.174 455.987 129.343C455.07 131.512 453.531 133.36 451.564 134.654C449.597 135.948 447.29 136.63 444.936 136.614C442.581 136.597 440.284 135.883 438.336 134.561C436.387 133.239 434.874 131.37 433.988 129.188C433.102 127.007 432.882 124.611 433.357 122.305C433.671 120.772 434.285 119.316 435.163 118.021C436.041 116.725 437.166 115.616 438.473 114.756C439.78 113.896 441.245 113.302 442.782 113.008C444.319 112.715 445.899 112.728 447.431 113.046ZM687.236 587.472C645.194 540.532 590.304 506.961 529.366 490.916C462.477 473.518 392.755 477.277 327.098 503.583C324.468 504.643 321.607 504.992 318.8 504.596C315.993 504.199 313.339 503.071 311.107 501.324C307.553 498.529 303.269 496.815 298.768 496.388C294.266 495.961 289.737 496.837 285.72 498.914C281.704 500.99 278.369 504.178 276.114 508.097C273.86 512.017 272.78 516.502 273.005 521.018C273.332 523.936 272.859 526.888 271.637 529.557C270.416 532.227 268.491 534.515 266.07 536.175C201.848 580.083 155.551 644.944 135.736 721.296L765.607 851.74C774.34 796.549 768.417 740.032 748.431 687.851C747.422 685.38 747.041 682.697 747.322 680.042C747.603 677.387 748.538 674.844 750.042 672.638C750.448 672.056 750.698 671.378 750.767 670.671C750.836 669.964 750.723 669.251 750.437 668.601C750.152 667.95 749.705 667.384 749.138 666.956C748.571 666.528 747.903 666.253 747.199 666.157C744.607 665.797 742.141 664.813 740.013 663.291C737.884 661.768 736.156 659.753 734.977 657.416C722.177 632.122 706.127 608.609 687.236 587.472ZM556.477 275.49L532.348 392.592C536.602 392.046 540.892 391.82 545.181 391.916C569.366 391.694 594.598 397.194 616.931 414.611C638.394 431.361 665.848 449.722 692.903 447.944C700.743 447.361 708.399 445.283 715.459 441.824V441.87L716.653 441.305L740.449 326.287C704.338 344.138 669.801 322.194 640.783 299.564C623.403 285.999 602.885 279.342 582.848 277.527C574.125 276.731 565.218 275.925 556.477 275.49ZM572.987 195.916C597.505 200.999 612.162 225.027 607.125 248.749C626.6 253.189 644.869 261.832 660.653 274.074C674.681 285.018 697.69 301.666 714.903 300.49C718.827 300.192 722.652 299.113 726.153 297.314C746.524 287.268 769.811 300.657 772.57 322.194C772.933 325.749 772.815 329.337 772.218 332.861L748.394 447.851C747.327 452.974 745.033 457.761 741.709 461.803C738.385 465.844 734.131 469.019 729.311 471.055C680.579 494.203 636.412 470.796 597.014 440.064C588.814 433.713 579.363 429.166 569.283 426.722C557.659 423.759 543.292 422.259 526.181 422.222L519.311 455.37C529.885 457.567 540.345 460.24 550.69 463.388C636.611 489.445 709.393 547.227 754.255 624.999C764.079 642.009 757.033 633.333 766.709 639.694C771.91 643.13 776.151 647.835 779.031 653.364C781.911 658.893 783.336 665.064 783.172 671.296C783.06 675.168 782.329 678.998 781.005 682.638C803.078 744.055 807.727 810.381 794.44 874.277C793.567 878.487 791.057 882.179 787.463 884.538C783.868 886.898 779.484 887.734 775.273 886.861L112.866 749.638C110.782 749.207 108.803 748.369 107.042 747.173C105.282 745.977 103.774 744.446 102.606 742.667C101.437 740.888 100.63 738.896 100.232 736.805C99.8334 734.714 99.8506 732.565 100.283 730.481C118.317 643.277 168.553 566.072 240.977 514.259C244.903 474.648 287.857 451.87 322.875 470.509C375.276 450.77 431.627 443.809 487.255 450.203L526.32 261.953C521.863 254.608 519.65 246.122 519.951 237.536C520.252 228.95 523.054 220.639 528.015 213.624C532.975 206.61 539.876 201.197 547.87 198.051C555.865 194.905 564.604 194.163 573.014 195.916H572.987ZM402.774 622.861C383.487 634.574 361.181 631.333 364.329 606.49C366.903 586.12 386.135 565.24 406.199 561.064C441.468 553.703 436.69 602.286 402.774 622.861ZM605.079 732.314C607.644 709.259 629.625 699.685 648.144 713.796C670.366 730.75 668.199 769.629 643.468 774.962C622.264 779.536 602.449 755.99 605.079 732.314ZM272.866 634.648C261.786 629.397 249.081 628.733 237.514 632.802C225.948 636.871 216.456 645.343 211.104 656.374C205.751 667.406 204.972 680.104 208.935 691.708C212.898 703.311 221.282 712.88 232.264 718.333C236.128 720.214 240.581 720.483 244.644 719.081C248.706 717.679 252.045 714.72 253.926 710.856C255.807 706.992 256.076 702.539 254.674 698.476C253.272 694.414 250.314 691.075 246.449 689.194C235.125 683.638 236.264 667.231 248.014 663.166C249.766 662.558 251.621 662.302 253.472 662.414C255.324 662.525 257.135 663.001 258.801 663.814C260.723 664.795 262.821 665.381 264.972 665.539C267.124 665.698 269.285 665.424 271.33 664.736C273.374 664.047 275.26 662.957 276.877 661.53C278.495 660.102 279.811 658.366 280.748 656.423C281.685 654.48 282.224 652.369 282.334 650.214C282.444 648.06 282.122 645.905 281.388 643.877C280.654 641.849 279.522 639.987 278.059 638.402C276.595 636.817 274.83 635.541 272.866 634.648ZM719.375 348.148C660.487 354.629 639.82 294.342 569.616 292.259L560.912 334.259C580.486 334.898 609.523 339.87 635.514 360.185C653.218 373.981 668.699 383.555 682.82 387.768C692.635 390.694 701.931 390.907 711.135 387.99L719.375 348.148Z" fill="#500599"/>
</svg>
