<svg width="1000" height="1000" viewBox="0 0 1000 1000" fill="none" xmlns="http://www.w3.org/2000/svg">
<path fill-rule="evenodd" clip-rule="evenodd" d="M881.482 490.13C883.332 563.454 864.327 635.797 826.678 698.745C789.029 761.693 734.284 812.66 668.808 845.718C603.332 878.776 529.817 892.566 456.812 885.486C383.807 878.406 314.312 850.746 256.408 805.722L237.779 809.75L236.492 810C210.492 815.555 182.871 820.12 157.214 822.12C134.01 823.972 111.964 823.63 93.325 820.13C81.0287 817.833 69.8158 814.102 60.038 808.731C49.4858 803.091 40.4008 795.059 33.5102 785.278C25.3642 773.619 20.918 759.777 20.751 745.555C20.4639 733.12 23.1861 719.861 29.3343 705.741C36.4732 689.343 49.075 670.555 68.325 648.935C68.9176 648.268 69.538 647.63 70.1769 647.019C85.799 629.977 102.319 613.781 119.668 598.5C101.698 530.45 102.644 458.786 122.404 391.234C142.164 323.682 179.988 262.805 231.797 215.167C232.892 214.089 234.058 213.087 235.288 212.167C311.114 143.718 410.942 108.05 512.975 112.953C615.009 117.855 710.958 162.93 779.871 238.333L781.038 239.685C784.557 243.518 788.334 247.889 792.205 252.555C843.668 239.157 881.39 235.667 908.306 239.593C951.056 245.843 971.964 268.13 978.001 300.38C982.631 325.046 974.418 352.565 959.64 380.5C947.01 404.38 929.464 429.13 911.769 452.287C905.473 460.515 899.047 468.685 892.492 476.796C888.856 481.309 885.186 485.753 881.482 490.13Z" fill="#F5E6F5"/>
<path fill-rule="evenodd" clip-rule="evenodd" d="M315.676 301.972C317.667 313.174 318.96 324.489 319.546 335.852C319.666 339.269 319.592 343.75 317.148 346.037C297.25 364.639 266.963 365.213 241.833 358.815C240.865 358.564 239.968 358.093 239.212 357.438C238.457 356.783 237.863 355.962 237.477 355.039C237.092 354.117 236.925 353.117 236.99 352.119C237.055 351.121 237.35 350.152 237.852 349.287C254.404 321.102 275.507 295.85 300.305 274.556C301.154 273.836 302.174 273.347 303.267 273.136C304.36 272.925 305.488 272.999 306.544 273.351C307.6 273.702 308.548 274.32 309.295 275.144C310.043 275.968 310.567 276.971 310.815 278.056C312.666 286.259 314.361 294.417 315.685 302.009M223.481 400.565C250.879 425.065 280.889 465.713 309.805 484.324C339.296 503.278 371.12 533.046 366.491 568.889C363.166 594.62 341.796 615.259 318.416 624.167C304.315 629.537 280.37 606.574 268.416 594.537C242.435 568.611 216.565 532.704 197.731 499.815C197.156 498.816 196.862 497.68 196.879 496.528C197.288 464.769 202.745 433.277 213.046 403.232C213.401 402.228 213.998 401.327 214.784 400.609C215.57 399.89 216.52 399.377 217.552 399.113C218.583 398.849 219.664 398.844 220.698 399.097C221.732 399.35 222.688 399.854 223.481 400.565ZM624.75 715C640.222 714.88 654.75 714.759 662.463 712.917C663.689 712.58 664.987 712.611 666.196 713.007C667.405 713.403 668.47 714.146 669.26 715.143C670.049 716.139 670.528 717.347 670.637 718.614C670.745 719.881 670.479 721.152 669.87 722.269C660.528 739.315 648.315 751.231 633.676 758.833C619.305 766.296 602.731 769.472 584.352 769.157C583.946 769.176 583.54 769.157 583.139 769.102C535.694 762.315 546.648 731.407 564.037 721.88C575.926 715.389 601.333 715.185 624.75 715ZM754.907 394.445C695.518 393.241 683.333 333.389 684.259 285.185C684.295 283.949 684.684 282.749 685.38 281.726C686.076 280.703 687.05 279.901 688.187 279.415C689.324 278.928 690.577 278.777 691.797 278.979C693.018 279.181 694.154 279.728 695.074 280.556C724.735 307.761 748.597 340.674 765.231 377.324L768.75 385.333C769.147 386.285 769.311 387.318 769.229 388.346C769.147 389.374 768.82 390.367 768.277 391.244C767.734 392.12 766.989 392.854 766.105 393.385C765.221 393.916 764.223 394.229 763.194 394.296C760.373 394.445 757.611 394.494 754.907 394.445ZM491.379 350.407C482.407 350.982 483.676 343.352 484.629 336.63C486.092 326.75 488.231 312.287 480.555 291.889C476.768 281.843 463.787 282.333 448 283.065C447.732 283.098 447.464 283.116 447.194 283.12C439.037 283.5 430.018 283.907 422.065 282.954C403.926 280.778 395.055 269.213 397.518 248.695C400.342 225.176 425.491 222.157 446.454 224.667C476.926 228.37 512.416 243.528 538.963 260.222C557.62 271.972 586.898 293.676 588.203 314.046C589.778 338.639 543.407 343.546 517.315 345.213C499.278 346.361 495.222 350.157 491.379 350.407ZM679.25 515.222C661.287 528.083 641.287 541.5 622.092 553.463L619.176 548.759L616.972 552.694C609.222 548.324 602.055 541.87 595.509 534.648C584.667 522.676 562.092 522.926 540.444 523.093C529.657 523.093 509.009 524.148 502.287 518.389C498.009 514.685 498 508.343 504.704 497.685C509.426 490.167 517.954 479.065 531.676 463.056C564.926 424.306 607.055 424.519 648.546 449.602C659.348 456.219 669.39 464.003 678.491 472.815C681.639 475.852 683.565 478.324 684.046 479.695C687.102 488.954 684.87 501.75 681.667 511.88C681.259 513.181 680.444 514.317 679.342 515.12L679.25 515.222ZM848.074 478.704C852.227 548.035 835.922 617.058 801.184 677.202C766.446 737.346 714.806 785.961 652.677 817.009C590.548 848.057 520.666 860.17 451.712 851.844C382.758 843.518 317.768 815.12 264.815 770.176C253.636 772.608 242.296 775.077 230.796 777.583C184.583 787.556 133.176 794.176 99.3609 787.833C82.0368 784.593 68.4164 777.852 60.5461 766.537C52.0646 754.324 50.8516 738.695 59.4535 718.926C70.5646 693.407 100.444 657.945 157.139 609.472C136.127 544.788 134.171 475.424 151.506 409.659C168.84 343.894 204.732 284.506 254.898 238.583C324.212 175.113 415.899 141.775 509.792 145.9C603.685 150.026 692.094 191.278 755.574 260.583C764.187 269.929 772.274 279.747 779.796 289.991C895.25 256.315 938.917 270.546 945.62 306.37C951.741 339.093 919.148 388.315 885.574 432.296C873.092 448.654 860.592 464.124 848.074 478.704ZM305.778 761.111C352.889 795.119 408.324 815.749 466.207 820.813C524.091 825.877 582.266 815.187 634.567 789.876C686.869 764.565 731.349 725.576 763.293 677.041C795.237 628.506 813.456 572.233 816.018 514.185C669.102 668.232 513.185 714.815 305.778 761.111ZM263.889 737.259C265.128 736.827 266.415 736.548 267.722 736.426C390.972 709.454 493.194 684.398 583.944 642.38C684.398 595.861 771.75 528.046 859.935 412.648C889.148 374.417 917.741 332.88 913.898 312.352C910.852 296.046 876.009 294.296 778.065 324.269C774.775 325.265 771.253 325.187 768.011 324.044C764.769 322.902 761.975 320.756 760.037 317.917C751.468 305.475 742.067 293.626 731.898 282.454C671.296 216.454 590.389 181.546 507.685 178.167C422.609 174.573 339.577 204.853 276.787 262.37C229.87 305.284 196.708 361.127 181.481 422.859C166.254 484.592 169.643 549.45 191.222 609.259C192.344 612.388 192.473 615.787 191.591 618.992C190.71 622.197 188.86 625.052 186.296 627.167C128.296 675.815 98.8794 709.38 89.0738 731.796C85.5276 739.954 85.1387 745.139 87.1201 747.991C89.7127 751.695 96.2035 754.306 105.296 756.019C134.241 761.445 181.166 755.148 224.065 745.889C237.583 742.975 250.858 740.099 263.889 737.259ZM723.537 624.361C736.49 614.395 748.673 603.466 759.981 591.667C760.936 590.649 762.194 589.966 763.568 589.721C764.942 589.475 766.359 589.679 767.607 590.304C768.856 590.928 769.869 591.938 770.497 593.185C771.125 594.432 771.334 595.848 771.092 597.222C766.944 619.195 755.704 642.148 743.018 662.778C732.074 681.019 715.694 690.972 697.648 678.361C693.944 675.787 681.907 663.546 679.972 660.028C679.149 658.523 678.955 656.753 679.434 655.106C679.913 653.459 681.026 652.069 682.528 651.241C696.854 643.325 710.563 634.34 723.537 624.361ZM393.944 759.259L425.75 751.37C431.194 749.824 433.074 753.824 435.009 757.324C439.166 764.963 444.657 775.056 470.787 782.5C472.109 782.884 473.274 783.678 474.114 784.769C474.954 785.859 475.425 787.188 475.459 788.564C475.493 789.94 475.088 791.291 474.303 792.422C473.518 793.552 472.394 794.403 471.092 794.852C438.074 806.13 418.194 790.463 403.5 778.889C399.361 775.639 395.713 772.759 392.787 771.407C391.578 770.84 390.574 769.912 389.912 768.752C389.25 767.592 388.963 766.256 389.09 764.926C389.216 763.596 389.751 762.338 390.62 761.324C391.489 760.31 392.65 759.589 393.944 759.259ZM378.092 407.259C376.935 378.213 381.713 353.787 385.139 351.195C396.916 342.287 409.213 340.87 416.046 353.287C424 367.676 426.361 391.935 427.231 409.333C428.565 436.037 429.583 467.954 428.037 489.991C427.574 496.843 418.037 498.324 415.555 491.898C415.12 490.769 410.203 486.833 404.953 482.639C397.222 476.426 388.889 469.787 387.037 463.796C381.342 445.37 378.815 425.167 378.092 407.259Z" fill="#500599"/>
</svg>
