<svg width="1000" height="1000" viewBox="0 0 1000 1000" fill="none" xmlns="http://www.w3.org/2000/svg">
<path d="M748.314 202.778C807.098 251.848 850.027 317.234 871.679 390.682C893.332 464.13 892.739 542.347 869.974 615.458C847.209 688.569 803.294 753.296 743.772 801.469C684.25 849.641 611.79 879.099 535.539 886.123C459.289 893.147 382.667 877.422 315.346 840.934C248.026 804.446 193.025 748.831 157.287 681.109C121.549 613.387 106.676 536.595 114.547 460.427C122.417 384.26 152.678 312.132 201.509 253.148L202.046 252.519C204.657 249.269 208.222 245.195 212.027 240.991C217.583 234.815 222.953 229.232 226.231 225.954L226.296 225.889L226.231 225.824C260.026 192.014 299.821 164.794 343.583 145.556C432.246 106.657 532.219 102.174 624.009 132.982C669.436 148.288 711.597 171.961 748.314 202.778Z" fill="#F5E6F5"/>
<path d="M727.193 228.028C807.258 295.176 854.295 393.88 854.295 499.926C854.295 695.63 695.628 854.305 499.925 854.305C316.693 854.305 163.749 714.63 147.054 531.926C142.771 485.822 147.614 439.325 161.305 395.093C174.997 350.861 197.27 309.76 226.851 274.139C232.351 266.972 243.517 255.13 249.499 249.139C312.133 186.667 395.857 149.865 484.234 145.959C572.611 142.053 659.255 171.325 727.156 228.028M572.277 217.704C572.212 234 575.564 253.315 576.545 270.315L577.138 300.074C577.138 306.713 573.156 324.537 566.73 329.639C564.042 331.77 560.618 332.748 557.209 332.36C553.8 331.971 550.685 330.247 548.545 327.565C545.767 323.814 543.34 319.816 541.295 315.62C536.156 305.435 521.582 306.278 508.471 298.889V298.842C497.286 292.741 494.443 283.268 494.443 283.268C494.165 283.194 493.897 283.12 493.619 283.018C476.388 277.25 467.564 273.324 462.86 269.889C446.758 258.139 457.823 251.083 458.008 235.018C458.156 223.463 453.036 217.741 452.453 212.648C452.051 209.235 453.021 205.802 455.149 203.103C457.278 200.405 460.391 198.663 463.804 198.259C496.566 194.387 529.738 195.841 562.036 202.565C564.983 203.186 567.622 204.814 569.499 207.17C571.376 209.525 572.375 212.461 572.323 215.472C572.304 216.305 572.295 217.049 572.295 217.704H572.277ZM271.758 375.231C273.23 376.259 273.878 376.528 274.128 376.444C276.269 375.714 278.563 375.556 280.784 375.986C283.004 376.416 285.074 377.42 286.786 378.898C289.378 381.091 292.536 382.51 295.897 382.991C299.494 383.496 303.132 383.644 306.758 383.435C312.74 379.194 316.999 377.194 324.61 386.648C331.017 394.602 345.48 403.435 354.619 407.805C356.541 408.641 358.231 409.932 359.542 411.567C360.853 413.202 361.747 415.132 362.145 417.189C362.544 419.247 362.435 421.37 361.829 423.376C361.222 425.383 360.137 427.211 358.665 428.704C356.036 431.407 351.008 437.222 350.897 441.12C350.94 441.99 350.89 442.863 350.749 443.722C354.749 442.398 363.573 442.842 366.74 443.167C382.554 444.75 392.341 451.898 397.582 466.463C403.647 483.324 394.341 492.963 376.962 493.444C361.619 493.861 354.452 482.704 348.684 471.565L344.147 463.37C342.249 460.631 341.485 457.262 342.017 453.972C338.909 455.002 335.526 454.81 332.554 453.435C303.61 440.092 276.295 444.592 256.925 471.028L256.23 472.046C254.982 473.83 253.304 475.271 251.352 476.236C249.399 477.201 247.236 477.658 245.06 477.566C242.884 477.474 240.767 476.835 238.903 475.708C237.04 474.582 235.49 473.004 234.397 471.12C233.991 471.02 233.567 471.015 233.159 471.107C232.751 471.198 232.369 471.384 232.045 471.648C229.48 473.676 225.175 479.639 223.138 482.13C219.434 486.602 216.017 491.037 208.999 490.518C205.571 490.263 202.385 488.656 200.141 486.051C197.898 483.447 196.781 480.058 197.036 476.63C200.337 434.199 212.457 392.924 232.619 355.444C233.696 353.46 235.273 351.792 237.193 350.604C239.113 349.417 241.31 348.751 243.566 348.673C245.822 348.596 248.06 349.109 250.057 350.161C252.054 351.214 253.742 352.77 254.953 354.676C262.11 366.018 267.527 372.278 271.758 375.231ZM309.61 306.898C315.165 315.768 322.425 323.055 325.017 331.778C325.664 334 325.703 336.355 325.132 338.598C324.561 340.841 323.399 342.89 321.768 344.533C320.137 346.175 318.096 347.351 315.857 347.938C313.618 348.525 311.263 348.501 309.036 347.87C307.36 347.389 303.156 346.778 302.073 347.537C301.768 348.363 301.59 349.231 301.545 350.111C300.184 359.824 288.434 364.815 280.554 358.38C279.836 357.911 279.081 357.502 278.295 357.157C269.082 352.731 263.814 345.342 271.517 335.537C276.527 329.157 274.99 314.667 272.999 307.157C270.665 298.37 275.99 294.833 280.554 289.75C286.934 282.63 298.545 283.704 302.462 293.046C304.464 297.85 306.855 302.483 309.61 306.898ZM424.406 632.25C424.258 632.435 424.332 632.333 424.406 632.25V632.25ZM317.925 489.963C344.601 493.75 370.703 495.861 389.017 511.852L389.073 511.917C394.767 516.287 404.545 528.278 410.638 537.398C427.573 562.861 447.221 606.481 423.814 633.046C410.138 648.565 400.175 656.139 391.258 659.704C381.36 663.657 372.962 662.815 364.452 661.13C352.823 659.185 338.573 656.926 315.378 663.537C306.119 666.176 306.721 666.954 305.675 677.38C304.749 686.574 302.814 694.37 296.934 703.787C295.877 705.476 294.446 706.9 292.75 707.946C291.054 708.992 289.139 709.633 287.155 709.82C285.171 710.006 283.171 709.732 281.31 709.02C279.449 708.308 277.777 707.176 276.425 705.713C233.253 658.924 205.919 599.724 198.304 536.518C197.932 533.354 198.738 530.163 200.569 527.555C202.4 524.947 205.127 523.104 208.23 522.38L223.517 518.991C249.749 513.157 248.517 519.917 253.286 518.991C257.582 518.065 264.934 514.935 278.897 507.88C283.708 505.226 288.192 502.019 292.258 498.324C298.99 492.602 301.341 487.555 309.851 488.88C311.693 489.102 314.536 489.509 317.906 489.991L317.925 489.963ZM616.073 328.5C616.212 328.5 616.295 328.5 616.128 328.435L616.073 328.5ZM616.073 328.426C615.665 328.361 615.777 328.426 615.869 328.555L616.156 328.435L616.073 328.426ZM707.841 278.259C712.477 282.617 716.996 287.142 721.397 291.833C731.212 301.935 720.665 317.759 707.971 313.222C699.165 310.111 695.397 309.842 686.934 306.981C680.008 304.648 650.952 294.944 643.323 299.574C641.777 300.5 640.823 301.426 640.675 302.268C640.175 305.046 641.962 307.824 644.193 312.278C655.258 313.361 659.934 327.167 651.601 334.731C645.684 340.111 639.452 347.907 632.323 351.204C627.48 353.444 623.619 353.583 620.536 351.759C618.167 351.174 616.011 349.933 614.316 348.177C612.621 346.422 611.456 344.224 610.955 341.835C610.454 339.447 610.637 336.966 611.484 334.678C612.33 332.389 613.805 330.386 615.74 328.898C612.693 329.907 607.304 330.009 603.962 328.491C600.854 327.057 598.438 324.453 597.243 321.245C596.048 318.038 596.17 314.488 597.582 311.37C601.851 302.009 606.786 291.926 606.665 282.278C606.573 275.148 610.156 273.305 615.165 267.592C620.605 261.387 626.678 255.767 633.286 250.824C636.49 248.546 641.249 248.25 642.091 247.315C642.286 246.907 642.508 246.509 642.749 246.111C644.567 243.199 647.465 241.128 650.808 240.35C654.151 239.572 657.666 240.152 660.582 241.963C677.442 252.518 693.238 264.683 707.749 278.287L707.841 278.259ZM656.36 555.315L659.536 554.574L660.619 554.352C658.888 554.63 688.619 544 702.693 540.722L699.49 529.481C695.11 511.157 661.665 492.315 645.564 484.565C636.558 480.137 627.202 476.461 617.591 473.574C587.536 465.241 591.332 431.444 605.638 415.092C608.749 411.537 612.758 408.991 617.165 408.611C618.202 398.426 610.749 381.407 614.462 373.898C618.656 365.426 624.147 363.713 632.23 367.694C639.008 371.055 637.017 374.731 642.184 377.296C643.314 377.852 646.027 373.639 648.49 369.944C653.314 362.694 659.804 352.018 668.11 350.37C675.804 348.842 682.415 352.88 686.462 366.676C687.712 370.935 691.203 384.842 693.406 397.009C694.767 403.491 697.045 407.426 699.888 409.333C705.823 413.287 715.406 409.889 721.267 406.194C734.258 398.148 744.61 382.824 747.545 367.592C749.897 355.555 766.258 353.268 771.767 364.287C840.554 501.88 795.341 670.518 664.814 755.028C657.786 759.574 654.36 761.37 647.221 765.602C644.474 767.298 641.192 767.908 638.019 767.312C634.845 766.716 632.008 764.957 630.064 762.38C623.378 753.481 617.517 750.204 612.341 741.167C604.777 727.963 608.49 721.639 595.119 715.805C552.314 697.222 563.888 661.778 559.971 649.074C558.24 643.435 549.295 643.704 545.471 634.111C544.126 630.771 544.149 627.036 545.536 623.713C549.564 613.083 563.054 605.268 573.897 604.833C589.443 604.213 599.304 600.13 606.119 594.648C622.786 581.278 624.415 557.287 642.906 557.991L656.36 555.315ZM727.656 272.213C720.675 265.225 713.625 258.744 706.508 252.768C644.834 201.007 565.926 174.375 485.499 178.176C396.61 182.231 312.295 222.444 252.573 293.805C252.36 294.065 252.128 294.315 251.897 294.565C224.992 326.944 204.733 364.308 192.277 404.521C179.821 444.734 175.413 487.008 179.304 528.926C194.462 694.843 333.286 821.796 500.008 821.796C677.786 821.796 821.962 677.648 821.962 499.843C822.026 457.557 813.718 415.678 797.518 376.619C781.318 337.561 757.546 302.095 727.573 272.268L727.656 272.213Z" fill="#500599"/>
</svg>
