<svg width="1000" height="1000" viewBox="0 0 1000 1000" fill="none" xmlns="http://www.w3.org/2000/svg">
<path fill-rule="evenodd" clip-rule="evenodd" d="M172.342 249.722L173.629 249.639L172.907 245.991C169.791 229.783 173.216 213.001 182.433 199.311C191.651 185.621 205.912 176.135 222.102 172.926C230.414 171.417 238.937 171.492 247.222 173.148L249.583 173.62L249.796 170.361C250.444 160.079 253.628 150.118 259.065 141.367C264.502 132.616 272.022 125.348 280.953 120.213C291.507 114.174 303.608 111.385 315.74 112.194C324.435 112.767 332.92 115.121 340.666 119.111L342.583 120.037L343.713 116.731C347.011 106.986 352.673 98.2108 360.194 91.1899C367.714 84.1691 376.857 79.1219 386.805 76.4998C398.524 73.3937 410.899 73.8157 422.379 77.7128C431.044 80.6866 438.976 85.4717 445.648 91.7498L446.305 92.3609L448.352 89.3054C454.094 80.7756 461.859 73.8 470.954 69.0009C480.048 64.2019 490.189 61.7288 500.472 61.8021C510.754 61.8755 520.859 64.493 529.884 69.4213C538.909 74.3496 546.574 81.4352 552.194 90.0461L553.12 91.6202L553.611 92.3517L556.389 89.935C562.517 84.5454 569.646 80.4144 577.37 77.7776C592.582 72.6542 609.186 73.6042 623.714 80.4295C638.243 87.2547 649.574 99.4276 655.342 114.407C655.629 115.083 655.907 115.778 656.148 116.481L656.24 116.75L657.361 120.055L660.611 118.454C675.396 111.184 692.463 110.083 708.06 115.392C723.657 120.702 736.508 131.987 743.787 146.768V146.833C745.603 150.48 747.064 154.294 748.148 158.222C748.911 161.107 749.465 164.044 749.805 167.009C750.094 168.769 750.242 170.55 750.25 172.333L750.333 173.629L754.092 172.879C770.287 169.799 787.042 173.244 800.708 182.464C814.373 191.684 823.84 205.932 827.046 222.102V222.167C827.819 226.277 828.17 230.457 828.092 234.639C828.104 238.864 827.689 243.08 826.852 247.222L826.379 249.592L829.639 249.805C837.793 250.298 845.771 252.396 853.112 255.98C860.454 259.564 867.015 264.563 872.42 270.689C877.824 276.815 881.966 283.949 884.606 291.68C887.246 299.411 888.333 307.588 887.805 315.741C887.233 324.434 884.882 332.918 880.898 340.667L879.972 342.583L883.277 343.713C891.008 346.317 898.15 350.419 904.295 355.784C910.441 361.149 915.469 367.672 919.092 374.981C922.715 382.29 924.863 390.241 925.413 398.38C925.963 406.519 924.904 414.687 922.296 422.417C919.324 431.081 914.546 439.015 908.277 445.694L907.657 446.352L910.713 448.398C924.367 457.578 933.829 471.794 937.027 487.935C940.226 504.075 936.9 520.825 927.777 534.518C923.088 541.551 917.025 547.564 909.953 552.194L908.379 553.12L907.648 553.611L910.065 556.389C916.86 564.066 921.622 573.325 923.916 583.318C926.209 593.311 925.961 603.72 923.194 613.592C919.98 625.423 913.36 636.049 904.157 644.148C898.792 648.873 892.649 652.633 886 655.259C884.793 655.784 883.556 656.239 882.296 656.62L879.926 657.417L881.472 660.546C885.099 667.871 887.246 675.84 887.788 683.996C888.331 692.152 887.259 700.335 884.634 708.076C882.009 715.818 877.882 722.965 872.49 729.108C867.098 735.252 860.547 740.272 853.213 743.879C849.536 745.693 845.69 747.141 841.731 748.204C838.767 748.986 835.75 749.549 832.703 749.889C831.053 750.152 829.384 750.288 827.713 750.296L826.333 750.389L827.055 754.037C828.632 762.063 828.608 770.321 826.984 778.337C825.36 786.354 822.169 793.971 817.592 800.75C816.994 801.64 816.352 802.499 815.666 803.324C806.452 815.651 792.984 824.112 777.879 827.065C773.751 827.848 769.553 828.205 765.352 828.129C761.128 828.13 756.915 827.702 752.777 826.852L750.407 826.37L750.194 829.639C749.702 837.793 747.603 845.771 744.019 853.112C740.435 860.454 735.437 867.015 729.31 872.42C723.184 877.824 716.05 881.966 708.319 884.606C700.588 887.246 692.411 888.334 684.259 887.805C675.565 887.233 667.081 884.882 659.333 880.898L657.416 879.972L656.287 883.287C652.988 893.032 647.326 901.807 639.806 908.828C632.286 915.849 623.142 920.896 613.194 923.518C601.475 926.626 589.098 926.201 577.62 922.296C568.954 919.333 561.021 914.554 554.352 908.278L553.685 907.667L551.639 910.722C542.464 924.381 528.251 933.848 512.112 937.05C495.972 940.252 479.221 936.928 465.527 927.805C458.489 923.119 452.473 917.056 447.842 909.981L446.87 908.407L446.379 907.676L443.602 910.083C437.477 915.469 430.35 919.594 422.629 922.222C410.909 926.139 398.285 926.461 386.379 923.148C374.551 919.928 363.927 913.309 355.824 904.111C351.241 898.898 347.57 892.951 344.963 886.518C344.375 885.246 343.868 883.938 343.444 882.602L343.166 881.676L342.583 879.963L339.481 881.481C331.224 885.517 322.177 887.68 312.987 887.814C303.797 887.949 294.691 886.051 286.32 882.258C277.948 878.465 270.518 872.87 264.559 865.872C258.601 858.874 254.261 850.647 251.852 841.778C250.981 838.497 250.387 835.148 250.074 831.768C249.933 830.702 249.846 829.63 249.814 828.555L249.666 826.37L246.018 827.092C229.811 830.209 213.029 826.784 199.339 817.566C185.648 808.349 176.162 794.087 172.953 777.898C172.182 773.765 171.829 769.565 171.898 765.361C171.884 761.135 172.303 756.918 173.148 752.778L173.62 750.407L170.352 750.194C162.198 749.701 154.221 747.601 146.881 744.017C139.54 740.433 132.98 735.434 127.576 729.307C122.173 723.181 118.032 716.048 115.393 708.317C112.753 700.587 111.666 692.411 112.194 684.259C112.765 675.561 115.12 667.073 119.111 659.324L120.037 657.417L116.722 656.287C108.991 653.683 101.849 649.581 95.7046 644.216C89.5597 638.85 84.5324 632.327 80.9097 625.018C77.287 617.709 75.1401 609.758 74.5915 601.619C74.0429 593.48 75.1035 585.312 77.7126 577.583C80.689 568.93 85.4742 561.011 91.7497 554.352L92.3608 553.694L89.3052 551.648C75.6344 542.47 66.1598 528.246 62.9576 512.095C59.7554 495.943 63.0868 479.181 72.2219 465.481C76.9138 458.45 82.9762 452.439 90.046 447.805L91.62 446.833L92.3515 446.352L89.9348 443.574C83.1505 435.894 78.3985 426.636 76.113 416.647C73.8276 406.658 74.0815 396.255 76.8515 386.389C79.3904 377.007 84.0926 368.352 90.5808 361.116C97.069 353.88 105.163 348.265 114.213 344.722L116 344.009L120.083 342.629L118.518 339.481C114.48 331.224 112.317 322.176 112.182 312.985C112.048 303.794 113.945 294.687 117.74 286.315C121.534 277.943 127.131 270.512 134.131 264.554C141.131 258.597 149.36 254.259 158.231 251.852C161.103 251.086 164.028 250.535 166.981 250.204C168.753 249.906 170.546 249.754 172.342 249.75" fill="#F5E6F5"/>
<path fill-rule="evenodd" clip-rule="evenodd" d="M237.036 765.87C237.036 765.981 237.036 766.046 237.036 765.87V765.87ZM765.869 762.963C765.98 762.963 766.045 762.963 765.869 762.963V762.963ZM215.267 312.342L178.999 314.722L194.601 346.38C204.11 364.833 195.166 386.065 176.508 392.389L141.971 404.12L165.536 430.972C178.888 445.852 176.249 468.648 159.74 479.694L129.342 500L159.74 520.37C163.554 522.931 166.78 526.274 169.202 530.179C171.624 534.083 173.186 538.458 173.786 543.013C174.385 547.568 174.007 552.199 172.677 556.597C171.347 560.995 169.096 565.059 166.073 568.518L141.999 596.009L176.536 607.741C180.892 609.227 184.882 611.625 188.24 614.773C191.597 617.922 194.246 621.75 196.008 626.003C197.771 630.255 198.607 634.834 198.462 639.435C198.317 644.035 197.193 648.552 195.166 652.685L179.036 685.389L213.943 687.685C215.809 687.719 217.668 687.917 219.499 688.278C227.921 689.928 235.344 694.852 240.14 701.969C244.936 709.086 246.714 717.815 245.082 726.241L237.962 762.102L273.842 754.972C278.36 754.099 283.012 754.198 287.489 755.262C291.966 756.327 296.165 758.333 299.806 761.146C303.447 763.96 306.448 767.517 308.608 771.58C310.768 775.644 312.037 780.121 312.332 784.713L314.712 820.981L346.369 805.38C364.823 795.87 386.054 804.815 392.388 823.472L404.11 858.009L430.962 834.444C445.842 821.092 468.638 823.731 479.684 840.241L499.999 870.657L520.369 840.259C522.936 836.452 526.282 833.233 530.186 830.816C534.09 828.4 538.464 826.84 543.016 826.241C547.569 825.643 552.196 826.018 556.593 827.343C560.989 828.667 565.054 830.911 568.517 833.926L596.008 858L607.73 823.463C609.217 819.106 611.614 815.117 614.763 811.759C617.912 808.401 621.74 805.753 625.992 803.991C630.245 802.228 634.824 801.392 639.424 801.537C644.025 801.682 648.542 802.806 652.675 804.833L685.379 820.963L687.675 786.055C687.773 781.333 688.902 776.69 690.983 772.45C693.064 768.21 696.047 764.476 699.722 761.51C703.398 758.543 707.677 756.416 712.261 755.278C716.845 754.139 721.622 754.015 726.258 754.917L762.138 762.046L755.008 726.167C754.135 721.648 754.234 716.996 755.298 712.519C756.363 708.042 758.369 703.843 761.183 700.202C763.996 696.561 767.553 693.56 771.616 691.4C775.68 689.24 780.157 687.971 784.749 687.676L821.027 685.296L805.406 653.704C795.888 635.241 804.842 614.009 823.499 607.676L858.027 595.954L834.462 569.102C821.11 554.222 823.749 531.426 840.258 520.38L870.656 500L840.258 479.63C836.443 477.069 833.218 473.725 830.796 469.821C828.374 465.917 826.811 461.542 826.212 456.987C825.613 452.431 825.991 447.801 827.321 443.403C828.651 439.005 830.902 434.941 833.925 431.481L857.999 403.991L823.453 392.259C819.097 390.772 815.108 388.374 811.752 385.224C808.395 382.075 805.748 378.247 803.986 373.995C802.225 369.742 801.389 365.164 801.535 360.564C801.681 355.963 802.805 351.447 804.832 347.315L820.953 314.611L786.11 312.361C781.388 312.263 776.744 311.134 772.504 309.053C768.265 306.972 764.531 303.989 761.564 300.314C758.598 296.638 756.471 292.359 755.332 287.775C754.193 283.191 754.07 278.414 754.971 273.778L762.101 237.898L726.221 245.028C721.703 245.901 717.051 245.802 712.574 244.737C708.097 243.673 703.898 241.667 700.257 238.853C696.615 236.04 693.615 232.483 691.455 228.419C689.295 224.356 688.025 219.879 687.73 215.287L685.351 179.018L653.703 194.592C635.24 204.111 614.008 195.157 607.684 176.509L595.953 141.972L569.101 165.537C554.221 178.889 531.425 176.25 520.379 159.741L499.999 129.342L479.629 159.741C477.062 163.548 473.716 166.767 469.812 169.184C465.908 171.6 461.534 173.16 456.982 173.758C452.429 174.357 447.802 173.982 443.405 172.657C439.009 171.332 434.944 169.088 431.48 166.074L403.99 142L392.258 176.546C390.771 180.901 388.373 184.888 385.224 188.244C382.075 191.6 378.248 194.246 373.997 196.008C369.746 197.769 365.169 198.605 360.569 198.46C355.97 198.315 351.455 197.193 347.323 195.167L314.61 179.046L312.36 213.889C312.331 215.755 312.132 217.614 311.767 219.444C310.117 227.866 305.193 235.29 298.076 240.086C290.959 244.882 282.23 246.659 273.804 245.028L237.897 237.963L245.027 273.842C245.896 278.36 245.793 283.011 244.725 287.486C243.657 291.96 241.649 296.157 238.834 299.795C236.019 303.434 232.461 306.431 228.398 308.588C224.335 310.745 219.858 312.012 215.267 312.305V312.342ZM740.017 556.231C750.073 543.185 771.295 553.12 767.055 569.657C760.573 594.944 748.017 623.018 734.314 645.259C710.082 684.619 676.777 717.604 637.184 741.454C625.471 748.509 611.027 737.833 614.305 724.583C615.285 720.613 617.799 717.194 621.295 715.074C678.32 680.773 719.895 625.774 737.342 561.555C737.874 559.61 738.783 557.789 740.017 556.194V556.231ZM581.823 735.861C595.545 736.555 601.462 753.407 591.406 762.555C588.23 765.444 582.527 766.981 578.517 768.315L556.36 774.629C543.147 777.833 532.545 763.37 539.693 751.713C543.638 745.231 549.203 744.917 555.684 743.111L575.962 736.722C577.838 736.045 579.83 735.743 581.823 735.833V735.861ZM172.434 282.694L213.249 280.009L205.23 239.676C204.303 234.903 204.576 229.974 206.026 225.333C207.475 220.691 210.055 216.483 213.534 213.086C217.013 209.689 221.281 207.21 225.956 205.871C230.63 204.532 235.564 204.376 240.314 205.417L279.98 213.296L282.666 172.472C283.999 151.731 306.036 138.213 325.869 148.518L361.675 166.167L374.869 127.278C381.425 107.944 406.129 99.8888 423.23 115.805L452.86 141.731L475.703 107.565C478.407 103.527 482.073 100.226 486.371 97.9591C490.67 95.6919 495.464 94.5298 500.323 94.5776C505.183 94.6254 509.953 95.8815 514.206 98.2327C518.459 100.584 522.06 103.956 524.684 108.046L547.193 141.731L578.101 114.639C593.943 100.75 618.545 107.87 625.11 127.268L638.295 166.102L675.082 147.972C679.411 145.837 684.201 144.804 689.025 144.965C693.849 145.126 698.559 146.476 702.736 148.894C706.913 151.312 710.428 154.725 712.97 158.828C715.511 162.932 717 167.599 717.305 172.417L719.99 213.231L760.323 205.213C765.095 204.29 770.022 204.567 774.661 206.018C779.3 207.469 783.506 210.049 786.902 213.527C790.298 217.005 792.777 221.271 794.118 225.943C795.458 230.615 795.618 235.547 794.582 240.296L786.693 279.963L827.517 282.648C848.258 283.981 861.777 306.018 851.471 325.852L833.823 361.657L872.666 374.852C891.999 381.407 900.055 406.111 884.138 423.213L858.212 452.842L892.379 475.676C896.416 478.381 899.717 482.049 901.984 486.347C904.251 490.646 905.413 495.441 905.365 500.301C905.317 505.161 904.061 509.932 901.71 514.186C899.359 518.439 895.987 522.041 891.897 524.667L858.24 547.148L885.332 578.055C899.221 593.898 892.101 618.5 872.703 625.065L833.869 638.25L851.999 675.037C854.134 679.366 855.167 684.155 855.006 688.979C854.845 693.803 853.496 698.513 851.077 702.69C848.659 706.868 845.246 710.383 841.143 712.924C837.039 715.466 832.372 716.955 827.555 717.259L786.74 719.944L794.758 760.278C795.686 765.051 795.412 769.979 793.963 774.621C792.513 779.262 789.933 783.47 786.455 786.868C782.976 790.265 778.707 792.744 774.033 794.083C769.358 795.421 764.425 795.577 759.675 794.537L720.008 786.657L717.323 827.481C715.999 848.222 693.953 861.741 674.119 851.435L638.314 833.787L625.129 872.63C618.564 891.963 593.86 900.018 576.758 884.092L547.221 858.241L524.351 892.407C521.645 896.445 517.978 899.745 513.679 902.013C509.38 904.28 504.585 905.442 499.725 905.394C494.866 905.346 490.094 904.09 485.841 901.739C481.587 899.388 477.986 896.016 475.36 891.926L452.851 858.25L421.943 885.333C406.101 899.222 381.499 892.102 374.934 872.704L361.749 833.87L324.962 852C320.633 854.135 315.844 855.168 311.02 855.007C306.195 854.846 301.486 853.496 297.308 851.078C293.131 848.66 289.616 845.247 287.074 841.144C284.533 837.04 283.044 832.373 282.74 827.555L280.054 786.741L239.73 794.759C234.957 795.687 230.029 795.413 225.387 793.964C220.746 792.514 216.538 789.934 213.141 786.456C209.743 782.977 207.264 778.708 205.925 774.034C204.587 769.359 204.431 764.426 205.471 759.676L213.351 720.009L172.527 717.324C151.786 715.991 138.267 693.954 148.573 674.12L166.221 638.315L127.332 625.13C107.999 618.565 99.9433 593.861 115.86 576.759L141.786 547.176L107.591 524.352C103.554 521.646 100.253 517.979 97.9862 513.68C95.7192 509.381 94.5572 504.586 94.6049 499.726C94.6527 494.867 95.9087 490.095 98.2598 485.842C100.611 481.588 103.983 477.987 108.073 475.361L141.758 452.852L114.666 421.944C100.777 406.102 107.897 381.5 127.295 374.935L166.129 361.75L147.999 324.963C145.864 320.634 144.831 315.845 144.992 311.021C145.153 306.196 146.502 301.487 148.921 297.309C151.339 293.132 154.752 289.617 158.855 287.075C162.959 284.534 167.626 283.045 172.443 282.741L172.434 282.694Z" fill="#500599"/>
</svg>
