<svg width="1000" height="1000" viewBox="0 0 1000 1000" fill="none" xmlns="http://www.w3.org/2000/svg">
<path d="M748.395 202.843C757.654 210.614 766.176 218.395 773.96 226.185C844.858 297.074 882.71 389.408 886.812 483.176C890.914 576.945 861.247 671.982 797.09 748.472C789.516 757.516 781.781 765.985 773.886 773.88C705.726 842.053 614.585 882.346 518.29 886.879C421.995 891.412 327.472 859.858 253.21 798.389C252.58 797.871 251.978 797.334 251.358 796.769L251.284 796.852C172.816 731.213 123.534 637.171 114.218 535.294C104.902 433.416 136.309 331.996 201.571 253.213L202.099 252.593C204.71 249.343 208.284 245.269 212.08 241.065C218.562 233.926 223.691 228.491 226.284 225.898C260.079 192.084 299.878 164.863 343.645 145.63C432.305 106.719 532.28 102.229 624.071 133.037C669.495 148.353 711.655 172.029 748.377 202.843" fill="#F5E6F5"/>
<path d="M727.275 228.093C887.229 362.241 897.414 603.704 750.571 750.565C688.206 812.926 604.826 849.785 516.729 853.938C428.633 858.09 342.155 829.237 274.201 773.019L272.423 771.602C200.708 711.494 155.679 625.46 147.161 532.275C138.644 439.089 167.33 346.318 226.96 274.204C232.469 267.028 243.627 255.195 249.617 249.204C312.251 186.732 395.977 149.93 484.354 146.026C572.731 142.122 659.376 171.396 727.275 228.102M412.275 625.204C387.951 634.204 368.053 638.056 362.275 632.232C354.969 624.824 351.636 617.861 351.228 611.361C350.691 602.908 354.488 596.491 361.034 591.648C375.349 581.056 399.33 575.398 417.793 572C445.182 566.973 475.673 561.898 498.469 560.491C512.127 559.695 517.497 578.139 505.414 584.732C480.108 598.565 436.812 616.121 412.275 625.204ZM325.367 696.852C336.476 693.316 347.794 690.477 359.256 688.352C365.914 687.223 371.293 687.852 374.858 690.797C397.691 709.528 403.053 741.463 399.756 769.5C399.532 771.496 398.845 773.412 397.75 775.095C396.655 776.778 395.181 778.182 393.448 779.196C391.714 780.209 389.768 780.804 387.764 780.932C385.76 781.061 383.753 780.719 381.904 779.936C358.472 770.081 336.382 757.297 316.164 741.889C310.293 737.426 304.429 732.593 298.571 727.389C290.117 720.417 292.849 708.315 301.988 704.954C309.691 702.056 317.59 699.297 325.367 696.852ZM431.765 777.778C451.821 748.315 488.988 711.787 502.923 682.139C519.117 647.713 546.08 611.241 585.182 611.111C613.516 611.019 638.886 630.778 651.941 654.898C655.951 662.306 654.654 672.139 649.247 683.482C637.904 707.25 611.154 737.667 590.034 758.26C575.301 772.622 559.734 786.102 543.414 798.63C541.465 800.292 539.068 801.339 536.525 801.639C511.186 804.635 485.572 804.467 460.275 801.139C453.812 800.287 447.306 799.213 440.756 797.917C438.566 797.623 436.488 796.773 434.718 795.45C432.949 794.126 431.547 792.372 430.646 790.354C429.746 788.336 429.376 786.122 429.571 783.921C429.767 781.72 430.523 779.605 431.765 777.778ZM764.247 545.473C769.289 541.409 773.781 536.706 777.608 531.482C779.281 529.131 781.69 527.406 784.454 526.579C787.219 525.752 790.179 525.871 792.868 526.917C795.557 527.962 797.82 529.875 799.3 532.353C800.779 534.83 801.389 537.73 801.034 540.593C798.087 562.498 792.772 584.019 785.182 604.778C779.35 620.655 772.195 636.015 763.793 650.695C762.605 653.139 760.678 655.148 758.286 656.438C755.893 657.728 753.156 658.233 750.46 657.882C747.765 657.53 745.248 656.341 743.266 654.481C741.284 652.622 739.936 650.186 739.414 647.519L738.451 644.445C723.506 631 715.923 619.797 713.228 610.028C709.775 597.473 713.516 587.935 720.83 579.806C731.386 568.037 751.849 555.898 764.247 545.473ZM609.164 411.324C586.349 367.519 703.404 340.028 726.978 470.787C729.627 485.473 731.312 495.037 732.219 500.51C734.682 515.324 731.108 522.584 722.96 524.065C715.053 525.491 704.08 517.121 691.617 503.908C671.849 482.945 637.914 441.056 618.608 423.102C614.813 419.742 611.619 415.759 609.164 411.324ZM707.247 330.704C702.043 320.047 697.349 308.861 693.414 298.824C688.367 285.861 704.71 275.121 714.58 284.936C734.032 304.341 750.767 326.29 764.33 350.186L771.293 363.315C772.476 366.526 772.341 370.073 770.919 373.185C769.497 376.297 766.902 378.72 763.701 379.926C747.784 385.88 734.543 374.047 725.256 361.408C718.654 352.454 712.617 341.713 707.247 330.704ZM616.377 285.787C593.543 308.834 577.108 291.343 562.673 269.121C554.543 256.547 543.09 235.584 533.849 218.982C532.691 216.866 532.146 214.469 532.276 212.061C532.406 209.652 533.205 207.328 534.584 205.349C535.963 203.37 537.866 201.815 540.08 200.859C542.294 199.902 544.731 199.583 547.117 199.935C578.716 204.857 609.34 214.734 637.858 229.204C639.423 230.004 640.81 231.113 641.933 232.465C643.056 233.817 643.892 235.384 644.391 237.069C644.89 238.754 645.041 240.523 644.835 242.269C644.628 244.014 644.069 245.7 643.191 247.223C632.404 265.935 623.71 278.389 616.377 285.787ZM479.034 305.121C515.525 308.01 561.025 332.565 540.978 376.611C537.803 383.584 532.932 391.139 526.034 399.278C517.645 409.185 520.377 429.574 523.164 449.278L525.923 472.223C526.534 480.861 525.858 488.204 522.664 493.121C517.691 500.75 508.83 502.704 493.728 495.815C485.395 491.991 472.96 484.834 455.025 473.167C409.497 443.537 403.238 398.463 423.914 351.111C429.249 339.108 435.875 327.72 443.673 317.148C446.895 312.778 449.997 309.824 452.182 308.815C458.988 305.491 468.59 304.287 479.034 305.121ZM367.59 254.861C374.664 317.936 314.386 340.556 262.812 346.435C260.349 346.694 257.863 346.241 255.649 345.131C253.435 344.021 251.586 342.3 250.32 340.171C249.053 338.043 248.423 335.596 248.504 333.121C248.585 330.646 249.373 328.245 250.775 326.204C274.328 292.501 304.457 263.912 339.349 242.158C341.877 240.574 347.59 236.667 351.034 235.991C354.407 235.336 357.902 236.047 360.751 237.967C363.6 239.887 365.57 242.86 366.228 246.232C366.809 249.102 367.262 251.979 367.59 254.861ZM358.525 521.297C360.377 530.704 357.256 535.25 347.821 537.121L339.488 537.528V537.473C329.969 537.334 316.386 537.121 298.608 546.658C293.321 549.491 295.099 560.019 297.414 572.889C297.525 573.322 297.611 573.761 297.673 574.204C300.58 590.343 304.877 610.778 293.043 624.204C287.127 630.889 277.951 635.213 263.803 635.389C250.84 635.556 241.497 629.574 235.275 619.343C222.312 598.047 227.043 560.843 233.136 535.454C240.367 505.324 255.441 468.139 274.015 445.176C292.59 422.213 317.025 413.389 334.08 445.315C339.904 456.213 345.33 472.769 350.006 496.297C353.506 514.139 357.404 515.685 358.525 521.297ZM727.654 272.334C720.673 265.34 713.624 258.858 706.506 252.889C644.83 201.126 565.917 174.497 485.488 178.306C396.599 182.361 312.293 222.565 252.571 293.936C252.349 294.195 252.127 294.445 251.895 294.686C197.562 360.348 171.479 444.874 179.364 529.736C187.249 614.597 228.459 692.871 293.96 747.398C294.219 747.611 294.469 747.843 294.71 748.074C356.277 799.15 434.7 825.392 514.608 821.658C686.59 813.834 822.016 671.963 822.016 499.973C822.057 457.684 813.742 415.803 797.549 376.738C781.355 337.672 757.602 302.191 727.654 272.334Z" fill="#500599"/>
</svg>
