<svg width="1000" height="1000" viewBox="0 0 1000 1000" fill="none" xmlns="http://www.w3.org/2000/svg">
<path d="M521.35 148.75L601.906 263.565L728.757 222.352C729.875 221.852 731.018 221.413 732.183 221.037C747.292 216.178 763.315 214.854 779.017 217.167C799.227 220.159 818.171 228.828 833.646 242.167C851.041 257.119 863.355 277.111 868.883 299.373C874.411 321.635 872.878 345.065 864.498 366.417C861.427 374.294 857.436 381.781 852.609 388.723L771.572 504.111L855.433 622.63C864.926 636.074 871.304 651.466 874.102 667.684C876.9 683.903 876.048 700.541 871.609 716.389C867.331 732.234 859.396 746.854 848.441 759.076C837.487 771.297 823.819 780.779 808.535 786.76C800.003 790.096 791.062 792.276 781.952 793.241C768.309 794.661 754.52 793.469 741.322 789.732C737.177 788.537 733.108 787.093 729.137 785.408L604.822 741.667L525.554 855.343C515.252 870.477 501.093 882.581 484.541 890.404C467.989 898.226 449.647 901.482 431.415 899.834C412.539 898.184 394.43 891.596 378.906 880.732C363.898 870.268 351.764 856.197 343.619 839.815C339.811 832.149 336.897 824.072 334.933 815.741C333.209 808.361 332.277 800.819 332.156 793.241C332.1 792.593 332.054 791.935 332.044 791.269L330.831 646.13L197.628 599.834C181.477 594.226 166.898 584.846 155.1 572.473C141.081 557.648 131.365 539.286 126.993 519.356C122.621 499.427 123.759 478.683 130.285 459.352C135.281 444.807 143.403 431.533 154.079 420.464C164.755 409.394 177.727 400.797 192.081 395.278C196.308 393.631 200.638 392.264 205.044 391.185L328.1 351.852L326.47 208.473C326.144 189.798 330.641 171.355 339.526 154.926C348.459 138.459 361.605 124.659 377.618 114.935C393.335 105.422 411.281 100.216 429.649 99.8442C448.017 99.472 466.159 103.946 482.248 112.815C497.378 121.072 510.361 132.761 520.156 146.945C520.572 147.547 520.961 148.158 521.331 148.797" fill="#F5E6F5"/>
<path d="M397.222 790.741C397.222 791.204 397.222 790.954 397.222 790.667V790.741ZM569.351 330.639L466.407 183.972C453.897 165.917 430.629 159.167 411.407 170.842C398.666 178.565 391.49 192.185 391.666 207.574L393.703 387.204C393.746 390.656 392.681 394.032 390.665 396.835C388.648 399.638 385.787 401.721 382.499 402.778L222.666 453.944C217.972 455.639 216.36 455.333 210.814 458.361C178.731 475.954 184.129 526.037 219.055 538.185L384.796 595.796C387.979 596.87 390.749 598.908 392.721 601.628C394.694 604.347 395.772 607.613 395.805 610.972L397.314 790.231C397.212 812.454 413.685 832.824 436.74 834.787C443.607 835.392 450.512 834.16 456.747 831.219C462.981 828.277 468.322 823.731 472.222 818.046L572.546 674.176C574.533 671.197 577.455 668.964 580.852 667.829C584.248 666.694 587.926 666.721 591.305 667.907L752.416 724.62C757.138 726.176 758.147 727.287 764.333 728.25C786.712 731.722 806.749 715.833 810.009 693.13C811.669 681.558 808.829 669.79 802.073 660.25L698.536 513.889C696.493 511.155 695.366 507.846 695.316 504.434C695.266 501.021 696.296 497.681 698.259 494.889L799.185 351.194C818.036 324.342 800.805 286.167 769.86 281.685C763.938 280.884 757.911 281.448 752.24 283.333V283.268L588.351 336.528C584.981 337.804 581.281 337.918 577.838 336.851C574.396 335.784 571.409 333.598 569.351 330.639ZM692.666 581.991C689.463 582.595 686.152 582.238 683.15 580.967C680.149 579.695 677.59 577.564 675.796 574.842L665.61 559.426C657.592 547.241 668.388 531.296 682.712 534.259C686.986 535.147 690.732 537.695 693.129 541.342L703.314 556.759C704.796 559.023 705.698 561.616 705.942 564.311C706.185 567.005 705.762 569.718 704.71 572.211C703.658 574.704 702.01 576.899 699.909 578.605C697.809 580.31 695.322 581.473 692.666 581.991ZM754.296 684.815L705.435 615.741C704.188 613.97 703.303 611.97 702.829 609.857C702.355 607.744 702.303 605.558 702.674 603.425C703.045 601.291 703.832 599.251 704.991 597.422C706.151 595.593 707.659 594.01 709.43 592.764C711.201 591.517 713.2 590.632 715.313 590.158C717.426 589.685 719.612 589.632 721.746 590.003C723.879 590.374 725.919 591.161 727.748 592.321C729.577 593.48 731.16 594.988 732.407 596.759L781.268 665.824C783.786 669.398 784.781 673.827 784.035 678.135C783.288 682.443 780.861 686.278 777.286 688.796C773.712 691.315 769.284 692.31 764.976 691.563C760.668 690.816 756.832 688.389 754.314 684.815H754.296ZM493.629 166.481L588.999 302.342L742.351 252.509V252.444C794.055 235.778 846.647 281.379 838.573 337.213C836.888 348.931 832.49 360.095 825.731 369.815L731.296 504.176L828.518 641.667C856.481 681.204 842.064 738.176 796.509 756.13C784.737 760.728 771.955 762.115 759.472 760.148C753.345 759.197 747.362 757.477 741.666 755.028L592.185 702.426L498.666 836.537C466.259 882.926 397.981 874.981 373.148 825.204C367.769 814.449 364.973 802.589 364.981 790.565H364.935L363.518 622.676L208.425 568.75C155.546 550.361 139.277 480.139 180.138 441.074C184.685 436.726 189.781 432.991 195.296 429.963C200.801 426.943 206.682 424.667 212.786 423.194L361.259 375.694L359.351 207.991C358.685 150.648 417.527 114.991 466.555 141.657C477.126 147.436 486.196 155.611 493.036 165.528C493.24 165.852 493.444 166.167 493.629 166.481Z" fill="#500599"/>
</svg>
