<svg width="1000" height="1000" viewBox="0 0 1000 1000" fill="none" xmlns="http://www.w3.org/2000/svg">
<path fill-rule="evenodd" clip-rule="evenodd" d="M830.296 250.269C828.171 259.811 822.856 268.344 815.229 274.459C807.602 280.574 798.118 283.907 788.342 283.907C778.566 283.907 769.082 280.574 761.455 274.459C753.828 268.344 748.514 259.811 746.388 250.269C736.849 248.139 728.319 242.823 722.206 235.195C716.094 227.568 712.763 218.085 712.763 208.31C712.763 198.536 716.094 189.053 722.206 181.426C728.319 173.798 736.849 168.481 746.388 166.352C748.521 156.819 753.838 148.297 761.463 142.19C769.087 136.083 778.564 132.755 788.333 132.755C798.102 132.755 807.579 136.083 815.203 142.19C822.828 148.297 828.145 156.819 830.277 166.352C839.82 168.477 848.352 173.792 854.468 181.419C860.583 189.046 863.916 198.53 863.916 208.306C863.916 218.082 860.583 227.566 854.468 235.193C848.352 242.82 839.82 248.134 830.277 250.26M612.296 202.945C670.783 230.333 721.109 272.512 758.297 325.312C795.485 378.113 818.247 439.706 824.333 504C825.202 493.042 829.961 482.757 837.75 475L837.685 474.935C841.955 470.661 847.024 467.27 852.605 464.956C858.185 462.641 864.167 461.448 870.208 461.445C876.25 461.442 882.232 462.629 887.815 464.938C893.398 467.247 898.471 470.633 902.745 474.903C907.019 479.173 910.41 484.243 912.725 489.823C915.04 495.403 916.233 501.385 916.236 507.426C916.239 513.468 915.052 519.451 912.742 525.033C910.433 530.616 907.047 535.689 902.777 539.963C901.736 541.006 900.626 541.978 899.453 542.871C893.417 547.869 886.203 551.241 878.496 552.665C870.79 554.088 862.847 553.517 855.423 551.005C848 548.493 841.342 544.124 836.083 538.313C830.825 532.502 827.14 525.443 825.379 517.806C825.5 519.926 825.611 522.056 825.694 524.176C829.537 616.924 798.396 707.731 738.444 778.602C737.907 779.297 737.333 779.973 736.722 780.639C734.922 782.591 732.975 784.402 730.898 786.056L730.833 785.982C724.726 790.892 717.559 794.309 709.9 795.963C702.24 797.617 694.301 797.462 686.713 795.51C685.12 808.25 679.981 821.38 674.083 831.195C665.861 844.88 660.833 848.398 650.796 854.445C650.24 854.824 649.676 855.185 649.092 855.547L647.148 856.723L647.083 856.621C596.844 887.073 540.091 905.159 481.496 909.389C422.901 913.62 364.138 903.874 310.046 880.954C307.026 890.232 301.159 898.323 293.279 904.078C285.398 909.832 275.905 912.957 266.148 913.01C260.082 912.974 254.083 911.747 248.49 909.398C242.827 907.065 237.678 903.642 233.333 899.324L233.268 899.398C226.353 892.545 221.83 883.645 220.37 874.019C217.302 876.78 213.735 878.93 209.861 880.352C208.324 884.51 205.685 888.843 200.703 893.824L200.639 893.898L200.703 893.963C193.487 901.179 183.776 905.349 173.574 905.611C168.064 905.829 162.569 904.903 157.436 902.89C152.303 900.877 147.643 897.822 143.75 893.917C139.868 890.046 136.837 885.407 134.851 880.297C124.185 876.38 116.759 868.26 112.629 858.621C110.437 853.607 109.305 848.194 109.305 842.723C109.305 837.251 110.437 831.838 112.629 826.824C116.713 817.176 124.111 809.056 134.74 805.111C138.666 794.528 146.731 787.148 156.342 783.047V783C161.363 780.855 166.762 779.734 172.222 779.704C115.858 713.408 84.5729 629.419 83.8299 542.404C83.087 455.39 112.933 370.879 168.157 303.63C168.657 302.926 169.185 302.241 169.75 301.565L170.398 300.806C213.34 249.455 269.422 210.73 332.657 188.769C327.913 186.232 323.567 183.013 319.759 179.213L319.694 179.278C309.561 169.144 303.869 155.4 303.869 141.07C303.869 126.739 309.561 112.995 319.694 102.861C320.644 101.911 321.652 101.02 322.713 100.195C333.01 91.2615 346.314 86.5686 359.937 87.0636C373.561 87.5586 386.489 93.2045 396.111 102.861C397.062 103.814 397.955 104.822 398.787 105.88C406.908 115.255 411.544 127.146 411.912 139.544C412.28 151.942 408.357 164.086 400.805 173.926C418.842 172.371 435.833 173.204 448.203 183.898C454.31 177.207 462.371 172.613 471.24 170.769C476.389 169.624 481.668 169.179 486.935 169.445L488.351 169.537C531.299 173.357 573.246 184.664 612.296 202.945Z" fill="#F5E6F5"/>
<path fill-rule="evenodd" clip-rule="evenodd" d="M379.804 209.38C307.732 225.68 243.02 265.226 195.637 321.926C74.8871 465.908 95.2204 679.63 238.424 799.074C351.443 893.287 509.257 901.852 630.146 828.51C637.961 823.769 640.998 822.445 645.887 814.315C653.507 801.63 659.109 781.334 648.47 772.797C642.915 768.371 636.961 770.306 630.313 770.88L605.22 771.889C443.322 771.889 311.915 640.491 311.915 478.593C311.901 433.881 322.112 389.758 341.766 349.597C361.42 309.437 389.997 274.302 425.313 246.88C429.017 244 431.554 242.871 433.294 238.315C434.063 236.347 434.342 234.221 434.109 232.121C430.517 199.556 403.637 206.815 379.804 209.38ZM357.896 119.973C362.063 119.971 366.137 121.205 369.602 123.518C373.067 125.832 375.768 129.121 377.364 132.97C378.96 136.819 379.379 141.055 378.567 145.141C377.755 149.228 375.75 152.982 372.804 155.929C369.858 158.876 366.105 160.883 362.019 161.697C357.932 162.51 353.696 162.094 349.847 160.5C345.997 158.906 342.706 156.206 340.391 152.741C338.076 149.277 336.841 145.204 336.841 141.037C336.841 135.452 339.059 130.096 343.007 126.146C346.956 122.196 352.311 119.975 357.896 119.973ZM870.211 494.445C872.791 494.443 875.313 495.207 877.458 496.641C879.603 498.074 881.274 500.112 882.26 502.496C883.245 504.88 883.501 507.503 882.994 510.033C882.487 512.562 881.241 514.884 879.413 516.704C877.584 518.525 875.257 519.761 872.725 520.257C870.194 520.753 867.572 520.487 865.192 519.491C862.812 518.495 860.781 516.815 859.357 514.664C857.933 512.513 857.18 509.988 857.193 507.408C857.21 503.965 858.589 500.67 861.028 498.241C863.467 495.812 866.769 494.447 870.211 494.445ZM266.007 853.704C277.711 853.704 283.6 867.926 275.331 876.213C267.063 884.5 252.822 878.593 252.822 866.889C252.815 865.153 253.151 863.433 253.81 861.826C254.469 860.22 255.439 858.76 256.664 857.53C257.889 856.3 259.345 855.324 260.949 854.658C262.552 853.991 264.271 853.649 266.007 853.649V853.704ZM805.359 225.399C801.123 229.602 798.655 235.267 798.461 241.232C798.35 243.841 797.234 246.306 795.349 248.113C793.463 249.92 790.952 250.929 788.341 250.929C785.729 250.929 783.219 249.92 781.333 248.113C779.447 246.306 778.332 243.841 778.22 241.232C778.007 235.269 775.542 229.608 771.323 225.389C767.104 221.17 761.443 218.705 755.48 218.491C752.87 218.38 750.405 217.264 748.598 215.379C746.792 213.493 745.783 210.982 745.783 208.371C745.783 205.759 746.792 203.249 748.598 201.363C750.405 199.477 752.87 198.362 755.48 198.25C761.441 198.032 767.1 195.566 771.318 191.348C775.536 187.13 778.002 181.471 778.22 175.51C778.332 172.901 779.447 170.435 781.333 168.628C783.219 166.822 785.729 165.813 788.341 165.813C790.952 165.813 793.463 166.822 795.349 168.628C797.234 170.435 798.35 172.901 798.461 175.51C798.677 181.472 801.142 187.132 805.361 191.35C809.58 195.569 815.24 198.034 821.202 198.25C823.811 198.362 826.276 199.477 828.083 201.363C829.89 203.249 830.899 205.759 830.899 208.371C830.899 210.982 829.89 213.493 828.083 215.379C826.276 217.264 823.811 218.38 821.202 218.491C815.242 218.68 809.578 221.13 805.359 225.343V225.399ZM184.313 854.732C177.452 861.602 181.396 866.649 177.396 870.649C176.392 871.645 175.119 872.327 173.733 872.611C172.347 872.895 170.908 872.769 169.593 872.248C168.277 871.728 167.142 870.835 166.326 869.679C165.51 868.523 165.049 867.155 164.998 865.741C164.836 861.618 163.125 857.708 160.208 854.791C157.29 851.873 153.38 850.163 149.257 850C139.998 849.704 139.998 835.769 149.257 835.482C153.389 835.319 157.307 833.601 160.226 830.671C163.145 827.742 164.85 823.818 164.998 819.686C165.294 810.426 179.22 810.426 179.517 819.686C179.668 823.827 181.381 827.757 184.311 830.687C187.242 833.617 191.172 835.33 195.313 835.482C196.709 835.528 198.062 835.976 199.21 836.771C200.358 837.566 201.252 838.675 201.787 839.966C202.321 841.256 202.472 842.673 202.222 844.047C201.973 845.421 201.332 846.694 200.378 847.713C196.378 851.917 191.267 847.787 184.313 854.732ZM605.211 700.676C598.239 700.676 600.813 700.676 605.211 700.676V700.676ZM605.211 700.676L613.646 700.602L605.211 700.658M694.072 300C638.231 243.888 564.372 209.293 485.517 202.315C473.128 201.76 468.239 207.198 470.85 218.63C473.933 230.362 474.035 240.639 469.628 252.149C464.998 264.278 458.276 270.519 449.174 277.593C328.544 371.491 316.767 549.88 425.322 658.482C475.415 708.584 541.73 734.667 613.285 732.973L634.452 731.399C641.263 730.645 648.155 731.246 654.732 733.167C661.31 735.089 667.442 738.292 672.776 742.593C677.696 746.854 681.953 751.825 685.406 757.343C686.982 759.399 688.993 761.081 691.296 762.27C693.598 763.458 696.134 764.124 698.723 764.218C701.312 764.313 703.891 763.835 706.273 762.817C708.656 761.8 710.785 760.269 712.507 758.334C825.841 625.454 819.693 425.621 694.072 300ZM671.146 322.926C625.128 276.908 567.878 247.676 505.276 237.352C503.98 264.25 491.156 286.426 470.091 302.362C469.739 302.621 469.396 302.871 469.035 303.112L469.091 303.176C442.278 323.866 420.591 350.452 405.709 380.874C390.827 411.296 383.151 444.736 383.276 478.602C383.276 538.417 406.146 593.417 448.276 635.556C490.406 677.695 545.369 700.556 605.211 700.556C616.73 700.556 614.47 700.676 624.174 699.824C632.767 699.074 622.257 700.139 628.202 699.556C629.239 699.454 628.091 699.556 630.98 699.223C655.98 696.445 681.906 705.315 699.378 723.121C743.71 664.22 765.271 591.286 760.09 517.749C754.91 444.211 723.336 375.02 671.183 322.917L671.146 322.926ZM666.128 391.602C664.183 378.102 679.748 368.908 690.637 377.121C692.249 378.341 693.607 379.863 694.637 381.602C703.971 397.458 711.79 414.158 717.989 431.482C736.633 483.842 739.828 540.459 727.193 594.584C724.091 607.899 706.35 610.797 699.146 599.213C696.985 595.729 696.293 591.531 697.22 587.537C712.413 522.738 701.987 454.574 668.119 397.278C667.085 395.534 666.409 393.601 666.128 391.593V391.602ZM684.646 630.278C696.48 619.334 715.563 631.908 709.156 647.593C706.128 655 698.97 668.324 694.619 675.621C687.683 687.362 669.924 684.824 666.535 671.621C664.683 664.287 668.276 660.047 671.526 654.149L681.165 635.047C682.003 633.245 683.182 631.622 684.637 630.269L684.646 630.278ZM256.97 743.574C221.221 707.982 194.546 664.322 179.193 616.269C174.72 602.593 189.257 590.149 202.183 596.824C204.087 597.802 205.777 599.147 207.157 600.783C208.537 602.418 209.578 604.311 210.22 606.352C216.489 624.954 222.063 638.676 231.517 655.945C257.622 703.681 296.936 742.878 344.748 768.843C357.526 775.787 355.378 794.695 341.581 798.769C339.53 799.377 337.378 799.574 335.25 799.346C333.122 799.119 331.06 798.473 329.183 797.445C302.657 783.039 278.337 764.897 256.97 743.574ZM381.156 242.278C318.1 257.871 262.276 292.704 219.832 343.519C219.387 344.037 218.906 344.537 218.48 345.019C167.322 407.043 142.783 486.788 150.22 566.843C163.832 715.834 283.063 833.037 431.702 844.213C493.122 848.89 554.525 834.951 607.906 804.213C603.739 804.315 608.563 804.371 605.22 804.371C556.1 804.367 507.616 793.255 463.396 771.865C419.177 750.476 380.368 719.364 349.871 680.856C319.375 642.349 297.982 597.443 287.293 549.499C276.604 501.556 276.896 451.815 288.146 404C302.674 341.973 335.109 286.167 381.156 242.278Z" fill="#500599"/>
</svg>
