<svg width="1000" height="1000" viewBox="0 0 1000 1000" fill="none" xmlns="http://www.w3.org/2000/svg">
<path fill-rule="evenodd" clip-rule="evenodd" d="M467.767 168.018L467.36 167.852C459.026 164.315 452.221 157.667 449.628 147.852C439.813 145.204 433.147 138.343 429.628 130C427.973 126.073 427.12 121.854 427.119 117.593H427.026C427.049 113.297 427.934 109.049 429.628 105.102C433.174 96.7685 439.86 89.9722 449.637 87.3796C452.239 77.574 459.11 70.8703 467.452 67.3425C471.381 65.6798 475.603 64.8203 479.869 64.8148V64.7129C484.166 64.7371 488.416 65.6185 492.369 67.3055C500.702 70.8518 507.498 77.4907 510.091 87.3148C519.887 89.9259 526.591 96.787 530.128 105.13L530.267 105.454L541.378 94.3425C546.796 88.6951 553.04 83.9029 559.897 80.1296V80.2037C568.533 75.5428 578.203 73.1293 588.017 73.1851C604.451 73.2335 620.211 79.7224 631.915 91.2592C637.32 96.5482 641.713 102.78 644.878 109.648C657.563 96.8703 670.387 86.4166 693.647 86.4166C704.176 86.4508 714.524 89.159 723.721 94.287C724.966 92.5034 726.363 90.8305 727.897 89.287L727.989 89.1851C731.373 85.7842 735.396 83.0855 739.826 81.244C744.256 79.4024 749.006 78.4544 753.804 78.4544C758.602 78.4544 763.352 79.4024 767.782 81.244C772.212 83.0855 776.235 85.7842 779.619 89.1851L779.711 89.287C780.489 90.0648 781.23 90.8796 781.943 91.7314L807.582 66.0833C810.119 63.4537 812.693 60.8148 815.378 58.3518C818.908 55.0895 822.688 52.1082 826.684 49.4351C836.639 42.755 847.925 38.3129 859.763 36.4147C871.601 34.5166 883.71 35.2077 895.255 38.4403C906.8 41.6729 917.507 47.3702 926.638 55.1396C935.769 62.909 943.107 72.5657 948.147 83.4444C954.155 96.237 956.73 110.373 955.619 124.463C954.942 132.94 953.007 141.269 949.878 149.176C946.752 157.06 942.454 164.427 937.128 171.028C935.276 173.361 927.869 180.972 918.415 190.472C925.212 193.584 931.406 197.872 936.711 203.139C947.767 214.093 954.897 229.204 954.897 245.5C954.897 273.278 946.952 281.111 933.6 294.231L931.063 296.741L801.628 426.046C803.622 426.949 805.569 427.954 807.461 429.056C816.986 434.533 824.853 442.483 830.23 452.065C834.235 459.146 836.838 466.933 837.897 475C839.247 487.065 837.147 499.266 831.841 510.185C830.042 513.845 827.817 517.279 825.211 520.417L824.443 521.287L810.971 535.917L809.85 537.194C808.276 538.972 806.35 540.787 804.573 542.463C804.082 542.926 804.322 542.463 803.98 542.907L789.1 561.833L787.248 560.444L786.322 561.509C783.601 564.71 780.678 567.735 777.573 570.565L774.998 573.009L727.397 620.63L721.563 625.898L716.684 630.528L715.332 631.685L692.128 650.639L690.276 651.991L687.573 653.843L686.804 654.324C681.6 657.546 677.341 660.185 670.341 661.852C663.202 663.546 655.609 663.509 645.572 660.815C644.517 660.528 643.48 660.222 642.471 659.889C643.226 664.328 643.518 668.834 643.341 673.333C643.149 678.44 642.382 683.509 641.054 688.444C644.583 686.938 648.383 686.172 652.22 686.195C656.057 686.217 659.848 687.027 663.359 688.574C669.766 691.162 674.989 696.026 678.026 702.231C684.222 705.271 689.078 710.49 691.665 716.889C693.234 720.453 694.045 724.305 694.045 728.199C694.045 732.093 693.234 735.945 691.665 739.509C689.083 745.902 684.233 751.117 678.045 754.157C675.037 760.358 669.838 765.224 663.452 767.815H663.35C659.788 769.384 655.938 770.194 652.045 770.194C648.152 770.194 644.302 769.384 640.739 767.815C634.334 765.231 629.11 760.37 626.072 754.167C622.39 752.37 619.172 749.75 616.665 746.509C610.534 763.797 602.784 780.467 593.517 796.296C598.334 798.144 602.71 800.983 606.359 804.63L606.452 804.731C609.856 808.113 612.558 812.134 614.401 816.564C616.245 820.993 617.194 825.744 617.194 830.542C617.194 835.34 616.245 840.09 614.401 844.52C612.558 848.949 609.856 852.97 606.452 856.352L606.359 856.444C602.976 859.845 598.955 862.544 594.525 864.385C590.096 866.226 585.346 867.174 580.549 867.174C575.752 867.174 571.003 866.226 566.573 864.385C562.144 862.544 558.122 859.845 554.739 856.444L554.647 856.352C553.33 855.021 552.111 853.598 550.998 852.093C544.974 858.265 538.681 864.167 532.119 869.796C495.613 901.082 451.895 922.79 404.906 932.963C396.421 946.032 383.756 955.839 368.979 960.783C354.203 965.727 338.186 965.517 323.545 960.185C319.694 958.743 315.976 956.968 312.434 954.88C305.947 951.085 300.126 946.252 295.202 940.574C293.554 938.651 292.009 936.642 290.572 934.556C245.918 926.119 203.868 907.318 167.804 879.667C131.741 852.016 102.671 816.286 82.9336 775.352L81.8781 775.731L76.091 760.333C73.2919 758.532 70.6275 756.53 68.1188 754.342C55.5392 743.406 47.2754 728.338 44.8142 711.852C42.353 695.365 45.856 678.541 54.6929 664.407C51.8121 605.183 67.1633 546.501 98.6759 496.274C130.188 446.047 176.347 406.693 230.924 383.518C234.622 376.545 239.299 370.137 244.813 364.491C243.222 360.354 242.406 355.96 242.406 351.528C242.39 344.285 244.524 337.2 248.539 331.172C252.554 325.144 258.268 320.443 264.957 317.666C271.647 314.89 279.01 314.161 286.114 315.574C293.217 316.987 299.742 320.477 304.86 325.602L304.952 325.704C308.87 329.636 311.854 334.398 313.684 339.639C319.318 340.197 324.881 341.329 330.285 343.018C329.398 339.333 328.938 335.559 328.915 331.768C328.915 306.37 337.684 297.833 349.221 286.62C350.147 285.694 346.952 288.833 351.535 284.25L467.767 168.018Z" fill="#F5E6F5"/>
<path fill-rule="evenodd" clip-rule="evenodd" d="M279.035 339.611C281.391 339.609 283.694 340.306 285.653 341.613C287.612 342.92 289.14 344.78 290.043 346.955C290.945 349.131 291.183 351.525 290.724 353.836C290.266 356.146 289.132 358.269 287.467 359.935C285.803 361.601 283.681 362.736 281.371 363.196C279.061 363.656 276.666 363.421 274.49 362.52C272.313 361.619 270.453 360.093 269.144 358.135C267.836 356.176 267.137 353.874 267.137 351.518C267.137 348.362 268.39 345.335 270.621 343.102C272.852 340.869 275.879 339.613 279.035 339.611ZM659.044 735.074C657.339 736.787 656.346 739.084 656.267 741.5C656.109 746.731 648.23 746.75 648.063 741.5C647.982 739.07 646.981 736.761 645.261 735.042C643.542 733.323 641.234 732.321 638.804 732.241C633.563 732.083 633.544 724.203 638.804 724.028C641.234 723.949 643.544 722.948 645.264 721.228C646.983 719.509 647.984 717.199 648.063 714.768C648.23 709.537 656.109 709.518 656.267 714.768C656.348 717.198 657.349 719.507 659.068 721.226C660.787 722.945 663.096 723.947 665.526 724.028C670.757 724.194 670.785 732.074 665.526 732.241C663.082 732.319 660.762 733.334 659.044 735.074ZM357.637 900.815C358.403 899.326 358.839 897.69 358.915 896.018C359.049 892.187 360.543 888.528 363.128 885.696C365.714 882.865 369.222 881.046 373.026 880.565C422.282 874.309 468.242 852.451 504.18 818.191C540.118 783.931 564.146 739.067 572.748 690.166C573.191 687.611 574.242 685.2 575.814 683.137C577.385 681.074 579.43 679.42 581.776 678.315C583.066 677.707 584.175 676.772 584.992 675.603C585.808 674.433 586.305 673.071 586.431 671.65C586.557 670.229 586.31 668.801 585.712 667.505C585.115 666.21 584.189 665.094 583.026 664.268C580.926 662.775 579.213 660.8 578.033 658.51C576.852 656.219 576.237 653.679 576.239 651.102C576.35 522.278 472.905 418.166 345.072 417.583C332.443 417.528 332.405 417.454 327.091 407.824C324.915 403.879 319.285 399.879 315.118 398.204C311.439 396.733 307.483 396.085 303.526 396.307C299.57 396.529 295.711 397.614 292.219 399.487C288.727 401.359 285.687 403.974 283.314 407.146C280.94 410.319 279.29 413.973 278.48 417.852C276.174 429.231 271.461 429.342 265.785 431.148C216.369 448.701 174.358 482.48 146.604 526.975C118.85 571.471 106.991 624.057 112.961 676.157C113.28 678.979 112.849 681.834 111.711 684.435C110.573 687.037 108.768 689.292 106.48 690.972C97.4147 697.694 100.517 712.046 111.665 714.222C114.464 714.768 117.07 716.045 119.216 717.923C121.363 719.801 122.974 722.214 123.887 724.916C124.683 727.262 125.609 729.846 126.665 732.667C137.683 761.009 152.415 785.444 173.452 808.102C201.924 838.756 238.132 861.168 278.267 872.981C291.962 877.032 306.003 879.8 320.211 881.25C324.171 881.462 327.916 883.121 330.734 885.912C333.552 888.702 335.247 892.431 335.498 896.389C336.239 908.25 352.322 911.5 357.637 900.861V900.815ZM388.517 910.944C385.409 919.266 379.861 926.456 372.599 931.572C365.337 936.688 356.699 939.492 347.817 939.616C338.934 939.74 330.221 937.179 322.819 932.268C315.417 927.357 309.67 920.325 306.331 912.092C259.545 905.383 215.406 886.276 178.494 856.755C141.582 827.233 113.242 788.372 96.4147 744.203L95.9703 743.037C68.0259 730.741 59.8592 694.778 79.961 671.741C70.2481 554.629 139.35 444.731 249.331 402.778C265.072 359.898 321.6 350.268 350.72 385.407C478.313 388.639 585.748 482.87 605.433 609.639C607.196 621.002 608.22 632.467 608.498 643.963C615.49 651.779 619.18 662.001 618.794 672.481C618.017 692.75 603.767 702.111 603.322 702.87C592.578 755.135 566.336 802.95 528.018 840.082C489.701 877.214 441.084 901.94 388.507 911.037L388.517 910.944ZM418.405 772.722C401.693 750.231 358.85 753.176 347.711 778.333C337.091 802.315 364.285 825.555 394.683 819.222C409.183 816.185 422.97 805.611 423.878 790.333C424.204 784.013 422.263 777.785 418.405 772.768V772.722ZM212.452 618.694C219.026 602.028 210.276 576.379 195.063 570.768C178.193 564.546 169.137 593.648 181.859 615.611C190.248 630.102 205.72 635.759 212.452 618.694ZM357.702 520.546C367.674 538.472 398.239 539.065 405.174 521.074C411.878 503.704 388.887 486.704 369.498 493.518C357.507 497.704 351.517 509.407 357.702 520.518V520.546ZM504.137 668.046C529.637 662.953 539.461 631.574 521.183 612.87C517.06 608.646 511.871 605.615 506.166 604.099C500.461 602.584 494.452 602.639 488.776 604.259C485.847 605.204 483.398 607.248 481.946 609.962C480.495 612.676 480.153 615.847 480.993 618.808C481.833 621.769 483.79 624.288 486.451 625.835C489.111 627.382 492.269 627.836 495.257 627.102C504.424 624.491 510.933 636.166 503.804 642.583C502.602 643.676 501.127 644.425 499.535 644.75C496.446 645.364 493.727 647.18 491.977 649.798C490.226 652.417 489.588 655.623 490.202 658.713C490.816 661.802 492.632 664.521 495.25 666.271C497.869 668.022 501.075 668.66 504.165 668.046H504.137ZM196.48 730.713C199.011 729.01 200.791 726.4 201.453 723.423C202.115 720.445 201.608 717.327 200.037 714.712C198.466 712.097 195.95 710.186 193.01 709.373C190.07 708.56 186.93 708.907 184.239 710.342C158.313 725.87 163.97 765.287 193.368 772.759C197.721 773.879 202.252 774.128 206.701 773.493C211.15 772.857 215.43 771.349 219.294 769.055C221.951 767.413 223.857 764.793 224.6 761.759C225.344 758.726 224.865 755.521 223.268 752.837C221.671 750.153 219.083 748.204 216.062 747.41C213.041 746.616 209.829 747.04 207.118 748.592C199.156 753.324 189.526 745.972 191.757 737.129C192.083 735.801 192.667 734.551 193.478 733.45C194.288 732.348 195.308 731.418 196.48 730.713ZM759.1 507.667C759.007 507.787 759.054 507.722 759.1 507.667V507.667ZM609.98 292.944C611.097 293.609 612.385 293.931 613.683 293.87C615.757 293.87 621.748 287.028 621.757 287.028L825.109 83.6479C829.665 78.9442 834.276 74.1942 840.489 70.0368C850.386 63.4613 862.049 60.0514 873.93 60.2598C885.81 60.4681 897.347 64.2849 907.007 71.2035C923.443 83.1572 932.581 102.268 930.97 122.528C930.005 134.595 925.452 146.097 917.896 155.555C913.109 161.491 855.591 218.25 847.174 226.639C798.35 275.361 667.637 405.75 666.341 407.453C663.813 410.815 666.165 416.713 671.498 415.194C674.443 414.333 685.118 402.287 689.693 397.713L863.331 224.074C872.304 215.092 879.998 209.833 894.165 209.833C912.989 209.833 930.156 226.5 930.156 245.509C930.156 264.741 923.933 268.981 913.656 279.259L693.285 499.361C692.881 499.884 692.545 500.457 692.285 501.065H692.341C690.415 508.167 698.044 508.167 699.063 506.963L745.054 460.953C752.257 453.379 760.007 445.213 776.424 445.213C789.665 445.213 802.48 452.879 808.554 463.907C813.776 473.389 815.146 482.472 812.017 493.157C810.924 497.34 808.968 501.247 806.276 504.629L791.285 520.917C789.109 523.389 785.896 525.972 784.554 527.685C781.415 531.694 772.035 540.194 767.406 545.731C764.072 549.731 760.924 552.324 757.656 555.565L709.97 603.278L704.748 608L699.868 612.583L676.637 631.481L673.943 633.333C667.378 637.398 663.248 639.953 652.044 636.935C636.257 632.694 631.767 618.889 629.822 605.694C625.424 575.259 618.952 549.639 606.026 522.472C605.507 521.389 604.989 520.305 602.952 515.713C592.396 493.342 575.526 469.009 558.831 450.787C554.859 446.454 550.35 441.852 545.498 437.046L536.73 429.194C516.866 411.645 494.582 397.042 470.563 385.833C452.73 377.5 439.285 373.018 421.063 368.129C412.398 365.744 403.586 363.928 394.683 362.694C390.202 362.102 376.544 360.583 372.943 359.565C367.322 357.648 362.368 353.315 358.998 348.231C355.71 343.338 353.871 337.615 353.693 331.722C353.693 314.916 360.572 310.185 369.063 301.694L558.878 111.879C566.637 104.129 575.109 97.9905 588.091 97.9905C608.313 97.9905 625.702 114.259 625.702 134.953C625.702 150.833 618.933 157.62 610.294 166.268L476.85 299.778C476.146 300.574 476.155 304.065 477.174 305.157L477.248 305.231L479.517 306.842C483.609 306.842 482.85 307.009 487.424 302.435L652.776 137.037C665.6 124.213 675.378 111.231 693.73 111.231C713.563 111.231 731.443 127.5 731.443 148.268C731.443 165.796 721.878 173.787 714.452 181.213C689.452 206.213 610.748 284.129 609.387 286.111C607.878 288.259 607.739 291.435 609.98 292.944ZM613.683 326.278C582.128 326.278 565.776 292.741 582.48 268C585.119 264.083 658.276 191.481 691.47 158.287C694.146 155.602 703.35 148.287 696.433 144.398C695.304 143.759 693.267 143.342 692.063 144.065C688.517 146.185 679.591 156.102 675.646 160L510.276 325.37C500.961 334.685 493.98 339.259 479.443 339.259C463.896 339.259 454.674 328.102 454.276 328.102L454.202 328.028C447.717 321.202 444.076 312.164 444.017 302.75C443.843 297.992 444.627 293.247 446.322 288.799C448.018 284.35 450.59 280.287 453.887 276.852L587.443 143.37C590.702 140.111 593.257 137.555 593.257 134.953C593.257 131.083 588.331 129.528 586.118 130.889C584.562 132.072 583.112 133.388 581.785 134.824L391.97 324.639L387.341 329.148C403.609 331.268 413.267 332.518 429.433 336.842L458.137 345.703C472.026 350.435 496.267 361.759 508.97 369.407C527.489 380.565 541.989 390.444 558.294 405V405.055L568.341 414.065C578.331 423.845 587.737 434.205 596.507 445.092C616.276 470.005 632.117 497.796 643.48 527.5C653.581 553.361 658.072 574.389 662.063 601.722L679.026 587.833L686.331 580.87C686.849 580.414 687.39 579.984 687.952 579.583L734.915 532.592L742.646 524.907C744.609 522.555 747.794 519.185 751.054 515.852L759.202 507.648C762.526 503.491 764.239 502.435 767.322 499.213L781.109 484.065C782.294 481.963 780.239 477.676 776.554 477.676C773.063 477.676 768.581 483.435 766.054 486.009L722.119 529.944C705.822 546.315 676.313 542.157 664.387 521.157C659.48 512.509 658.683 502.018 661.23 492.667H661.294C662.444 488.5 664.325 484.572 666.85 481.065C669.452 477.296 832.896 314.398 890.859 256.398C894.294 252.963 897.859 250.796 897.859 245.574C897.859 244.528 895.665 242.324 894.294 242.324C890.591 242.324 890.72 242.722 886.387 247.065L712.619 420.648C705.156 428.111 694.702 439.509 688.146 442.981C661.581 457.065 633.998 438.416 632.98 411.861C632.652 403.301 635.314 394.895 640.507 388.083C643.961 383.5 791.507 236.583 841.933 186.157C854.035 174.046 888.794 140.129 892.693 135.305C899.174 127.231 901.026 114.435 895.47 105.565C889.47 96.0091 879.396 90.972 868.211 93.0276C857.378 95.0183 852.193 102.416 844.915 109.694L644.693 309.916C636.22 318.342 630.118 326.259 613.693 326.259L613.683 326.278ZM580.554 818.639C582.909 818.635 585.213 819.33 587.173 820.636C589.134 821.942 590.663 823.799 591.567 825.974C592.471 828.149 592.71 830.544 592.254 832.854C591.797 835.165 590.665 837.289 589.002 838.956C587.338 840.624 585.217 841.76 582.908 842.222C580.598 842.684 578.203 842.451 576.026 841.552C573.849 840.652 571.988 839.128 570.677 837.17C569.367 835.213 568.667 832.911 568.665 830.555C568.662 828.992 568.968 827.444 569.564 825.999C570.161 824.553 571.036 823.24 572.14 822.133C573.244 821.027 574.555 820.148 575.999 819.549C577.443 818.949 578.99 818.64 580.554 818.639ZM753.841 103.259C756.196 103.259 758.498 103.957 760.456 105.266C762.414 106.574 763.94 108.434 764.842 110.61C765.743 112.785 765.979 115.18 765.519 117.489C765.06 119.799 763.926 121.921 762.261 123.586C760.595 125.252 758.474 126.386 756.164 126.845C753.854 127.305 751.46 127.069 749.284 126.167C747.108 125.266 745.248 123.74 743.94 121.782C742.632 119.824 741.933 117.522 741.933 115.166C741.933 112.008 743.188 108.98 745.421 106.747C747.654 104.514 750.683 103.259 753.841 103.259ZM491.109 128.842C488.315 131.627 486.686 135.372 486.554 139.315C486.285 147.833 473.452 147.87 473.183 139.315C473.039 135.375 471.409 131.636 468.621 128.849C465.834 126.061 462.095 124.431 458.155 124.287C449.637 124.018 449.6 111.185 458.155 110.916C462.088 110.763 465.818 109.129 468.598 106.342C471.378 103.556 473.002 99.822 473.146 95.8887C473.415 87.3609 486.248 87.3331 486.517 95.8887C486.659 99.8273 488.287 103.566 491.073 106.354C493.859 109.142 497.597 110.772 501.535 110.916C510.063 111.185 510.091 124.009 501.535 124.287C497.607 124.426 493.88 126.055 491.109 128.842Z" fill="#500599"/>
</svg>
