<svg width="1000" height="1000" viewBox="0 0 1000 1000" fill="none" xmlns="http://www.w3.org/2000/svg">
<path fill-rule="evenodd" clip-rule="evenodd" d="M684.723 352.296C683.168 363.518 676.862 372.462 668.362 378.518C663.978 381.719 658.977 383.976 653.677 385.148C648.376 386.319 642.891 386.379 637.566 385.324C627.279 383.407 617.779 377.916 611.64 368.407C600.418 366.851 591.464 360.546 585.417 352.037C582.226 347.659 579.975 342.667 578.807 337.376C577.639 332.086 577.579 326.611 578.63 321.296C580.538 311 586.038 301.509 595.529 295.37C597.075 284.157 603.39 275.203 611.918 269.148C616.297 265.941 621.296 263.68 626.596 262.508C631.896 261.337 637.381 261.28 642.705 262.342C652.992 264.25 662.492 269.75 668.63 279.24C679.843 280.787 688.797 287.092 694.871 295.62C698.073 300.002 700.33 305.001 701.5 310.3C702.67 315.6 702.727 321.084 701.667 326.407C699.816 336.703 694.26 346.203 684.751 352.333M600.306 476.537C607.692 474.883 615.372 475.078 622.665 477.104C629.958 479.13 636.637 482.925 642.112 488.151C647.586 493.378 651.687 499.875 654.048 507.065C656.41 514.256 656.961 521.919 655.651 529.374C654.341 536.828 651.212 543.845 646.541 549.8C641.87 555.755 635.801 560.466 628.873 563.514C621.945 566.561 614.372 567.852 606.825 567.272C599.279 566.691 591.992 564.257 585.612 560.185L585.371 560.037C580.294 556.802 575.907 552.596 572.461 547.66C569.016 542.724 566.58 537.155 565.295 531.275C564.009 525.394 563.899 519.317 564.97 513.393C566.042 507.47 568.274 501.817 571.538 496.759H571.454C574.693 491.652 578.909 487.237 583.861 483.766C588.813 480.296 594.402 477.839 600.306 476.537ZM291.445 141.796C298.091 140.336 304.977 140.367 311.61 141.886C318.242 143.406 324.455 146.378 329.801 150.586C335.147 154.795 339.494 160.136 342.529 166.226C345.564 172.316 347.212 179.002 347.353 185.805C379.736 161.139 415.885 141.857 454.408 128.703C465.118 124.993 476.495 123.606 487.782 124.634C499.069 125.663 510.008 129.082 519.871 134.666C518.221 126.001 518.717 117.063 521.318 108.634C523.918 100.205 528.543 92.5413 534.789 86.3121C541.034 80.0828 548.71 75.4778 557.146 72.8994C565.582 70.321 574.521 69.8476 583.181 71.5207C591.842 73.1938 599.962 76.9625 606.83 82.4973C613.699 88.0322 619.107 95.1648 622.583 103.272C626.059 111.379 627.497 120.215 626.771 129.006C626.045 137.797 623.177 146.276 618.418 153.703H618.501C612.039 163.815 602.396 171.488 591.091 175.511C579.786 179.535 567.463 179.681 556.066 175.925C556.529 177.092 556.992 178.277 557.371 179.472C561.529 191.636 562.695 204.623 560.769 217.333C559.491 226.416 556.596 235.196 552.223 243.259C548.76 249.531 544.655 255.427 539.973 260.851C534.041 267.996 528.561 275.504 523.566 283.333C494.934 328.339 483.667 382.231 491.87 434.938C500.073 487.645 527.185 535.564 568.14 569.74C575.324 575.713 582.872 581.233 590.742 586.268C615.855 602.4 644.014 613.204 673.473 618.009C674.353 618.148 675.223 618.324 676.075 618.527C704.63 622.684 733.719 621.301 761.751 614.453L781.742 608.463C791.264 605.344 801.284 604.032 811.288 604.592C823.24 605.248 834.899 608.545 845.426 614.244C855.953 619.944 865.086 627.905 872.168 637.555C879.251 647.206 884.108 658.305 886.389 670.057C888.67 681.808 888.32 693.919 885.362 705.518C884.071 710.54 882.31 715.429 880.103 720.12C872.871 735.537 857.297 752.685 839.677 768.5C816.529 789.314 788.621 809.074 774.677 817.425C692.185 866.974 594 883.473 499.843 863.611C501.051 872.298 499.744 881.15 496.076 889.118C492.409 897.086 486.535 903.835 479.149 908.568C471.764 913.3 463.177 915.816 454.406 915.819C445.635 915.822 437.046 913.31 429.658 908.583L429.408 908.425C420.737 902.861 414.181 894.552 410.788 884.824C409.695 885.453 408.584 886.027 407.427 886.564C407.406 894.677 405.092 902.618 400.751 909.472L400.603 909.703C396.441 916.155 390.627 921.375 383.765 924.819C376.903 928.263 369.244 929.807 361.584 929.289C353.923 928.771 346.542 926.211 340.206 921.874C333.87 917.537 328.812 911.583 325.556 904.629C315.784 904.606 306.312 901.253 298.7 895.124C291.089 888.995 285.794 880.455 283.688 870.912C281.581 861.37 282.79 851.394 287.114 842.63C291.438 833.867 298.619 826.838 307.473 822.703C307.436 814.255 309.917 805.988 314.601 798.957C319.285 791.926 325.959 786.451 333.769 783.231C282.384 740.308 243.138 684.675 219.936 621.87C219.148 630.552 216.291 638.918 211.603 646.268H211.686C207.874 652.259 202.918 657.44 197.101 661.514C191.285 665.588 184.722 668.475 177.789 670.01C170.856 671.545 163.688 671.698 156.695 670.46C149.703 669.222 143.023 666.618 137.038 662.796C135.907 662.068 134.819 661.277 133.779 660.425C122.587 652.07 115.074 639.699 112.82 625.915C110.567 612.132 113.748 598.012 121.696 586.527C129.643 575.043 141.737 567.089 155.43 564.342C169.124 561.594 183.349 564.266 195.112 571.796L195.158 571.722C199.981 574.79 204.285 578.607 207.908 583.027C192.529 521.824 192.562 457.762 208.005 396.575C223.448 335.387 253.818 278.982 296.399 232.407C289.407 231.607 282.689 229.23 276.751 225.453L276.51 225.296C271.435 222.062 267.049 217.857 263.604 212.923C260.16 207.988 257.724 202.422 256.439 196.543C255.153 190.664 255.043 184.589 256.113 178.667C257.184 172.745 259.414 167.093 262.677 162.037L262.603 161.981C265.843 156.882 270.059 152.474 275.009 149.009C279.959 145.545 285.545 143.094 291.445 141.796Z" fill="#F5E6F5"/>
<path fill-rule="evenodd" clip-rule="evenodd" d="M161.593 596.695C165.66 595.798 169.901 596.128 173.78 597.641C177.659 599.155 181.002 601.785 183.387 605.199C185.772 608.612 187.091 612.656 187.177 616.82C187.263 620.983 186.113 625.078 183.872 628.588C181.631 632.097 178.4 634.864 174.587 636.537C170.774 638.211 166.55 638.716 162.45 637.989C158.35 637.262 154.558 635.336 151.552 632.453C148.547 629.571 146.463 625.863 145.566 621.796C144.969 619.096 144.911 616.304 145.394 613.581C145.876 610.858 146.891 608.256 148.379 605.925C149.868 603.594 151.801 601.579 154.068 599.995C156.335 598.412 158.893 597.29 161.593 596.695ZM654.362 332.898C652.103 336.421 651.272 340.673 652.038 344.787C653.704 353.676 640.417 356.648 638.149 347.852C637.101 343.801 634.558 340.297 631.031 338.045C627.504 335.793 623.256 334.96 619.14 335.713C610.251 337.389 607.269 324.102 616.084 321.824C620.133 320.77 623.634 318.224 625.883 314.697C628.133 311.169 628.966 306.921 628.214 302.806C626.538 293.917 639.825 290.945 642.103 299.75C643.147 303.805 645.688 307.314 649.215 309.572C652.741 311.829 656.992 312.667 661.112 311.917C670.01 310.25 672.982 323.537 664.177 325.806C660.123 326.837 656.614 329.373 654.362 332.898ZM377.779 867.593C374.55 872.617 373.362 878.684 374.454 884.556C374.979 887.158 374.461 889.862 373.01 892.086C371.56 894.309 369.294 895.874 366.701 896.442C364.108 897.01 361.395 896.537 359.148 895.124C356.9 893.712 355.298 891.472 354.686 888.889C353.19 883.113 349.562 878.118 344.532 874.909C339.502 871.7 333.443 870.515 327.575 871.593C325.032 871.984 322.435 871.393 320.312 869.939C318.189 868.485 316.699 866.278 316.144 863.766C315.589 861.254 316.011 858.624 317.324 856.411C318.637 854.199 320.743 852.569 323.214 851.852C328.988 850.356 333.981 846.73 337.19 841.702C340.399 836.674 341.585 830.617 340.51 824.75C340.028 822.167 340.569 819.498 342.018 817.306C343.467 815.114 345.711 813.571 348.277 813.002C350.842 812.434 353.528 812.885 355.768 814.26C358.007 815.634 359.624 817.826 360.279 820.37C361.776 826.143 365.403 831.136 370.431 834.344C375.458 837.553 381.514 838.74 387.38 837.667C389.942 837.23 392.574 837.796 394.73 839.247C396.886 840.698 398.401 842.923 398.962 845.46C399.522 847.998 399.085 850.654 397.741 852.878C396.397 855.102 394.249 856.724 391.742 857.408C385.959 858.899 380.965 862.542 377.779 867.593ZM607.408 508.732C609.923 508.177 612.545 508.38 614.944 509.316C617.342 510.251 619.41 511.877 620.885 513.988C622.36 516.098 623.175 518.599 623.229 521.173C623.283 523.747 622.572 526.28 621.186 528.45C619.801 530.62 617.803 532.331 615.445 533.365C613.087 534.4 610.476 534.712 607.941 534.263C605.405 533.813 603.06 532.622 601.202 530.84C599.344 529.058 598.056 526.764 597.501 524.25C597.132 522.581 597.096 520.855 597.395 519.172C597.693 517.488 598.32 515.88 599.24 514.439C600.16 512.998 601.355 511.752 602.757 510.773C604.158 509.794 605.739 509.1 607.408 508.732ZM568.408 104.102C572.475 103.201 576.717 103.527 580.599 105.038C584.48 106.549 587.826 109.178 590.214 112.591C592.601 116.003 593.923 120.048 594.011 124.212C594.1 128.376 592.951 132.473 590.711 135.985C588.471 139.496 585.239 142.264 581.426 143.938C577.612 145.613 573.387 146.119 569.286 145.392C565.185 144.665 561.391 142.738 558.385 139.855C555.379 136.972 553.296 133.262 552.399 129.195C551.801 126.494 551.741 123.703 552.223 120.98C552.705 118.257 553.718 115.655 555.206 113.324C556.694 110.993 558.626 108.978 560.893 107.394C563.16 105.81 565.717 104.688 568.417 104.093L568.408 104.102ZM695.427 784.148C711.261 777.839 726.563 770.268 741.186 761.509C753.177 754.333 775.825 738.028 794.714 721.352C807.297 710.241 817.862 699.454 821.167 692.324C826.982 679.926 815.038 666.037 801.677 670.593C680.714 711.861 548.195 668.741 475.251 564.343C401.575 458.935 407.954 317.667 489.686 219.167C492.917 215.269 495.325 213.361 496.167 207.852C496.57 205.164 496.275 202.417 495.31 199.876C494.345 197.334 492.743 195.084 490.657 193.341C488.572 191.597 486.073 190.419 483.401 189.92C480.729 189.421 477.973 189.618 475.399 190.491C363.519 228.704 282.279 327.287 265.075 443.722C256.933 498.76 263.44 554.971 283.939 606.694C304.439 658.416 338.207 703.823 381.842 738.34C425.477 772.857 477.437 795.265 532.49 803.307C587.542 811.349 643.741 804.741 695.427 784.148ZM757.806 789.222C600.445 883.482 397.279 840.046 292.204 689.722C254.654 635.965 233.018 572.711 229.781 507.217C226.543 441.723 241.834 376.644 273.899 319.445C315.501 245.213 383.399 187.732 464.982 159.889C499.177 148.222 533.501 177.278 528.186 212.667C526.334 224.704 521.51 231.639 514.612 239.945C417.89 356.333 444.445 531.991 573.01 614.056C632.214 651.833 702.084 662.991 771.093 646L791.288 639.954C823.492 628.963 856.825 654.213 854.927 688.287C854.573 694.457 853.039 700.501 850.408 706.093C837.593 733.389 779.473 776.25 757.806 789.222ZM451.501 857.111C454.015 856.557 456.637 856.76 459.035 857.696C461.433 858.631 463.5 860.257 464.975 862.367C466.45 864.477 467.266 866.977 467.32 869.551C467.374 872.125 466.664 874.657 465.279 876.827C463.894 878.997 461.897 880.708 459.54 881.743C457.183 882.779 454.572 883.092 452.037 882.644C449.502 882.196 447.157 881.006 445.298 879.225C443.439 877.444 442.15 875.152 441.593 872.639C441.224 870.969 441.186 869.242 441.484 867.558C441.782 865.873 442.409 864.264 443.329 862.822C444.249 861.38 445.445 860.133 446.847 859.153C448.249 858.174 449.83 857.48 451.501 857.111ZM306.779 600C306.479 596.789 307.142 593.561 308.684 590.728C310.226 587.895 312.576 585.585 315.436 584.093C319.269 582.092 323.739 581.694 327.865 582.985C331.992 584.277 335.437 587.153 337.445 590.982C371.293 655.57 428.771 704.596 497.89 727.833C511.612 732.463 512.88 751.445 499.927 757.861C498.012 758.819 495.925 759.386 493.789 759.531C491.653 759.676 489.509 759.395 487.482 758.704C420.268 736.075 362.621 691.493 323.816 632.13C318.328 623.698 313.238 615.022 308.547 606.102C307.704 603.778 307.075 603.343 306.779 600ZM541.445 770.482C528.954 763.315 531.26 744.556 545.26 740.685C547.309 740.125 549.448 739.971 551.556 740.232C560.816 741.435 572.797 742.324 582.112 742.519C584.249 742.553 586.358 743.012 588.316 743.87C592.258 745.606 595.351 748.835 596.913 752.849C598.476 756.863 598.381 761.334 596.649 765.278C595.369 768.222 593.245 770.722 590.546 772.46C587.846 774.199 584.693 775.099 581.482 775.046C570.109 774.846 558.757 773.99 547.482 772.482C545.357 772.221 543.305 771.541 541.445 770.482ZM298.556 173.991C301.07 173.437 303.692 173.64 306.09 174.576C308.489 175.511 310.556 177.137 312.031 179.247C313.505 181.357 314.321 183.857 314.375 186.43C314.429 189.004 313.719 191.536 312.334 193.706C310.95 195.877 308.953 197.588 306.596 198.623C304.239 199.658 301.628 199.972 299.093 199.524C296.558 199.075 294.213 197.886 292.354 196.105C290.495 194.324 289.205 192.032 288.649 189.519C288.279 187.848 288.242 186.122 288.54 184.437C288.838 182.753 289.465 181.144 290.385 179.702C291.305 178.259 292.5 177.013 293.902 176.033C295.304 175.053 296.886 174.359 298.556 173.991Z" fill="#500599"/>
</svg>
