<svg width="1000" height="1000" viewBox="0 0 1000 1000" fill="none" xmlns="http://www.w3.org/2000/svg">
<path fill-rule="evenodd" clip-rule="evenodd" d="M743.572 805.685C685.683 850.706 616.203 878.369 543.211 885.455C470.22 892.541 396.716 878.761 331.248 845.715C265.781 812.67 211.039 761.718 173.39 698.786C135.741 635.853 116.731 563.525 118.572 490.213C114.449 485.336 110.797 480.923 107.618 476.972C102.248 470.336 95.8066 462.105 88.2943 452.278C70.5998 429.13 53.1091 404.38 40.4331 380.509C25.6183 352.574 17.4702 325.074 22.0813 300.407C28.1091 268.167 49.0165 245.889 91.748 239.639C118.6 235.713 156.313 239.185 207.72 252.555C228.32 227.708 251.962 205.55 278.091 186.602C310.533 163.084 346.413 144.716 384.461 132.148C429.815 117.139 477.568 110.712 525.276 113.194C582.798 116.123 638.943 131.84 689.625 159.202C740.307 186.564 784.25 224.883 818.256 271.369C852.262 317.855 875.475 371.338 886.205 427.926C896.935 484.514 894.913 542.783 880.285 598.491C901.313 617.222 918.248 633.963 931.581 648.898C950.822 670.472 963.424 689.296 970.563 705.704C976.711 719.824 979.433 733.092 979.146 745.518C978.976 759.737 974.53 773.575 966.387 785.231C959.499 795.01 950.417 803.039 939.868 808.676C930.091 814.046 918.878 817.768 906.581 820.074C887.952 823.565 865.905 823.87 842.692 822.065C816.665 820.028 788.609 815.37 762.285 809.694H762.165L743.572 805.685Z" fill="#F5E6F5"/>
<path fill-rule="evenodd" clip-rule="evenodd" d="M427.015 298.278C394.523 291.05 362.543 281.687 331.284 270.25C321.691 266.797 319.432 253.695 328.117 247.519C339.604 239.5 351.602 232.238 364.034 225.778C365.627 224.942 367.377 224.447 369.172 224.324C370.966 224.202 372.767 224.454 374.46 225.065C447.867 251.649 525.191 265.806 601.867 257.824C624.802 255.445 647.484 251.061 669.654 244.723C677.367 242.204 681.256 245.954 687.432 250.473C698.921 258.841 709.806 268.009 720.006 277.908C721.737 279.524 722.992 281.583 723.635 283.862C724.278 286.141 724.285 288.553 723.654 290.836C723.023 293.118 721.779 295.184 720.057 296.81C718.335 298.435 716.201 299.558 713.885 300.056C617.885 320.084 522.858 319.5 427.052 298.278M282.867 495.121C272.006 486.787 261.571 478.454 251.635 470.38C249.276 468.368 247.716 465.576 247.239 462.512C246.761 459.448 247.398 456.315 249.034 453.68C250.669 451.046 253.195 449.085 256.152 448.153C259.11 447.221 262.304 447.381 265.154 448.602C386.412 504.024 521.479 521.895 652.978 499.917C701.68 491.756 749.323 478.197 795.024 459.491C796.897 458.702 798.928 458.364 800.955 458.505C802.982 458.646 804.947 459.261 806.693 460.3C808.438 461.34 809.915 462.776 811.003 464.491C812.092 466.207 812.762 468.154 812.96 470.176L814.228 489.88C814.302 492.275 814.348 494.806 814.367 497.473C814.557 500.225 813.864 502.966 812.388 505.298C810.913 507.629 808.732 509.429 806.163 510.436C650.742 571.584 478.698 575.769 320.487 522.25C319.291 521.848 318.162 521.271 317.135 520.537C305.256 512.037 293.839 503.556 282.867 495.121ZM583.413 628.297C649.188 625.459 714.355 614.451 777.413 595.528C779.771 594.831 782.278 594.819 784.643 595.493C787.007 596.167 789.131 597.5 790.766 599.335C792.402 601.171 793.482 603.434 793.88 605.86C794.278 608.286 793.978 610.775 793.015 613.037C788.724 623.831 783.868 634.392 778.469 644.676C777.573 646.367 776.313 647.838 774.781 648.984C773.249 650.13 771.482 650.923 769.608 651.306C749.922 656.244 730.206 660.466 710.46 663.973C690.589 667.51 670.456 670.371 650.061 672.556C648.44 672.728 646.8 672.593 645.228 672.158C634.882 669.584 624.157 666.757 613.052 663.676C601.376 660.417 589.997 657.065 579.089 653.611C576.105 652.667 573.563 650.674 571.934 648.001C570.304 645.328 569.697 642.156 570.224 639.07C570.751 635.985 572.377 633.194 574.801 631.214C577.225 629.233 580.284 628.197 583.413 628.297ZM811.432 398.852C784.636 317.834 726.769 250.769 650.548 212.398C574.327 174.027 485.989 167.49 404.95 194.223C337.219 216.63 279.821 259.815 240.135 318C238.093 320.991 235.106 323.211 231.653 324.303C228.2 325.396 224.481 325.299 221.089 324.028C123.95 294.399 89.3392 296.176 86.3021 312.417C82.4595 332.945 111.043 374.454 140.256 412.695C228.422 528.065 315.747 595.871 416.182 642.38C517.404 689.25 632.848 715 775.904 745.852C818.793 755.112 865.719 761.408 894.654 755.982C903.747 754.278 910.237 751.686 912.821 747.954C914.802 745.102 914.422 739.917 910.867 731.76C901.191 709.537 872.182 676.343 815.135 628.352C811.89 626.243 809.503 623.044 808.405 619.332C807.307 615.62 807.569 611.638 809.145 608.102C833.375 540.587 834.206 466.887 811.506 398.843L811.432 398.852ZM183.987 514.13C186.528 572.188 204.733 628.476 236.671 677.027C268.609 725.577 313.09 764.58 365.397 789.899C417.705 815.219 475.89 825.911 533.782 820.843C591.674 815.775 647.116 795.135 694.228 761.111C486.821 714.741 330.885 668.213 183.987 514.13ZM735.108 770.139L734.506 770.686C681.123 815.806 615.588 844.131 546.146 852.095C476.705 860.059 406.459 847.308 344.247 815.445C219.256 751.454 144.515 620.565 151.848 480.778C151.884 480.123 151.958 479.471 152.071 478.824C139.521 464.195 126.987 448.692 114.469 432.315C80.904 388.389 48.3206 339.176 54.441 306.482C61.1355 270.676 104.774 256.436 220.182 290.093C268.151 224.853 337.018 178.01 415.319 157.361C493.619 136.711 576.63 143.502 650.534 176.602C816.497 250.797 898.571 437.963 842.774 609.408C899.45 657.861 929.311 693.315 940.422 718.834C949.024 738.593 947.83 754.223 939.339 766.436C931.469 777.778 917.848 784.51 900.534 787.732C866.728 794.065 815.348 787.445 769.117 777.482L735.108 770.139ZM582.978 749.408C590.188 751.192 595.805 752.568 599.83 753.537C613.265 756.176 614.247 772.778 603.534 778L602.691 778.408L601.765 778.834C600.942 779.232 600.079 779.542 599.191 779.76C537.358 794.76 474.071 796.658 412.034 780.76C392.758 775.825 373.957 769.198 355.848 760.954C350.682 758.778 335.052 745.926 330.2 741.686C327.989 739.685 326.535 736.984 326.083 734.036C325.631 731.089 326.209 728.076 327.72 725.505C329.23 722.935 331.581 720.963 334.376 719.923C337.17 718.883 340.238 718.839 343.061 719.797C413.987 745.278 486.45 752.778 561.173 744.732C562.702 744.57 564.249 744.687 565.737 745.074C569.506 746.056 575.237 747.491 582.978 749.408ZM377.997 409.139C332.647 396.92 288.589 380.333 246.441 359.611C244.825 358.823 243.39 357.707 242.229 356.335C241.067 354.962 240.203 353.363 239.693 351.639C239.183 349.915 239.037 348.103 239.264 346.32C239.492 344.536 240.088 342.819 241.015 341.278L254.274 321.084C255.577 319.232 257.049 317.216 258.691 315.037C260.419 312.282 263.119 310.277 266.256 309.419C269.393 308.562 272.737 308.914 275.626 310.408C386.702 368.176 513.231 389.247 637.034 370.593C677.787 364.458 717.79 354.094 756.395 339.667C759.306 338.407 762.579 338.259 765.593 339.251C768.606 340.242 771.151 342.304 772.747 345.047C777.469 353.186 781.571 360.945 785.506 369.38C786.259 370.994 786.671 372.746 786.717 374.527C786.763 376.307 786.441 378.078 785.772 379.729C785.103 381.38 784.101 382.875 782.829 384.121C781.556 385.367 780.041 386.338 778.376 386.973C648.302 436.51 512.589 445.056 377.997 409.139Z" fill="#500599"/>
</svg>
