<svg width="1000" height="1000" viewBox="0 0 1000 1000" fill="none" xmlns="http://www.w3.org/2000/svg">
<path d="M748.396 202.843C757.112 210.157 765.591 217.938 773.831 226.185L773.896 226.259L773.97 226.185C844.859 297.074 882.711 389.407 886.822 483.185C890.933 576.963 861.248 671.991 797.091 748.472C789.529 757.515 781.794 765.984 773.887 773.88C705.727 842.052 614.586 882.346 518.291 886.878C421.996 891.411 327.473 859.858 253.211 798.389C252.581 797.87 251.97 797.333 251.359 796.778L251.285 796.861C172.815 731.225 123.532 637.184 114.216 535.308C104.9 433.431 136.309 332.011 201.572 253.231L202.109 252.602C204.72 249.361 208.276 245.278 212.081 241.083C218.563 233.944 223.683 228.509 226.285 225.907C260.081 192.099 299.876 164.878 343.637 145.639C432.299 106.722 532.279 102.232 624.072 133.046C669.497 148.357 711.657 172.03 748.378 202.843" fill="#F5E6F5"/>
<path d="M727.277 228.093C887.231 362.25 897.416 603.704 750.573 750.574C688.206 812.931 604.825 849.788 516.729 853.939C428.634 858.089 342.157 829.236 274.203 773.018L272.425 771.602C200.709 711.494 155.68 625.459 147.165 532.273C138.649 439.087 167.338 346.315 226.971 274.204C232.471 267.028 243.638 255.194 249.619 249.204C312.253 186.732 395.978 149.93 484.354 146.024C572.731 142.118 659.376 171.39 727.277 228.093ZM434.481 705.324C389.134 716.099 343 723.239 296.518 726.676C294.727 726.8 292.929 726.55 291.24 725.943C289.55 725.335 288.005 724.384 286.703 723.148C279.425 716.204 272.194 708.528 265.795 701.065C264.241 699.219 263.232 696.975 262.884 694.586C262.535 692.198 262.861 689.76 263.823 687.546C264.785 685.333 266.347 683.432 268.331 682.058C270.315 680.684 272.644 679.891 275.055 679.769C465.716 671.246 646.947 594.413 785.638 463.306C793.295 456.093 806.36 460.639 807.36 471.556C808.555 484.583 808.657 492.722 808.601 506.259C808.629 508.144 808.245 510.011 807.474 511.731C806.703 513.451 805.564 514.981 804.138 516.213C697.841 607.942 571.066 672.799 434.481 705.324ZM374.462 598.269C323.69 607.653 272.042 611.444 220.444 609.574C217.781 609.551 215.19 608.708 213.023 607.161C210.856 605.614 209.219 603.437 208.332 600.926L201.462 578.444C200.959 576.499 200.915 574.464 201.333 572.499C201.752 570.534 202.621 568.694 203.873 567.122C205.125 565.551 206.724 564.292 208.546 563.445C210.368 562.598 212.361 562.185 214.37 562.241C415.647 568.926 608.073 485.713 740.295 333.741C741.624 332.226 743.286 331.041 745.152 330.281C747.018 329.521 749.035 329.206 751.044 329.362C753.052 329.517 754.997 330.139 756.724 331.177C758.45 332.215 759.911 333.641 760.99 335.343C762.434 337.639 763.444 339.259 764.008 340.185L774.999 359.926C776.16 362.246 776.598 364.861 776.256 367.433C775.914 370.005 774.809 372.415 773.082 374.352C668.695 491.103 528.478 569.866 374.462 598.269ZM345.036 476.204C299.351 485.592 252.868 490.553 206.231 491.019C197.666 491.454 191.592 484.87 192.175 477.13C192.98 466.333 194.355 455.586 196.295 444.935C196.802 441.876 198.389 439.1 200.767 437.111C203.145 435.122 206.158 434.051 209.258 434.093C292.327 435.17 374.694 418.777 451.02 385.977C527.346 353.177 595.926 304.702 652.314 243.694C654.394 241.462 657.194 240.035 660.222 239.664C663.251 239.293 666.313 240.002 668.87 241.667C673.971 244.981 687.731 254.5 691.925 258.333C694.45 260.643 695.954 263.862 696.107 267.28C696.26 270.699 695.049 274.039 692.74 276.565C598.536 379.5 481.749 447.759 345.036 476.204ZM338.99 355.204C306.877 363.299 274.266 369.275 241.369 373.093C238.987 373.478 236.544 373.191 234.316 372.264C232.088 371.336 230.163 369.805 228.758 367.843C227.353 365.881 226.524 363.565 226.364 361.157C226.203 358.749 226.718 356.344 227.851 354.213C231.805 346.806 237.582 337.204 242.388 330C244.592 326.685 247.018 323.157 249.712 319.37C250.739 317.719 252.125 316.319 253.766 315.276C255.407 314.232 257.262 313.572 259.194 313.343C336.777 304.083 412.129 282.074 477.045 240.472C496.637 227.929 515.079 213.676 532.157 197.88C537.712 192.611 543.268 194.25 550.203 195.417C561.805 197.377 573.294 199.958 584.62 203.148C586.471 203.676 588.721 204.37 591.388 205.231C593.695 205.86 595.784 207.114 597.423 208.856C599.062 210.598 600.187 212.759 600.673 215.1C601.16 217.441 600.99 219.872 600.181 222.122C599.373 224.373 597.957 226.356 596.092 227.852C520.499 288.223 432.821 331.653 338.99 355.204ZM674.999 684.093C702.491 666.883 728.814 647.872 753.795 627.185C756.096 625.297 758.979 624.262 761.955 624.255C764.932 624.247 767.82 625.268 770.13 627.144C772.441 629.02 774.033 631.637 774.636 634.551C775.24 637.466 774.819 640.499 773.444 643.139C765.069 659.293 755.238 674.65 744.073 689.019C743.524 689.725 742.903 690.374 742.221 690.954C682.379 741.88 612.194 779.843 535.138 796.63C510.883 801.919 486.205 805.039 461.397 805.954C457.694 806.157 444.573 803.657 440.981 802.944C435.851 801.944 430.332 800.691 424.425 799.185C409.073 795.954 410.897 775.231 425.055 773.537C514.684 762.824 598.147 732.019 674.999 684.093ZM727.694 272.333C720.712 265.34 713.663 258.858 706.545 252.889C644.868 201.128 565.956 174.5 485.527 178.306C396.638 182.361 312.332 222.574 252.601 293.935C252.391 294.194 252.169 294.444 251.934 294.685C197.601 360.348 171.518 444.874 179.403 529.735C187.288 614.597 228.498 692.87 293.999 747.398C294.258 747.62 294.508 747.843 294.749 748.074C356.318 799.148 434.739 825.393 514.647 821.667C686.62 813.843 822.055 671.963 822.055 499.972C822.094 457.68 813.774 415.798 797.574 376.732C781.374 337.666 757.613 302.186 727.657 272.333H727.694Z" fill="#500599"/>
</svg>
