<svg width="1000" height="1000" viewBox="0 0 1000 1000" fill="none" xmlns="http://www.w3.org/2000/svg">
<path fill-rule="evenodd" clip-rule="evenodd" d="M748.453 202.778C757.712 210.543 766.24 218.327 774.036 226.13C844.935 297.037 882.796 389.389 886.898 483.176C890.999 576.963 861.323 672.018 797.166 748.528C789.586 757.534 781.848 766.003 773.953 773.935C705.778 842.123 614.617 882.426 518.301 886.962C421.984 891.499 327.439 859.942 253.157 798.463C252.527 797.935 251.907 797.389 251.305 796.824L251.231 796.907C172.747 731.252 123.456 637.19 114.138 535.29C104.821 433.391 136.234 331.948 201.509 253.148L202.027 252.555C204.638 249.305 208.212 245.213 212.036 241C218.518 233.861 223.638 228.426 226.231 225.824C260.036 192.012 299.841 164.788 343.61 145.546C432.3 106.634 532.303 102.148 624.12 132.963C669.556 148.275 711.727 171.954 748.453 202.778Z" fill="#F5E6F5"/>
<path fill-rule="evenodd" clip-rule="evenodd" d="M740.084 556.203C750.131 543.157 771.362 553.092 767.121 569.629C760.64 594.926 748.084 623.009 734.371 645.259C710.138 684.629 676.826 717.621 637.223 741.472C625.51 748.528 611.066 737.842 614.344 724.592C615.323 720.642 617.822 717.238 621.297 715.12C678.348 680.822 719.944 625.811 737.399 561.574C737.932 559.626 738.841 557.802 740.075 556.203M727.325 228.028C887.316 362.213 897.501 603.759 750.631 750.629C688.25 813 604.851 849.863 516.736 854.014C428.621 858.165 342.126 829.304 274.158 773.074L272.381 771.657C200.651 711.535 155.612 625.482 147.093 532.276C138.574 439.07 167.266 346.278 226.908 274.148C232.418 266.981 243.575 255.139 249.566 249.148C312.212 186.655 395.958 149.839 484.359 145.932C572.759 142.024 659.427 171.306 727.344 228.028H727.325ZM727.714 272.278C720.726 265.29 713.674 258.808 706.557 252.833C644.868 201.056 565.939 174.417 485.492 178.222C396.603 182.278 312.26 222.5 252.52 293.879C252.297 294.139 252.075 294.389 251.844 294.629C197.514 360.307 171.436 444.842 179.322 529.712C187.209 614.582 228.417 692.865 293.918 747.407C294.177 747.62 294.427 747.852 294.677 748.083C356.256 799.165 434.69 825.413 514.612 821.685C686.631 813.889 822.094 672.018 822.094 500C822.139 457.696 813.824 415.801 797.627 376.721C781.43 337.641 757.671 302.147 727.714 272.278ZM581.853 735.889C595.575 736.574 601.492 753.481 591.436 762.583C588.26 765.472 582.557 767.009 578.538 768.352L556.39 774.667C543.168 777.87 532.566 763.398 539.723 751.741C543.677 745.259 549.223 744.944 555.714 743.139L576.001 736.75C577.875 736.079 579.865 735.786 581.853 735.889Z" fill="#500599"/>
</svg>
