<svg width="1000" height="1000" viewBox="0 0 1000 1000" fill="none" xmlns="http://www.w3.org/2000/svg">
<path d="M342.054 462.833H342.128L347.684 457.277L342.054 462.833ZM680.554 547.463L686.11 553.018V552.944L680.554 547.435V547.463ZM551.851 374.907C546.084 372.627 540.844 369.193 536.452 364.814L536.249 364.611C534.539 362.889 532.972 361.031 531.564 359.055L498.23 425.629L540.48 383.379C543.842 380.021 547.671 377.168 551.851 374.907ZM576.434 324.629H576.48L582.036 319.074H581.962L576.434 324.629ZM568.101 288.213C579.96 288.237 591.325 292.966 599.702 301.361L599.906 301.564C603.722 305.42 606.822 309.922 609.064 314.861L804.156 119.768C805.131 118.778 806.167 117.85 807.258 116.99C816.631 109.016 828.668 104.872 840.964 105.387C853.26 105.902 864.908 111.038 873.582 119.768L873.647 119.833L873.712 119.768C878.275 124.326 881.895 129.738 884.365 135.696C886.835 141.654 888.107 148.041 888.107 154.49C888.107 160.94 886.835 167.326 884.365 173.284C881.895 179.242 878.275 184.655 873.712 189.213L873.638 189.277L873.712 189.342L823.499 239.546C830.036 248.136 833.229 258.809 832.483 269.577C831.737 280.346 827.102 290.477 819.443 298.083L819.24 298.287C811.627 305.918 801.504 310.527 790.75 311.258C779.995 311.988 769.342 308.791 760.767 302.259L647.526 415.472C640.888 422.113 632.48 426.706 623.304 428.703C621.293 437.884 616.688 446.295 610.036 452.935L593.11 469.861L726.619 401.092C733.286 397.664 740.651 395.814 748.147 395.685C752.048 390.033 757.096 385.266 762.962 381.694C764.727 380.503 766.606 379.492 768.573 378.676L868.712 327.935C874.465 325.029 880.734 323.285 887.161 322.803C893.588 322.32 900.048 323.108 906.17 325.122C912.293 327.135 917.959 330.335 922.845 334.539C927.731 338.742 931.741 343.867 934.647 349.62C937.552 355.373 939.296 361.642 939.779 368.07C940.262 374.497 939.474 380.956 937.46 387.079C935.446 393.201 932.246 398.867 928.043 403.753C923.84 408.639 918.715 412.65 912.962 415.555L812.897 466.24C811.027 467.359 809.052 468.289 806.999 469.018C801.407 471.294 795.443 472.518 789.406 472.629C784.859 479.274 778.731 484.683 771.573 488.37L712.314 518.926C716.55 527.332 718.025 536.861 716.529 546.155C715.032 555.448 710.641 564.033 703.98 570.685L703.776 570.879C699.631 575.03 694.707 578.321 689.287 580.565C683.867 582.808 678.058 583.959 672.192 583.952C666.326 583.945 660.519 582.781 655.104 580.525C649.689 578.268 644.773 574.965 640.638 570.805L640.443 570.601C637.331 567.467 634.692 563.895 632.61 560L562.036 596.296C558.513 598.116 554.782 599.503 550.925 600.426C553.951 603.675 556.375 607.437 558.082 611.537C560.048 616.03 561.063 620.882 561.063 625.787C561.063 630.691 560.048 635.543 558.082 640.037C557.496 641.418 556.816 642.758 556.045 644.046C553.338 648.908 549.51 653.053 544.878 656.138C540.906 662.023 535.276 666.596 528.702 669.277C526.608 670.166 524.439 670.867 522.221 671.37L557.878 707.268C568.487 717.853 576.155 731.019 580.127 745.469C584.098 759.92 584.236 775.156 580.526 789.675C576.786 804.449 569.117 817.935 558.332 828.703C548.388 838.582 536.081 845.751 522.582 849.527C515.612 851.499 508.408 852.52 501.165 852.564C494.945 852.585 488.74 851.965 482.647 850.713V850.768L412.443 838.564L380.554 905.666C371.175 925.426 356.119 938.944 338.814 946.407C327.734 951.132 315.761 953.397 303.721 953.046C287.288 952.682 271.309 947.579 257.707 938.351C244.104 929.123 233.457 916.162 227.045 901.027C225.658 897.706 224.47 894.305 223.489 890.842C222.888 888.74 222.341 886.574 221.888 884.361C221.464 882.843 221.155 881.295 220.962 879.731L215.406 848.314L207.462 803.416L131.795 790.574C114.744 787.731 98.9733 779.73 86.6098 767.648C76.4702 757.787 68.8487 745.634 64.3876 732.213C59.9354 718.793 58.8324 704.489 61.1746 690.546C64.0053 673.759 71.9204 658.246 83.8506 646.101C87.7065 642.089 91.9809 638.501 96.6006 635.398C100.548 632.76 104.693 630.433 108.999 628.435L170.776 596.583L157.017 519.972C152.897 497.102 157.943 476.092 168.638 459.259C174.843 449.515 182.998 441.161 192.589 434.724C202.181 428.286 213.001 423.903 224.369 421.852C243.814 418.352 264.906 421.676 284.258 434.018C287.297 435.962 290.219 438.083 293.008 440.37C295.888 442.699 298.598 445.23 301.119 447.944C304.246 451.422 306.597 455.525 308.017 459.981C309.999 461.463 311.98 463.009 313.962 464.611C312.052 459.582 311.073 454.249 311.073 448.87C311.106 437.012 315.833 425.65 324.221 417.268L324.425 417.074C328.569 412.921 333.493 409.628 338.914 407.383C344.335 405.138 350.145 403.985 356.012 403.991C361.879 403.997 367.687 405.162 373.103 407.418C378.519 409.674 383.437 412.977 387.573 417.139L387.767 417.342C388.896 418.484 389.965 419.683 390.971 420.935L493.897 215.481C492.289 216.455 490.615 217.315 488.888 218.055V218.101C484.393 220.068 479.539 221.083 474.633 221.083C469.727 221.083 464.873 220.068 460.378 218.101C458.999 217.515 457.659 216.838 456.369 216.074C451.503 213.36 447.355 209.526 444.267 204.889C438.38 200.932 433.799 195.319 431.101 188.759H431.054C429.088 184.264 428.073 179.411 428.073 174.504C428.073 169.598 429.088 164.745 431.054 160.25C431.646 158.868 432.326 157.525 433.091 156.231C435.796 151.4 439.603 147.276 444.202 144.194C448.155 138.263 453.787 133.646 460.378 130.935C464.873 128.968 469.727 127.953 474.633 127.953C479.539 127.953 484.393 128.968 488.888 130.935C490.278 131.529 491.627 132.215 492.925 132.99C497.766 135.705 501.892 139.533 504.962 144.157C510.848 148.114 515.43 153.727 518.128 160.287C518.664 161.544 519.131 162.83 519.527 164.139L524.314 154.574C528.55 146.069 535.18 138.989 543.388 134.203C542.296 124.774 543.986 115.231 548.249 106.75L564.721 73.9996C570.531 62.3804 580.719 53.5452 593.044 49.4377C605.368 45.3301 618.819 46.2866 630.439 52.0969C642.058 57.9071 650.893 68.095 655 80.4194C659.108 92.7439 658.152 106.195 652.341 117.814L635.943 150.555C631.707 159.06 625.077 166.14 616.869 170.926C617.963 180.349 616.283 189.887 612.036 198.37L567.054 288.185L568.101 288.213Z" fill="#F5E6F5"/>
<path d="M356.027 436.963C358.383 436.963 360.685 437.661 362.644 438.97C364.602 440.279 366.128 442.139 367.029 444.316C367.93 446.492 368.165 448.887 367.705 451.197C367.245 453.507 366.11 455.628 364.444 457.293C362.778 458.958 360.655 460.092 358.345 460.55C356.034 461.008 353.64 460.771 351.464 459.869C349.289 458.966 347.429 457.438 346.122 455.479C344.815 453.52 344.118 451.216 344.12 448.861C344.12 447.298 344.428 445.75 345.027 444.306C345.625 442.862 346.502 441.549 347.608 440.445C348.714 439.34 350.027 438.463 351.471 437.866C352.916 437.269 354.464 436.962 356.027 436.963ZM672.166 527.139C674.521 527.139 676.823 527.837 678.782 529.146C680.74 530.454 682.266 532.314 683.167 534.49C684.069 536.665 684.304 539.059 683.845 541.369C683.385 543.679 682.251 545.801 680.586 547.466C678.921 549.131 676.799 550.265 674.489 550.725C672.179 551.184 669.785 550.948 667.609 550.047C665.434 549.146 663.574 547.62 662.266 545.662C660.957 543.703 660.259 541.401 660.259 539.046C660.259 535.888 661.513 532.859 663.746 530.626C665.98 528.393 669.008 527.139 672.166 527.139ZM787.685 254.565C790.04 254.565 792.342 255.263 794.3 256.572C796.258 257.88 797.785 259.74 798.686 261.915C799.587 264.091 799.823 266.485 799.363 268.795C798.904 271.105 797.77 273.227 796.105 274.892C794.439 276.557 792.318 277.691 790.008 278.151C787.698 278.61 785.304 278.374 783.128 277.473C780.952 276.572 779.093 275.046 777.784 273.088C776.476 271.129 775.777 268.827 775.777 266.472C775.777 263.314 777.032 260.285 779.265 258.052C781.498 255.819 784.527 254.565 787.685 254.565ZM519.888 631.176C518.531 632.515 517.741 634.325 517.685 636.231C517.555 640.352 511.351 640.37 511.203 636.231C511.132 634.329 510.345 632.523 508.998 631.177C507.652 629.831 505.847 629.043 503.944 628.972C499.824 628.842 499.814 622.648 503.944 622.491C505.847 622.422 507.654 621.635 509.001 620.288C510.347 618.941 511.134 617.135 511.203 615.231C511.333 611.111 517.527 611.102 517.685 615.231C517.751 617.134 518.536 618.94 519.882 620.287C521.227 621.634 523.032 622.422 524.935 622.491C529.055 622.62 529.074 628.815 524.935 628.972C523.034 629.038 521.229 629.826 519.888 631.176ZM480.074 179.954C478.725 181.299 477.938 183.106 477.87 185.009C477.74 189.13 471.546 189.148 471.388 185.009C471.317 183.108 470.529 181.303 469.183 179.958C467.836 178.614 466.031 177.828 464.129 177.759C460.009 177.63 459.99 171.426 464.129 171.278C466.033 171.209 467.839 170.422 469.186 169.075C470.533 167.728 471.32 165.922 471.388 164.018C471.518 159.907 477.712 159.889 477.87 164.018C477.941 165.921 478.729 167.726 480.075 169.073C481.421 170.419 483.227 171.207 485.129 171.278C489.25 171.407 489.259 177.602 485.129 177.759C483.22 177.817 481.405 178.602 480.055 179.954H480.074ZM546.981 567.046C543.208 568.734 538.931 568.913 535.03 567.547C531.128 566.181 527.898 563.373 526.002 559.699C524.106 556.026 523.688 551.766 524.835 547.794C525.981 543.823 528.604 540.441 532.166 538.342L741.666 430.361C745.476 428.438 749.891 428.097 753.95 429.414C758.009 430.732 761.383 433.599 763.337 437.393C765.292 441.187 765.668 445.599 764.383 449.669C763.099 453.738 760.259 457.135 756.481 459.12L546.981 567.046ZM624.231 392.148C621.175 395.112 617.076 396.755 612.819 396.723C608.562 396.69 604.489 394.985 601.479 391.975C598.468 388.964 596.763 384.891 596.73 380.634C596.698 376.377 598.341 372.278 601.305 369.222L827.426 143.083C830.481 140.119 834.58 138.476 838.837 138.509C843.094 138.541 847.168 140.247 850.178 143.257C853.188 146.267 854.894 150.34 854.926 154.597C854.959 158.854 853.315 162.953 850.351 166.009L624.231 392.148ZM606.638 135.88C604.675 139.626 601.32 142.452 597.295 143.751C593.269 145.05 588.895 144.718 585.112 142.826C581.329 140.934 578.44 137.633 577.065 133.633C575.69 129.633 575.939 125.253 577.759 121.435L594.157 88.6944C596.071 84.8647 599.428 81.9523 603.49 80.5979C607.552 79.2435 611.985 79.5579 615.814 81.4722C619.644 83.3864 622.556 86.7435 623.911 90.8051C625.265 94.8666 624.951 99.2999 623.037 103.13L606.638 135.88ZM446.074 456.481C444.158 460.31 440.8 463.221 436.739 464.573C432.677 465.926 428.245 465.61 424.416 463.694C420.588 461.779 417.677 458.421 416.324 454.36C414.972 450.298 415.288 445.865 417.203 442.037L553.759 169.259C554.707 167.363 556.019 165.672 557.62 164.283C559.221 162.894 561.081 161.833 563.092 161.163C565.103 160.492 567.226 160.224 569.341 160.374C571.456 160.524 573.52 161.089 575.416 162.037C577.313 162.985 579.004 164.297 580.393 165.898C581.782 167.5 582.842 169.359 583.513 171.37C584.183 173.381 584.451 175.504 584.301 177.619C584.151 179.734 583.586 181.798 582.638 183.694L446.074 456.481ZM529.148 487.231C527.651 488.775 525.862 490.005 523.885 490.85C521.909 491.696 519.783 492.139 517.634 492.156C515.484 492.172 513.352 491.761 511.363 490.946C509.373 490.13 507.566 488.928 506.046 487.408C504.525 485.887 503.323 484.08 502.508 482.091C501.692 480.101 501.281 477.97 501.297 475.82C501.314 473.67 501.758 471.545 502.603 469.568C503.448 467.591 504.679 465.802 506.222 464.306L563.796 406.722C566.851 403.77 570.944 402.136 575.193 402.172C579.441 402.208 583.506 403.911 586.511 406.915C589.516 409.919 591.22 413.982 591.258 418.231C591.296 422.479 589.664 426.573 586.713 429.63L529.148 487.231ZM795.898 437.963C792.074 439.848 787.661 440.147 783.619 438.795C779.576 437.442 776.231 434.548 774.312 430.741C772.393 426.935 772.055 422.525 773.372 418.47C774.688 414.416 777.553 411.045 781.342 409.093L883.564 357.296C887.395 355.362 891.838 355.03 895.914 356.371C899.99 357.712 903.367 360.618 905.3 364.449C907.234 368.28 907.567 372.722 906.226 376.798C904.884 380.875 901.979 384.251 898.148 386.185L795.898 437.963ZM334.092 571.055L254.777 490.611C239.648 474.935 215.157 487.444 219 508.833L239.037 620.315C239.605 623.479 239.146 626.741 237.726 629.625C236.307 632.509 234.001 634.863 231.148 636.343L136.463 685.185C132.583 687.194 130.37 687.963 127.314 692.074C117.37 705.38 125.833 725.676 142.24 728.463L251.287 746.981C254.375 747.486 257.229 748.939 259.454 751.139C261.679 753.339 263.164 756.177 263.703 759.259L283.213 869.815C283.268 870.111 283.324 870.407 283.37 870.741C287.24 892.37 314.851 897.352 323.648 878.815L371.101 778.704C372.485 775.767 374.782 773.357 377.648 771.833C380.589 770.27 383.967 769.729 387.25 770.296C422.685 776.454 458.75 782.092 494.009 788.815C498.342 789.611 500.777 790.213 505.481 788.88C507.981 788.166 510.315 786.967 512.351 785.352C522.759 777.018 522.583 761.111 513.277 751.704L433.713 671.602C431.418 669.412 429.876 666.552 429.307 663.431C428.738 660.311 429.172 657.09 430.546 654.231L478.231 554.352C487.296 535.343 466.879 513.991 448.555 523.444L352.046 573.722C349.172 575.297 345.862 575.889 342.621 575.408C339.379 574.926 336.384 573.398 334.092 571.055ZM347.722 542.037L434.694 496.667C470.611 478.148 514.092 507.991 510.222 549.657C509.694 555.37 507.851 562.722 505.203 567.694L462.203 657.63L534.592 730.5C562.963 759.083 550.981 807.296 513.657 817.815C504.657 820.352 497.074 820.139 488.129 818.296L393.379 801.852L350.787 891.667C331.75 931.815 274.907 928.861 257.268 888.065C255.517 884.027 254.273 879.788 253.564 875.444L247.814 842.75L235.777 774.963L137.222 758.167C96.0088 751.157 78.0829 699.25 107.49 669.046C112.601 663.796 116.972 661.102 123.472 658.037L207.481 614.722L189.416 514.194C181.361 469.472 228.796 437.583 266.676 461.731C270.346 464.06 273.714 466.834 276.703 469.991C277.027 469.694 341.805 536.037 347.722 542.037ZM432.666 715.593C430.441 716.411 428.024 716.554 425.718 716.004C423.412 715.454 421.319 714.235 419.703 712.5C417.851 710.555 411.537 704.046 410.333 702.093C403.518 691.083 416.972 678.407 427.601 686.102C429.194 687.25 437.675 696.361 438.713 698.055C439.635 699.568 440.212 701.266 440.403 703.028C440.594 704.789 440.393 706.571 439.816 708.247C439.238 709.922 438.298 711.449 437.062 712.719C435.826 713.988 434.325 714.97 432.666 715.593ZM480.009 772.713L442.426 734.87C434.518 726.898 441.166 713.87 451.166 714.417C454.304 714.459 457.298 715.737 459.5 717.972L497.083 755.815C504.888 763.685 498.574 776.694 488.388 776.268C485.235 776.239 482.221 774.96 480.009 772.713ZM568.055 321.194C570.41 321.194 572.712 321.893 574.671 323.201C576.629 324.51 578.155 326.369 579.056 328.545C579.957 330.721 580.193 333.115 579.734 335.425C579.274 337.735 578.14 339.856 576.475 341.522C574.81 343.187 572.688 344.321 570.378 344.78C568.068 345.24 565.674 345.004 563.498 344.103C561.323 343.202 559.463 341.675 558.154 339.717C556.846 337.759 556.148 335.457 556.148 333.102C556.148 329.944 557.402 326.915 559.635 324.682C561.868 322.449 564.897 321.194 568.055 321.194Z" fill="#500599"/>
</svg>
